solid OpenSCAD_Model
  facet normal -1 0 0
    outer loop
      vertex -64 3 142.346
      vertex -64 132 159.946
      vertex -64 132 142.346
    endloop
  endfacet
  facet normal -1 -0 0
    outer loop
      vertex -64 132 159.946
      vertex -64 3 142.346
      vertex -64 3 159.946
    endloop
  endfacet
  facet normal 0.321156 0.947026 -0
    outer loop
      vertex 61.5307 135.696 142.346
      vertex 61.0353 135.864 159.946
      vertex 61.5307 135.696 159.946
    endloop
  endfacet
  facet normal 0.321156 0.947026 0
    outer loop
      vertex 61.0353 135.864 159.946
      vertex 61.5307 135.696 142.346
      vertex 61.0353 135.864 142.346
    endloop
  endfacet
  facet normal 1 -0 0
    outer loop
      vertex 64 3 159.946
      vertex 64 132 142.346
      vertex 64 132 159.946
    endloop
  endfacet
  facet normal 1 0 0
    outer loop
      vertex 64 132 142.346
      vertex 64 3 159.946
      vertex 64 3 142.346
    endloop
  endfacet
  facet normal 0 1 -0
    outer loop
      vertex 60 136 142.346
      vertex -60 136 159.946
      vertex 60 136 159.946
    endloop
  endfacet
  facet normal 0 1 0
    outer loop
      vertex -60 136 159.946
      vertex 60 136 142.346
      vertex -60 136 142.346
    endloop
  endfacet
  facet normal -0.321156 0.947026 0
    outer loop
      vertex -61.0353 135.864 142.346
      vertex -61.5307 135.696 159.946
      vertex -61.0353 135.864 159.946
    endloop
  endfacet
  facet normal -0.321156 0.947026 0
    outer loop
      vertex -61.5307 135.696 159.946
      vertex -61.0353 135.864 142.346
      vertex -61.5307 135.696 142.346
    endloop
  endfacet
  facet normal -0.19494 0.980815 0
    outer loop
      vertex -60.5221 135.966 142.346
      vertex -61.0353 135.864 159.946
      vertex -60.5221 135.966 159.946
    endloop
  endfacet
  facet normal -0.19494 0.980815 0
    outer loop
      vertex -61.0353 135.864 159.946
      vertex -60.5221 135.966 142.346
      vertex -61.0353 135.864 142.346
    endloop
  endfacet
  facet normal -0.443159 0.896443 0
    outer loop
      vertex -61.5307 135.696 142.346
      vertex -62 135.464 159.946
      vertex -61.5307 135.696 159.946
    endloop
  endfacet
  facet normal -0.443159 0.896443 0
    outer loop
      vertex -62 135.464 159.946
      vertex -61.5307 135.696 142.346
      vertex -62 135.464 142.346
    endloop
  endfacet
  facet normal -0.896786 0.442465 0
    outer loop
      vertex -63.6955 133.531 142.346
      vertex -63.4641 134 159.946
      vertex -63.4641 134 142.346
    endloop
  endfacet
  facet normal -0.896786 0.442465 0
    outer loop
      vertex -63.4641 134 159.946
      vertex -63.6955 133.531 142.346
      vertex -63.6955 133.531 159.946
    endloop
  endfacet
  facet normal -0.659343 0.751842 0
    outer loop
      vertex -62.435 135.173 142.346
      vertex -62.8284 134.828 159.946
      vertex -62.435 135.173 159.946
    endloop
  endfacet
  facet normal -0.659343 0.751842 0
    outer loop
      vertex -62.8284 134.828 159.946
      vertex -62.435 135.173 142.346
      vertex -62.8284 134.828 142.346
    endloop
  endfacet
  facet normal -0.947028 0.32115 0
    outer loop
      vertex -63.8637 133.035 142.346
      vertex -63.6955 133.531 159.946
      vertex -63.6955 133.531 142.346
    endloop
  endfacet
  facet normal -0.947028 0.32115 0
    outer loop
      vertex -63.6955 133.531 159.946
      vertex -63.8637 133.035 142.346
      vertex -63.8637 133.035 159.946
    endloop
  endfacet
  facet normal 0.556022 0.831167 -0
    outer loop
      vertex 62.435 135.173 142.346
      vertex 62 135.464 159.946
      vertex 62.435 135.173 159.946
    endloop
  endfacet
  facet normal 0.556022 0.831167 0
    outer loop
      vertex 62 135.464 159.946
      vertex 62.435 135.173 142.346
      vertex 62 135.464 142.346
    endloop
  endfacet
  facet normal -0.064984 0.997886 0
    outer loop
      vertex -60 136 142.346
      vertex -60.5221 135.966 159.946
      vertex -60 136 159.946
    endloop
  endfacet
  facet normal -0.064984 0.997886 0
    outer loop
      vertex -60.5221 135.966 159.946
      vertex -60 136 142.346
      vertex -60.5221 135.966 142.346
    endloop
  endfacet
  facet normal -0.556022 0.831167 0
    outer loop
      vertex -62 135.464 142.346
      vertex -62.435 135.173 159.946
      vertex -62 135.464 159.946
    endloop
  endfacet
  facet normal -0.556022 0.831167 0
    outer loop
      vertex -62.435 135.173 159.946
      vertex -62 135.464 142.346
      vertex -62.435 135.173 142.346
    endloop
  endfacet
  facet normal 0.947028 0.32115 0
    outer loop
      vertex 63.8637 133.035 159.946
      vertex 63.6955 133.531 142.346
      vertex 63.6955 133.531 159.946
    endloop
  endfacet
  facet normal 0.947028 0.32115 0
    outer loop
      vertex 63.6955 133.531 142.346
      vertex 63.8637 133.035 159.946
      vertex 63.8637 133.035 142.346
    endloop
  endfacet
  facet normal 0.896786 0.442465 0
    outer loop
      vertex 63.6955 133.531 159.946
      vertex 63.4641 134 142.346
      vertex 63.4641 134 159.946
    endloop
  endfacet
  facet normal 0.896786 0.442465 0
    outer loop
      vertex 63.4641 134 142.346
      vertex 63.6955 133.531 159.946
      vertex 63.6955 133.531 142.346
    endloop
  endfacet
  facet normal 0 0 -1
    outer loop
      vertex -64 132 142.346
      vertex -60.4 132.4 142.346
      vertex -60.4 3 142.346
    endloop
  endfacet
  facet normal 0 -0 -1
    outer loop
      vertex -63.9658 132.522 142.346
      vertex -60.4 132.4 142.346
      vertex -64 132 142.346
    endloop
  endfacet
  facet normal 0 0 -1
    outer loop
      vertex -60.4 132.4 142.346
      vertex -61.0353 135.864 142.346
      vertex -60.5221 135.966 142.346
    endloop
  endfacet
  facet normal 0 0 -1
    outer loop
      vertex -60.4 132.4 142.346
      vertex -61.5307 135.696 142.346
      vertex -61.0353 135.864 142.346
    endloop
  endfacet
  facet normal 0 0 -1
    outer loop
      vertex -60.4 132.4 142.346
      vertex -62 135.464 142.346
      vertex -61.5307 135.696 142.346
    endloop
  endfacet
  facet normal 0 0 -1
    outer loop
      vertex -60.4 132.4 142.346
      vertex -62.435 135.173 142.346
      vertex -62 135.464 142.346
    endloop
  endfacet
  facet normal 0 0 -1
    outer loop
      vertex -60.4 132.4 142.346
      vertex -62.8284 134.828 142.346
      vertex -62.435 135.173 142.346
    endloop
  endfacet
  facet normal 0 0 -1
    outer loop
      vertex -60.4 132.4 142.346
      vertex -63.1734 134.435 142.346
      vertex -62.8284 134.828 142.346
    endloop
  endfacet
  facet normal 0 0 -1
    outer loop
      vertex -60.4 132.4 142.346
      vertex -63.4641 134 142.346
      vertex -63.1734 134.435 142.346
    endloop
  endfacet
  facet normal 0 0 -1
    outer loop
      vertex -60.4 132.4 142.346
      vertex -63.6955 133.531 142.346
      vertex -63.4641 134 142.346
    endloop
  endfacet
  facet normal 0 0 -1
    outer loop
      vertex -60.4 132.4 142.346
      vertex -63.8637 133.035 142.346
      vertex -63.6955 133.531 142.346
    endloop
  endfacet
  facet normal 0 0 -1
    outer loop
      vertex -64 132 142.346
      vertex -60.4 3 142.346
      vertex -64 3 142.346
    endloop
  endfacet
  facet normal 0 0 -1
    outer loop
      vertex -60.4 132.4 142.346
      vertex -63.9658 132.522 142.346
      vertex -63.8637 133.035 142.346
    endloop
  endfacet
  facet normal 0 0 -1
    outer loop
      vertex 60.4 3 142.346
      vertex 64 132 142.346
      vertex 64 3 142.346
    endloop
  endfacet
  facet normal 0 0 -1
    outer loop
      vertex 64 132 142.346
      vertex 60.4 132.4 142.346
      vertex 63.9658 132.522 142.346
    endloop
  endfacet
  facet normal -0 0 -1
    outer loop
      vertex 63.9658 132.522 142.346
      vertex 60.4 132.4 142.346
      vertex 63.8637 133.035 142.346
    endloop
  endfacet
  facet normal -0 0 -1
    outer loop
      vertex 63.8637 133.035 142.346
      vertex 60.4 132.4 142.346
      vertex 63.6955 133.531 142.346
    endloop
  endfacet
  facet normal -0 0 -1
    outer loop
      vertex 63.6955 133.531 142.346
      vertex 60.4 132.4 142.346
      vertex 63.4641 134 142.346
    endloop
  endfacet
  facet normal -0 0 -1
    outer loop
      vertex 63.4641 134 142.346
      vertex 60.4 132.4 142.346
      vertex 63.1734 134.435 142.346
    endloop
  endfacet
  facet normal -0 0 -1
    outer loop
      vertex 63.1734 134.435 142.346
      vertex 60.4 132.4 142.346
      vertex 62.8284 134.828 142.346
    endloop
  endfacet
  facet normal -0 0 -1
    outer loop
      vertex 62.8284 134.828 142.346
      vertex 60.4 132.4 142.346
      vertex 62.435 135.173 142.346
    endloop
  endfacet
  facet normal -0 0 -1
    outer loop
      vertex 62.435 135.173 142.346
      vertex 60.4 132.4 142.346
      vertex 62 135.464 142.346
    endloop
  endfacet
  facet normal -0 0 -1
    outer loop
      vertex 62 135.464 142.346
      vertex 60.4 132.4 142.346
      vertex 61.5307 135.696 142.346
    endloop
  endfacet
  facet normal -0 0 -1
    outer loop
      vertex 61.5307 135.696 142.346
      vertex 60.4 132.4 142.346
      vertex 61.0353 135.864 142.346
    endloop
  endfacet
  facet normal -0 0 -1
    outer loop
      vertex 64 132 142.346
      vertex 60.4 3 142.346
      vertex 60.4 132.4 142.346
    endloop
  endfacet
  facet normal -0 0 -1
    outer loop
      vertex 61.0353 135.864 142.346
      vertex 60.4 132.4 142.346
      vertex 60.5221 135.966 142.346
    endloop
  endfacet
  facet normal 0 0 -1
    outer loop
      vertex 60.4 132.4 142.346
      vertex 60 136 142.346
      vertex 60.5221 135.966 142.346
    endloop
  endfacet
  facet normal 0 0 -1
    outer loop
      vertex 60.4 132.4 142.346
      vertex -60 136 142.346
      vertex 60 136 142.346
    endloop
  endfacet
  facet normal 0 0 -1
    outer loop
      vertex -60.4 132.4 142.346
      vertex -60 136 142.346
      vertex 60.4 132.4 142.346
    endloop
  endfacet
  facet normal 0 0 -1
    outer loop
      vertex -60 136 142.346
      vertex -60.4 132.4 142.346
      vertex -60.5221 135.966 142.346
    endloop
  endfacet
  facet normal -0.980764 0.195197 0
    outer loop
      vertex -63.9658 132.522 142.346
      vertex -63.8637 133.035 159.946
      vertex -63.8637 133.035 142.346
    endloop
  endfacet
  facet normal -0.980764 0.195197 0
    outer loop
      vertex -63.8637 133.035 159.946
      vertex -63.9658 132.522 142.346
      vertex -63.9658 132.522 159.946
    endloop
  endfacet
  facet normal 0.064984 0.997886 -0
    outer loop
      vertex 60.5221 135.966 142.346
      vertex 60 136 159.946
      vertex 60.5221 135.966 159.946
    endloop
  endfacet
  facet normal 0.064984 0.997886 0
    outer loop
      vertex 60 136 159.946
      vertex 60.5221 135.966 142.346
      vertex 60 136 142.346
    endloop
  endfacet
  facet normal -0.997861 0.0653771 0
    outer loop
      vertex -64 132 142.346
      vertex -63.9658 132.522 159.946
      vertex -63.9658 132.522 142.346
    endloop
  endfacet
  facet normal -0.997861 0.0653771 0
    outer loop
      vertex -63.9658 132.522 159.946
      vertex -64 132 142.346
      vertex -64 132 159.946
    endloop
  endfacet
  facet normal -0.831432 0.555626 0
    outer loop
      vertex -63.4641 134 142.346
      vertex -63.1734 134.435 159.946
      vertex -63.1734 134.435 142.346
    endloop
  endfacet
  facet normal -0.831432 0.555626 0
    outer loop
      vertex -63.1734 134.435 159.946
      vertex -63.4641 134 142.346
      vertex -63.4641 134 159.946
    endloop
  endfacet
  facet normal 0.19494 0.980815 -0
    outer loop
      vertex 61.0353 135.864 142.346
      vertex 60.5221 135.966 159.946
      vertex 61.0353 135.864 159.946
    endloop
  endfacet
  facet normal 0.19494 0.980815 0
    outer loop
      vertex 60.5221 135.966 159.946
      vertex 61.0353 135.864 142.346
      vertex 60.5221 135.966 142.346
    endloop
  endfacet
  facet normal 0 0 1
    outer loop
      vertex 60 136 159.946
      vertex 64 132 159.946
      vertex 63.9658 132.522 159.946
    endloop
  endfacet
  facet normal 0 0 1
    outer loop
      vertex 60 136 159.946
      vertex 63.9658 132.522 159.946
      vertex 63.8637 133.035 159.946
    endloop
  endfacet
  facet normal 0 0 1
    outer loop
      vertex 60 136 159.946
      vertex 63.8637 133.035 159.946
      vertex 63.6955 133.531 159.946
    endloop
  endfacet
  facet normal 0 0 1
    outer loop
      vertex 60 136 159.946
      vertex 63.6955 133.531 159.946
      vertex 63.4641 134 159.946
    endloop
  endfacet
  facet normal 0 0 1
    outer loop
      vertex 60 136 159.946
      vertex 63.4641 134 159.946
      vertex 63.1734 134.435 159.946
    endloop
  endfacet
  facet normal 0 0 1
    outer loop
      vertex 60 136 159.946
      vertex 63.1734 134.435 159.946
      vertex 62.8284 134.828 159.946
    endloop
  endfacet
  facet normal 0 0 1
    outer loop
      vertex 60 136 159.946
      vertex 62.8284 134.828 159.946
      vertex 62.435 135.173 159.946
    endloop
  endfacet
  facet normal 0 0 1
    outer loop
      vertex 60 136 159.946
      vertex 62.435 135.173 159.946
      vertex 62 135.464 159.946
    endloop
  endfacet
  facet normal 0 0 1
    outer loop
      vertex 60 136 159.946
      vertex 62 135.464 159.946
      vertex 61.5307 135.696 159.946
    endloop
  endfacet
  facet normal 0 0 1
    outer loop
      vertex 60 136 159.946
      vertex 61.5307 135.696 159.946
      vertex 61.0353 135.864 159.946
    endloop
  endfacet
  facet normal 0 0 1
    outer loop
      vertex 60 136 159.946
      vertex 61.0353 135.864 159.946
      vertex 60.5221 135.966 159.946
    endloop
  endfacet
  facet normal 0 0 1
    outer loop
      vertex -64 132 159.946
      vertex 64 132 159.946
      vertex 60 136 159.946
    endloop
  endfacet
  facet normal 0 0 1
    outer loop
      vertex -64 132 159.946
      vertex 60 136 159.946
      vertex -60 136 159.946
    endloop
  endfacet
  facet normal 0 0 1
    outer loop
      vertex -64 132 159.946
      vertex -60 136 159.946
      vertex -60.5221 135.966 159.946
    endloop
  endfacet
  facet normal 0 0 1
    outer loop
      vertex -64 132 159.946
      vertex -60.5221 135.966 159.946
      vertex -61.0353 135.864 159.946
    endloop
  endfacet
  facet normal 0 0 1
    outer loop
      vertex -64 132 159.946
      vertex -61.0353 135.864 159.946
      vertex -61.5307 135.696 159.946
    endloop
  endfacet
  facet normal 0 0 1
    outer loop
      vertex -64 132 159.946
      vertex -61.5307 135.696 159.946
      vertex -62 135.464 159.946
    endloop
  endfacet
  facet normal 0 0 1
    outer loop
      vertex -64 132 159.946
      vertex -62 135.464 159.946
      vertex -62.435 135.173 159.946
    endloop
  endfacet
  facet normal 0 0 1
    outer loop
      vertex -64 132 159.946
      vertex -62.435 135.173 159.946
      vertex -62.8284 134.828 159.946
    endloop
  endfacet
  facet normal 0 0 1
    outer loop
      vertex -64 132 159.946
      vertex -62.8284 134.828 159.946
      vertex -63.1734 134.435 159.946
    endloop
  endfacet
  facet normal 0 0 1
    outer loop
      vertex -64 132 159.946
      vertex -63.1734 134.435 159.946
      vertex -63.4641 134 159.946
    endloop
  endfacet
  facet normal 0 0 1
    outer loop
      vertex -64 132 159.946
      vertex -63.4641 134 159.946
      vertex -63.6955 133.531 159.946
    endloop
  endfacet
  facet normal 0 0 1
    outer loop
      vertex -64 132 159.946
      vertex -63.6955 133.531 159.946
      vertex -63.8637 133.035 159.946
    endloop
  endfacet
  facet normal 0 0 1
    outer loop
      vertex -64 132 159.946
      vertex -63.8637 133.035 159.946
      vertex -63.9658 132.522 159.946
    endloop
  endfacet
  facet normal 0 0 1
    outer loop
      vertex 64 132 159.946
      vertex -64 132 159.946
      vertex 64 3 159.946
    endloop
  endfacet
  facet normal 0 0 1
    outer loop
      vertex 64 3 159.946
      vertex -64 132 159.946
      vertex -64 3 159.946
    endloop
  endfacet
  facet normal 0.659343 0.751842 -0
    outer loop
      vertex 62.8284 134.828 142.346
      vertex 62.435 135.173 159.946
      vertex 62.8284 134.828 159.946
    endloop
  endfacet
  facet normal 0.659343 0.751842 0
    outer loop
      vertex 62.435 135.173 159.946
      vertex 62.8284 134.828 142.346
      vertex 62.435 135.173 142.346
    endloop
  endfacet
  facet normal 0.75151 0.659722 0
    outer loop
      vertex 63.1734 134.435 159.946
      vertex 62.8284 134.828 142.346
      vertex 62.8284 134.828 159.946
    endloop
  endfacet
  facet normal 0.75151 0.659722 0
    outer loop
      vertex 62.8284 134.828 142.346
      vertex 63.1734 134.435 159.946
      vertex 63.1734 134.435 142.346
    endloop
  endfacet
  facet normal 0.831432 0.555626 0
    outer loop
      vertex 63.4641 134 159.946
      vertex 63.1734 134.435 142.346
      vertex 63.1734 134.435 159.946
    endloop
  endfacet
  facet normal 0.831432 0.555626 0
    outer loop
      vertex 63.1734 134.435 142.346
      vertex 63.4641 134 159.946
      vertex 63.4641 134 142.346
    endloop
  endfacet
  facet normal -0.75151 0.659722 0
    outer loop
      vertex -63.1734 134.435 142.346
      vertex -62.8284 134.828 159.946
      vertex -62.8284 134.828 142.346
    endloop
  endfacet
  facet normal -0.75151 0.659722 0
    outer loop
      vertex -62.8284 134.828 159.946
      vertex -63.1734 134.435 142.346
      vertex -63.1734 134.435 159.946
    endloop
  endfacet
  facet normal 0.443159 0.896443 -0
    outer loop
      vertex 62 135.464 142.346
      vertex 61.5307 135.696 159.946
      vertex 62 135.464 159.946
    endloop
  endfacet
  facet normal 0.443159 0.896443 0
    outer loop
      vertex 61.5307 135.696 159.946
      vertex 62 135.464 142.346
      vertex 61.5307 135.696 142.346
    endloop
  endfacet
  facet normal 0.997861 0.0653771 0
    outer loop
      vertex 64 132 159.946
      vertex 63.9658 132.522 142.346
      vertex 63.9658 132.522 159.946
    endloop
  endfacet
  facet normal 0.997861 0.0653771 0
    outer loop
      vertex 63.9658 132.522 142.346
      vertex 64 132 159.946
      vertex 64 132 142.346
    endloop
  endfacet
  facet normal 0.980764 0.195197 0
    outer loop
      vertex 63.9658 132.522 159.946
      vertex 63.8637 133.035 142.346
      vertex 63.8637 133.035 159.946
    endloop
  endfacet
  facet normal 0.980764 0.195197 0
    outer loop
      vertex 63.8637 133.035 142.346
      vertex 63.9658 132.522 159.946
      vertex 63.9658 132.522 142.346
    endloop
  endfacet
  facet normal -1 0 0
    outer loop
      vertex 60.4 127 150.346
      vertex 60.4 132.4 142.346
      vertex 60.4 127 146.346
    endloop
  endfacet
  facet normal -1 0 0
    outer loop
      vertex 60.4 132.4 142.346
      vertex 60.4 12 146.346
      vertex 60.4 127 146.346
    endloop
  endfacet
  facet normal -1 -0 0
    outer loop
      vertex 60.4 12 146.346
      vertex 60.4 3 142.346
      vertex 60.4 12 150.346
    endloop
  endfacet
  facet normal -1 0 0
    outer loop
      vertex 60.4 3 142.346
      vertex 60.4 12 146.346
      vertex 60.4 132.4 142.346
    endloop
  endfacet
  facet normal -1 0 0
    outer loop
      vertex 60.4 132.4 142.346
      vertex 60.4 127 150.346
      vertex 60.4 132.4 156.346
    endloop
  endfacet
  facet normal -1 0 0
    outer loop
      vertex 60.4 12 150.346
      vertex 60.4 132.4 156.346
      vertex 60.4 127 150.346
    endloop
  endfacet
  facet normal -1 0 0
    outer loop
      vertex 60.4 12 150.346
      vertex 60.4 3 156.346
      vertex 60.4 132.4 156.346
    endloop
  endfacet
  facet normal -1 0 0
    outer loop
      vertex 60.4 3 156.346
      vertex 60.4 12 150.346
      vertex 60.4 3 142.346
    endloop
  endfacet
  facet normal 0 0 -1
    outer loop
      vertex -60.4 3 156.346
      vertex 60.4 132.4 156.346
      vertex 60.4 3 156.346
    endloop
  endfacet
  facet normal -0 0 -1
    outer loop
      vertex 60.4 132.4 156.346
      vertex -60.4 3 156.346
      vertex -60.4 132.4 156.346
    endloop
  endfacet
  facet normal 1 0 0
    outer loop
      vertex -60.4 132.4 156.346
      vertex -60.4 127 150.346
      vertex -60.4 132.4 142.346
    endloop
  endfacet
  facet normal 1 0 0
    outer loop
      vertex -60.4 132.4 156.346
      vertex -60.4 12 150.346
      vertex -60.4 127 150.346
    endloop
  endfacet
  facet normal 1 0 0
    outer loop
      vertex -60.4 3 142.346
      vertex -60.4 12 150.346
      vertex -60.4 3 156.346
    endloop
  endfacet
  facet normal 1 -0 0
    outer loop
      vertex -60.4 3 156.346
      vertex -60.4 12 150.346
      vertex -60.4 132.4 156.346
    endloop
  endfacet
  facet normal 1 -0 0
    outer loop
      vertex -60.4 127 146.346
      vertex -60.4 132.4 142.346
      vertex -60.4 127 150.346
    endloop
  endfacet
  facet normal 1 -0 0
    outer loop
      vertex -60.4 12 146.346
      vertex -60.4 132.4 142.346
      vertex -60.4 127 146.346
    endloop
  endfacet
  facet normal 1 0 0
    outer loop
      vertex -60.4 12 146.346
      vertex -60.4 3 142.346
      vertex -60.4 132.4 142.346
    endloop
  endfacet
  facet normal 1 0 0
    outer loop
      vertex -60.4 12 150.346
      vertex -60.4 3 142.346
      vertex -60.4 12 146.346
    endloop
  endfacet
  facet normal 0 -1 0
    outer loop
      vertex -60.4 132.4 142.346
      vertex 60.4 132.4 156.346
      vertex -60.4 132.4 156.346
    endloop
  endfacet
  facet normal 0 -1 -0
    outer loop
      vertex 60.4 132.4 156.346
      vertex -60.4 132.4 142.346
      vertex 60.4 132.4 142.346
    endloop
  endfacet
  facet normal 0 0 -1
    outer loop
      vertex -60.4 12 146.346
      vertex -59.2 127 146.346
      vertex -59.2 12 146.346
    endloop
  endfacet
  facet normal -0 0 -1
    outer loop
      vertex -59.2 127 146.346
      vertex -60.4 12 146.346
      vertex -60.4 127 146.346
    endloop
  endfacet
  facet normal 0 0 -1
    outer loop
      vertex 59.2 12 146.346
      vertex 60.4 127 146.346
      vertex 60.4 12 146.346
    endloop
  endfacet
  facet normal -0 0 -1
    outer loop
      vertex 60.4 127 146.346
      vertex 59.2 12 146.346
      vertex 59.2 127 146.346
    endloop
  endfacet
  facet normal -0 0 1
    outer loop
      vertex -60.4 127 150.346
      vertex -59.2 12 150.346
      vertex -59.2 127 150.346
    endloop
  endfacet
  facet normal 0 0 1
    outer loop
      vertex -59.2 12 150.346
      vertex -60.4 127 150.346
      vertex -60.4 12 150.346
    endloop
  endfacet
  facet normal -0 0 1
    outer loop
      vertex 59.2 127 150.346
      vertex 60.4 12 150.346
      vertex 60.4 127 150.346
    endloop
  endfacet
  facet normal 0 0 1
    outer loop
      vertex 60.4 12 150.346
      vertex 59.2 127 150.346
      vertex 59.2 12 150.346
    endloop
  endfacet
  facet normal 0 1 -0
    outer loop
      vertex -59.2 127 146.346
      vertex -60.4 127 150.346
      vertex -59.2 127 150.346
    endloop
  endfacet
  facet normal 0 1 0
    outer loop
      vertex -60.4 127 150.346
      vertex -59.2 127 146.346
      vertex -60.4 127 146.346
    endloop
  endfacet
  facet normal 0 -1 0
    outer loop
      vertex -60.4 12 146.346
      vertex -59.2 12 150.346
      vertex -60.4 12 150.346
    endloop
  endfacet
  facet normal 0 -1 -0
    outer loop
      vertex -59.2 12 150.346
      vertex -60.4 12 146.346
      vertex -59.2 12 146.346
    endloop
  endfacet
  facet normal 1 -0 0
    outer loop
      vertex -59.2 12 150.346
      vertex -59.2 127 146.346
      vertex -59.2 127 150.346
    endloop
  endfacet
  facet normal 1 0 0
    outer loop
      vertex -59.2 127 146.346
      vertex -59.2 12 150.346
      vertex -59.2 12 146.346
    endloop
  endfacet
  facet normal 0 1 -0
    outer loop
      vertex 60.4 127 146.346
      vertex 59.2 127 150.346
      vertex 60.4 127 150.346
    endloop
  endfacet
  facet normal 0 1 0
    outer loop
      vertex 59.2 127 150.346
      vertex 60.4 127 146.346
      vertex 59.2 127 146.346
    endloop
  endfacet
  facet normal -1 0 0
    outer loop
      vertex 59.2 12 146.346
      vertex 59.2 127 150.346
      vertex 59.2 127 146.346
    endloop
  endfacet
  facet normal -1 -0 0
    outer loop
      vertex 59.2 127 150.346
      vertex 59.2 12 146.346
      vertex 59.2 12 150.346
    endloop
  endfacet
  facet normal 0 -1 0
    outer loop
      vertex 59.2 12 146.346
      vertex 60.4 12 150.346
      vertex 59.2 12 150.346
    endloop
  endfacet
  facet normal 0 -1 -0
    outer loop
      vertex 60.4 12 150.346
      vertex 59.2 12 146.346
      vertex 60.4 12 146.346
    endloop
  endfacet
  facet normal 0 -1 0
    outer loop
      vertex -64 3 159.946
      vertex -60.4 3 156.346
      vertex 64 3 159.946
    endloop
  endfacet
  facet normal 0 -1 0
    outer loop
      vertex -64 3 142.346
      vertex -60.4 3 156.346
      vertex -64 3 159.946
    endloop
  endfacet
  facet normal 0 -1 -0
    outer loop
      vertex -60.4 3 156.346
      vertex -64 3 142.346
      vertex -60.4 3 142.346
    endloop
  endfacet
  facet normal 0 -1 0
    outer loop
      vertex 60.4 3 156.346
      vertex 64 3 159.946
      vertex -60.4 3 156.346
    endloop
  endfacet
  facet normal 0 -1 0
    outer loop
      vertex 64 3 142.346
      vertex 60.4 3 156.346
      vertex 60.4 3 142.346
    endloop
  endfacet
  facet normal 0 -1 0
    outer loop
      vertex 60.4 3 156.346
      vertex 64 3 142.346
      vertex 64 3 159.946
    endloop
  endfacet
endsolid OpenSCAD_Model
