solid OpenSCAD_Model
  facet normal 1 -0 0
    outer loop
      vertex 52.2 -2.05 122
      vertex 52.2 -1.8 48.8627
      vertex 52.2 -1.8 164.8
    endloop
  endfacet
  facet normal 1 0 0
    outer loop
      vertex 52.2 -1.8 48.8627
      vertex 52.2 -2.05 122
      vertex 52.2 -1.8 42.2087
    endloop
  endfacet
  facet normal 1 0 0
    outer loop
      vertex 52.2 -1.8 42.2087
      vertex 52.2 -2.05 122
      vertex 52.2 -1.8 40.05
    endloop
  endfacet
  facet normal 1 0 0
    outer loop
      vertex 52.2 -1.8 164.8
      vertex 52.2 -6.05 122
      vertex 52.2 -2.05 122
    endloop
  endfacet
  facet normal 1 0 0
    outer loop
      vertex 52.2 -6.05 122
      vertex 52.2 -62 29.5764
      vertex 52.2 -6.05 2.05001
    endloop
  endfacet
  facet normal 1 -0 0
    outer loop
      vertex 52.2 -102.067 164.086
      vertex 52.2 -6.05 122
      vertex 52.2 -1.8 164.8
    endloop
  endfacet
  facet normal 1 0 0
    outer loop
      vertex 52.2 -6.05 122
      vertex 52.2 -102.067 164.086
      vertex 52.2 -62 29.5764
    endloop
  endfacet
  facet normal 1 -0 0
    outer loop
      vertex 52.2 -102.177 164.8
      vertex 52.2 -102.067 164.086
      vertex 52.2 -1.8 164.8
    endloop
  endfacet
  facet normal 1 0 0
    outer loop
      vertex 52.2 -102.067 164.086
      vertex 52.2 -102.177 164.8
      vertex 52.2 -102.177 164.614
    endloop
  endfacet
  facet normal 1 -0 0
    outer loop
      vertex 52.2 30.8 84.05
      vertex 52.2 34 80.85
      vertex 52.2 34 84.05
    endloop
  endfacet
  facet normal 1 0 0
    outer loop
      vertex 52.2 -1.8 48.8627
      vertex 52.2 34 80.85
      vertex 52.2 30.8 84.05
    endloop
  endfacet
  facet normal 1 0 0
    outer loop
      vertex 52.2 34 80.85
      vertex 52.2 -1.8 48.8627
      vertex 52.2 -1.8 42.2087
    endloop
  endfacet
  facet normal 1 -0 0
    outer loop
      vertex 52.2 -1.8 40.05
      vertex 52.2 58 2.05
      vertex 52.2 58 40.05
    endloop
  endfacet
  facet normal 1 0 0
    outer loop
      vertex 52.2 -2.05 2.05001
      vertex 52.2 -1.8 40.05
      vertex 52.2 -2.05 122
    endloop
  endfacet
  facet normal 1 -0 0
    outer loop
      vertex 52.2 -2.05 2.05001
      vertex 52.2 58 2.05
      vertex 52.2 -1.8 40.05
    endloop
  endfacet
  facet normal 1 -0 0
    outer loop
      vertex 52.2 -6.05 2.05001
      vertex 52.2 58 2.05
      vertex 52.2 -2.05 2.05001
    endloop
  endfacet
  facet normal 1 0 0
    outer loop
      vertex 52.2 -6.05 2.05001
      vertex 52.2 -62 2.05
      vertex 52.2 58 2.05
    endloop
  endfacet
  facet normal 1 0 0
    outer loop
      vertex 52.2 -62 2.05
      vertex 52.2 -6.05 2.05001
      vertex 52.2 -62 29.5764
    endloop
  endfacet
  facet normal 0 1 -0
    outer loop
      vertex 27.5 -1.8 114
      vertex -27.5 -1.8 120.2
      vertex 27.5 -1.8 120.2
    endloop
  endfacet
  facet normal 0 1 0
    outer loop
      vertex -27.5 -1.8 120.2
      vertex 27.5 -1.8 114
      vertex -27.5 -1.8 114
    endloop
  endfacet
  facet normal 0 1 0
    outer loop
      vertex 27.5 -1.8 120.2
      vertex 52.2 -1.8 164.8
      vertex 32.5 -1.8 120.2
    endloop
  endfacet
  facet normal 0 1 0
    outer loop
      vertex 52.2 -1.8 164.8
      vertex 32.5 -1.8 114
      vertex 32.5 -1.8 120.2
    endloop
  endfacet
  facet normal 0 1 0
    outer loop
      vertex 52.2 -1.8 48.8627
      vertex 27.5 -1.8 114
      vertex 32.5 -1.8 114
    endloop
  endfacet
  facet normal 0 1 0
    outer loop
      vertex 27.5 -1.8 114
      vertex 52.2 -1.8 48.8627
      vertex -27.5 -1.8 114
    endloop
  endfacet
  facet normal 0 1 0
    outer loop
      vertex -52.2 -1.8 48.8627
      vertex -27.5 -1.8 114
      vertex 52.2 -1.8 48.8627
    endloop
  endfacet
  facet normal 0 1 -0
    outer loop
      vertex 52.2 -1.8 48.8627
      vertex 32.5 -1.8 114
      vertex 52.2 -1.8 164.8
    endloop
  endfacet
  facet normal 0 1 0
    outer loop
      vertex 52.2 -1.8 164.8
      vertex 27.5 -1.8 120.2
      vertex -52.2 -1.8 164.8
    endloop
  endfacet
  facet normal 0 1 -0
    outer loop
      vertex -27.5 -1.8 120.2
      vertex -52.2 -1.8 164.8
      vertex 27.5 -1.8 120.2
    endloop
  endfacet
  facet normal 0 1 -0
    outer loop
      vertex -32.5 -1.8 120.2
      vertex -52.2 -1.8 164.8
      vertex -27.5 -1.8 120.2
    endloop
  endfacet
  facet normal 0 1 -0
    outer loop
      vertex -32.5 -1.8 114
      vertex -52.2 -1.8 164.8
      vertex -32.5 -1.8 120.2
    endloop
  endfacet
  facet normal 0 1 0
    outer loop
      vertex -32.5 -1.8 114
      vertex -52.2 -1.8 48.8627
      vertex -52.2 -1.8 164.8
    endloop
  endfacet
  facet normal 0 1 0
    outer loop
      vertex -27.5 -1.8 114
      vertex -52.2 -1.8 48.8627
      vertex -32.5 -1.8 114
    endloop
  endfacet
  facet normal 0 1 0
    outer loop
      vertex 49 -1.8 40.05
      vertex 52.2 -1.8 42.2087
      vertex 52.2 -1.8 40.05
    endloop
  endfacet
  facet normal 0 1 0
    outer loop
      vertex 52.2 -1.8 42.2087
      vertex 49 -1.8 40.05
      vertex -52.2 -1.8 42.2087
    endloop
  endfacet
  facet normal 0 1 -0
    outer loop
      vertex -49 -1.8 40.05
      vertex -52.2 -1.8 42.2087
      vertex 49 -1.8 40.05
    endloop
  endfacet
  facet normal 0 1 0
    outer loop
      vertex -52.2 -1.8 42.2087
      vertex -49 -1.8 40.05
      vertex -52.2 -1.8 40.05
    endloop
  endfacet
  facet normal 0 -0.958385 -0.285479
    outer loop
      vertex -52.2 -62 29.5764
      vertex 52.2 -102.067 164.086
      vertex -52.2 -102.067 164.086
    endloop
  endfacet
  facet normal 0 -0.958385 -0.285479
    outer loop
      vertex 52.2 -102.067 164.086
      vertex -52.2 -62 29.5764
      vertex 52.2 -62 29.5764
    endloop
  endfacet
  facet normal 0 -0.97898 -0.203954
    outer loop
      vertex -52.2 -102.067 164.086
      vertex 52.2 -102.177 164.614
      vertex -52.2 -102.177 164.614
    endloop
  endfacet
  facet normal 0 -0.97898 -0.203954
    outer loop
      vertex 52.2 -102.177 164.614
      vertex -52.2 -102.067 164.086
      vertex 52.2 -102.067 164.086
    endloop
  endfacet
  facet normal 0 -1 0
    outer loop
      vertex -52.2 -102.177 164.614
      vertex 52.2 -102.177 164.8
      vertex -52.2 -102.177 164.8
    endloop
  endfacet
  facet normal 0 -1 -0
    outer loop
      vertex 52.2 -102.177 164.8
      vertex -52.2 -102.177 164.614
      vertex 52.2 -102.177 164.614
    endloop
  endfacet
  facet normal -1 0 0
    outer loop
      vertex -52.2 58 2.05
      vertex -52.2 -1.8 40.05
      vertex -52.2 58 40.05
    endloop
  endfacet
  facet normal 0 0 0
    outer loop
      vertex -52.2 -1.8 40.05
      vertex -52.2 -1.8 48.8627
      vertex -52.2 -1.8 42.2087
    endloop
  endfacet
  facet normal -1 0 0
    outer loop
      vertex -52.2 -2.05 122
      vertex -52.2 -1.8 48.8627
      vertex -52.2 -1.8 40.05
    endloop
  endfacet
  facet normal -1 0 0
    outer loop
      vertex -52.2 -2.05 122
      vertex -52.2 -1.8 40.05
      vertex -52.2 -2.05 2.05001
    endloop
  endfacet
  facet normal -1 0 0
    outer loop
      vertex -52.2 58 2.05
      vertex -52.2 -2.05 2.05001
      vertex -52.2 -1.8 40.05
    endloop
  endfacet
  facet normal -1 0 0
    outer loop
      vertex -52.2 58 2.05
      vertex -52.2 -6.05 2.05001
      vertex -52.2 -2.05 2.05001
    endloop
  endfacet
  facet normal -1 0 0
    outer loop
      vertex -52.2 -62 29.5764
      vertex -52.2 -6.05 2.05001
      vertex -52.2 -62 2.05
    endloop
  endfacet
  facet normal -1 0 0
    outer loop
      vertex -52.2 -62 2.05
      vertex -52.2 -6.05 2.05001
      vertex -52.2 58 2.05
    endloop
  endfacet
  facet normal -1 0 0
    outer loop
      vertex -52.2 34 80.85
      vertex -52.2 30.8 84.05
      vertex -52.2 34 84.05
    endloop
  endfacet
  facet normal -1 0 0
    outer loop
      vertex -52.2 -1.8 48.8627
      vertex -52.2 34 80.85
      vertex -52.2 -1.8 42.2087
    endloop
  endfacet
  facet normal -1 -0 0
    outer loop
      vertex -52.2 34 80.85
      vertex -52.2 -1.8 48.8627
      vertex -52.2 30.8 84.05
    endloop
  endfacet
  facet normal -1 0 0
    outer loop
      vertex -52.2 -1.8 48.8627
      vertex -52.2 -2.05 122
      vertex -52.2 -1.8 164.8
    endloop
  endfacet
  facet normal -1 0 0
    outer loop
      vertex -52.2 -6.05 122
      vertex -52.2 -1.8 164.8
      vertex -52.2 -2.05 122
    endloop
  endfacet
  facet normal -1 0 0
    outer loop
      vertex -52.2 -6.05 2.05001
      vertex -52.2 -62 29.5764
      vertex -52.2 -6.05 122
    endloop
  endfacet
  facet normal -1 0 0
    outer loop
      vertex -52.2 -102.067 164.086
      vertex -52.2 -6.05 122
      vertex -52.2 -62 29.5764
    endloop
  endfacet
  facet normal -1 0 0
    outer loop
      vertex -52.2 -6.05 122
      vertex -52.2 -102.067 164.086
      vertex -52.2 -1.8 164.8
    endloop
  endfacet
  facet normal -1 0 0
    outer loop
      vertex -52.2 -102.177 164.8
      vertex -52.2 -102.067 164.086
      vertex -52.2 -102.177 164.614
    endloop
  endfacet
  facet normal -1 0 0
    outer loop
      vertex -52.2 -102.067 164.086
      vertex -52.2 -102.177 164.8
      vertex -52.2 -1.8 164.8
    endloop
  endfacet
  facet normal 0 0.958386 0.285477
    outer loop
      vertex 49 -61.7808 40.05
      vertex -49 -98.9404 164.8
      vertex 49 -98.9404 164.8
    endloop
  endfacet
  facet normal 0 0.958386 0.285477
    outer loop
      vertex -49 -98.9404 164.8
      vertex 49 -61.7808 40.05
      vertex -49 -61.7808 40.05
    endloop
  endfacet
  facet normal -1 0 0
    outer loop
      vertex 49 54.8 6.05
      vertex 49 -1.8 40.05
      vertex 49 54.8 23.45
    endloop
  endfacet
  facet normal -1 0 0
    outer loop
      vertex 49 -58.8 6.05
      vertex 49 -1.8 40.05
      vertex 49 54.8 6.05
    endloop
  endfacet
  facet normal -1 -0 0
    outer loop
      vertex 49 -1.8 40.05
      vertex 49 -58.8 6.05
      vertex 49 -5 40.05
    endloop
  endfacet
  facet normal -1 -0 0
    outer loop
      vertex 49 -5 40.05
      vertex 49 -58.8 6.05
      vertex 49 -7 40.05
    endloop
  endfacet
  facet normal -1 -0 0
    outer loop
      vertex 49 -7 40.05
      vertex 49 -58.8 6.05
      vertex 49 -58.8 40.05
    endloop
  endfacet
  facet normal -1 0 0
    outer loop
      vertex 49 57.896 24.0174
      vertex 49 58 23.45
      vertex 49 57.9649 23.45
    endloop
  endfacet
  facet normal -1 0 0
    outer loop
      vertex 49 58 23.45
      vertex 49 57.896 24.0174
      vertex 49 58 40.05
    endloop
  endfacet
  facet normal -1 0 0
    outer loop
      vertex 49 57.461 24.6476
      vertex 49 58 40.05
      vertex 49 57.896 24.0174
    endloop
  endfacet
  facet normal -1 0 0
    outer loop
      vertex 49 56.7829 25.0035
      vertex 49 58 40.05
      vertex 49 57.461 24.6476
    endloop
  endfacet
  facet normal -1 0 0
    outer loop
      vertex 49 56.0171 25.0035
      vertex 49 58 40.05
      vertex 49 56.7829 25.0035
    endloop
  endfacet
  facet normal -1 0 0
    outer loop
      vertex 49 55.339 24.6476
      vertex 49 58 40.05
      vertex 49 56.0171 25.0035
    endloop
  endfacet
  facet normal -1 0 0
    outer loop
      vertex 49 54.904 24.0174
      vertex 49 58 40.05
      vertex 49 55.339 24.6476
    endloop
  endfacet
  facet normal -1 0 0
    outer loop
      vertex 49 54.8 23.45
      vertex 49 54.904 24.0174
      vertex 49 54.8351 23.45
    endloop
  endfacet
  facet normal -1 0 0
    outer loop
      vertex 49 54.904 24.0174
      vertex 49 -1.8 40.05
      vertex 49 58 40.05
    endloop
  endfacet
  facet normal -1 0 0
    outer loop
      vertex 49 -1.8 40.05
      vertex 49 54.904 24.0174
      vertex 49 54.8 23.45
    endloop
  endfacet
  facet normal -1 0 0
    outer loop
      vertex 49 -7 40.05
      vertex 49 -58.8 40.05
      vertex 49 -7 43.25
    endloop
  endfacet
  facet normal -1 0 0
    outer loop
      vertex 49 -5 45.4087
      vertex 49 -6.05 61
      vertex 49 -5 61
    endloop
  endfacet
  facet normal -1 0 0
    outer loop
      vertex 49 -58.8 40.05
      vertex 49 -6.05 61
      vertex 49 -7 43.25
    endloop
  endfacet
  facet normal -1 0 0
    outer loop
      vertex 49 -7 43.25
      vertex 49 -6.05 61
      vertex 49 -5 45.4087
    endloop
  endfacet
  facet normal -1 0 0
    outer loop
      vertex 49 -6.05 122
      vertex 49 -5 164.8
      vertex 49 -5 122
    endloop
  endfacet
  facet normal -1 -0 0
    outer loop
      vertex 49 -6.05 61
      vertex 49 -58.8 40.05
      vertex 49 -6.05 122
    endloop
  endfacet
  facet normal -1 0 0
    outer loop
      vertex 49 -61.7808 40.05
      vertex 49 -6.05 122
      vertex 49 -58.8 40.05
    endloop
  endfacet
  facet normal -1 -0 0
    outer loop
      vertex 49 -6.05 122
      vertex 49 -61.7808 40.05
      vertex 49 -98.9404 164.8
    endloop
  endfacet
  facet normal -1 0 0
    outer loop
      vertex 49 -6.05 122
      vertex 49 -98.9404 164.8
      vertex 49 -5 164.8
    endloop
  endfacet
  facet normal 1 -0 0
    outer loop
      vertex -49 57.896 24.0174
      vertex -49 58 23.45
      vertex -49 58 40.05
    endloop
  endfacet
  facet normal 1 0 0
    outer loop
      vertex -49 58 23.45
      vertex -49 57.896 24.0174
      vertex -49 57.9649 23.45
    endloop
  endfacet
  facet normal 1 0 0
    outer loop
      vertex -49 58 40.05
      vertex -49 57.461 24.6476
      vertex -49 57.896 24.0174
    endloop
  endfacet
  facet normal 1 0 0
    outer loop
      vertex -49 58 40.05
      vertex -49 56.7829 25.0035
      vertex -49 57.461 24.6476
    endloop
  endfacet
  facet normal 1 0 0
    outer loop
      vertex -49 58 40.05
      vertex -49 56.0171 25.0035
      vertex -49 56.7829 25.0035
    endloop
  endfacet
  facet normal 1 0 0
    outer loop
      vertex -49 58 40.05
      vertex -49 55.339 24.6476
      vertex -49 56.0171 25.0035
    endloop
  endfacet
  facet normal 1 0 0
    outer loop
      vertex -49 58 40.05
      vertex -49 54.904 24.0174
      vertex -49 55.339 24.6476
    endloop
  endfacet
  facet normal 1 0 0
    outer loop
      vertex -49 54.904 24.0174
      vertex -49 54.8 23.45
      vertex -49 54.8351 23.45
    endloop
  endfacet
  facet normal 1 -0 0
    outer loop
      vertex -49 -1.8 40.05
      vertex -49 54.904 24.0174
      vertex -49 58 40.05
    endloop
  endfacet
  facet normal 1 0 0
    outer loop
      vertex -49 -1.8 40.05
      vertex -49 54.8 23.45
      vertex -49 54.904 24.0174
    endloop
  endfacet
  facet normal 1 0 0
    outer loop
      vertex -49 -1.8 40.05
      vertex -49 54.8 6.05
      vertex -49 54.8 23.45
    endloop
  endfacet
  facet normal 1 0 0
    outer loop
      vertex -49 -58.8 6.05
      vertex -49 -1.8 40.05
      vertex -49 -5 40.05
    endloop
  endfacet
  facet normal 1 0 0
    outer loop
      vertex -49 -58.8 6.05
      vertex -49 -5 40.05
      vertex -49 -7 40.05
    endloop
  endfacet
  facet normal 1 0 0
    outer loop
      vertex -49 -58.8 6.05
      vertex -49 -7 40.05
      vertex -49 -58.8 40.05
    endloop
  endfacet
  facet normal 1 0 0
    outer loop
      vertex -49 -1.8 40.05
      vertex -49 -58.8 6.05
      vertex -49 54.8 6.05
    endloop
  endfacet
  facet normal 1 0 0
    outer loop
      vertex -49 -5 164.8
      vertex -49 -6.05 122
      vertex -49 -5 122
    endloop
  endfacet
  facet normal 1 0 0
    outer loop
      vertex -49 -58.8 40.05
      vertex -49 -6.05 61
      vertex -49 -6.05 122
    endloop
  endfacet
  facet normal 1 0 0
    outer loop
      vertex -49 -7 43.25
      vertex -49 -58.8 40.05
      vertex -49 -7 40.05
    endloop
  endfacet
  facet normal 1 0 0
    outer loop
      vertex -49 -6.05 61
      vertex -49 -58.8 40.05
      vertex -49 -7 43.25
    endloop
  endfacet
  facet normal 1 -0 0
    outer loop
      vertex -49 -98.9404 164.8
      vertex -49 -6.05 122
      vertex -49 -5 164.8
    endloop
  endfacet
  facet normal 1 0 -0
    outer loop
      vertex -49 -61.7808 40.05
      vertex -49 -6.05 122
      vertex -49 -98.9404 164.8
    endloop
  endfacet
  facet normal 1 0 0
    outer loop
      vertex -49 -6.05 122
      vertex -49 -61.7808 40.05
      vertex -49 -58.8 40.05
    endloop
  endfacet
  facet normal 1 -0 0
    outer loop
      vertex -49 -6.05 61
      vertex -49 -5 45.4087
      vertex -49 -5 61
    endloop
  endfacet
  facet normal 1 0 0
    outer loop
      vertex -49 -5 45.4087
      vertex -49 -6.05 61
      vertex -49 -7 43.25
    endloop
  endfacet
  facet normal 0 -1 0
    outer loop
      vertex -49 -5 122
      vertex 49 -5 164.8
      vertex -49 -5 164.8
    endloop
  endfacet
  facet normal 0 -1 -0
    outer loop
      vertex 49 -5 164.8
      vertex -49 -5 122
      vertex 49 -5 122
    endloop
  endfacet
  facet normal 0 -1 0
    outer loop
      vertex -49 -5 45.4087
      vertex 49 -5 61
      vertex -49 -5 61
    endloop
  endfacet
  facet normal 0 -1 -0
    outer loop
      vertex 49 -5 61
      vertex -49 -5 45.4087
      vertex 49 -5 45.4087
    endloop
  endfacet
  facet normal 0 0 1
    outer loop
      vertex 52.2 -1.8 164.8
      vertex 49 -5 164.8
      vertex 52.2 -102.177 164.8
    endloop
  endfacet
  facet normal 0 0 1
    outer loop
      vertex 52.2 -1.8 164.8
      vertex -49 -5 164.8
      vertex 49 -5 164.8
    endloop
  endfacet
  facet normal 0 0 1
    outer loop
      vertex -49 -5 164.8
      vertex -52.2 -1.8 164.8
      vertex -49 -98.9404 164.8
    endloop
  endfacet
  facet normal -0 0 1
    outer loop
      vertex -52.2 -1.8 164.8
      vertex -49 -5 164.8
      vertex 52.2 -1.8 164.8
    endloop
  endfacet
  facet normal -0 0 1
    outer loop
      vertex 49 -98.9404 164.8
      vertex 52.2 -102.177 164.8
      vertex 49 -5 164.8
    endloop
  endfacet
  facet normal -0 0 1
    outer loop
      vertex -49 -98.9404 164.8
      vertex 52.2 -102.177 164.8
      vertex 49 -98.9404 164.8
    endloop
  endfacet
  facet normal 0 0 1
    outer loop
      vertex -49 -98.9404 164.8
      vertex -52.2 -102.177 164.8
      vertex 52.2 -102.177 164.8
    endloop
  endfacet
  facet normal 0 0 1
    outer loop
      vertex -52.2 -102.177 164.8
      vertex -49 -98.9404 164.8
      vertex -52.2 -1.8 164.8
    endloop
  endfacet
  facet normal 0 0 -1
    outer loop
      vertex -49 -5 40.05
      vertex 49 -1.8 40.05
      vertex 49 -5 40.05
    endloop
  endfacet
  facet normal -0 0 -1
    outer loop
      vertex 49 -1.8 40.05
      vertex -49 -5 40.05
      vertex -49 -1.8 40.05
    endloop
  endfacet
  facet normal -1 0 0
    outer loop
      vertex -65 -6.05 6.05001
      vertex -65 -2.05 118
      vertex -65 -2.05 6.05001
    endloop
  endfacet
  facet normal -1 -0 0
    outer loop
      vertex -65 -2.05 118
      vertex -65 -6.05 6.05001
      vertex -65 -6.05 118
    endloop
  endfacet
  facet normal 0.0980137 0 -0.995185
    outer loop
      vertex 61 -6.05 2.05001
      vertex 61.7804 -2.05 2.12687
      vertex 61.7804 -6.05 2.12687
    endloop
  endfacet
  facet normal 0.0980137 0 -0.995185
    outer loop
      vertex 61.7804 -2.05 2.12687
      vertex 61 -6.05 2.05001
      vertex 61 -2.05 2.05001
    endloop
  endfacet
  facet normal 0.995175 -0 0.0981141
    outer loop
      vertex 64.9231 -6.05 118.78
      vertex 65 -2.05 118
      vertex 64.9231 -2.05 118.78
    endloop
  endfacet
  facet normal 0.995175 0 0.0981141
    outer loop
      vertex 65 -2.05 118
      vertex 64.9231 -6.05 118.78
      vertex 65 -6.05 118
    endloop
  endfacet
  facet normal -0.772982 0 -0.634428
    outer loop
      vertex -63.8284 -6.05 3.22158
      vertex -64.3259 -2.05 3.82773
      vertex -63.8284 -2.05 3.22158
    endloop
  endfacet
  facet normal -0.772982 -0 -0.634428
    outer loop
      vertex -64.3259 -2.05 3.82773
      vertex -63.8284 -6.05 3.22158
      vertex -64.3259 -6.05 3.82773
    endloop
  endfacet
  facet normal 0 -1 0
    outer loop
      vertex -65 -6.05 118
      vertex -61 -6.05 122
      vertex -61.7804 -6.05 121.923
    endloop
  endfacet
  facet normal 0 -1 0
    outer loop
      vertex -65 -6.05 118
      vertex -61.7804 -6.05 121.923
      vertex -62.5307 -6.05 121.696
    endloop
  endfacet
  facet normal 0 -1 0
    outer loop
      vertex -65 -6.05 118
      vertex -62.5307 -6.05 121.696
      vertex -63.2223 -6.05 121.326
    endloop
  endfacet
  facet normal 0 -1 0
    outer loop
      vertex -65 -6.05 118
      vertex -63.2223 -6.05 121.326
      vertex -63.8284 -6.05 120.828
    endloop
  endfacet
  facet normal 0 -1 0
    outer loop
      vertex -65 -6.05 118
      vertex -63.8284 -6.05 120.828
      vertex -64.3259 -6.05 120.222
    endloop
  endfacet
  facet normal 0 -1 0
    outer loop
      vertex -65 -6.05 118
      vertex -64.3259 -6.05 120.222
      vertex -64.6955 -6.05 119.531
    endloop
  endfacet
  facet normal 0 -1 0
    outer loop
      vertex -65 -6.05 118
      vertex -64.6955 -6.05 119.531
      vertex -64.9231 -6.05 118.78
    endloop
  endfacet
  facet normal 0 -1 -0
    outer loop
      vertex -61 -6.05 122
      vertex -65 -6.05 118
      vertex -52.2 -6.05 122
    endloop
  endfacet
  facet normal 0 -1 0
    outer loop
      vertex -65 -6.05 6.05001
      vertex -52.2 -6.05 122
      vertex -65 -6.05 118
    endloop
  endfacet
  facet normal 0 -1 0
    outer loop
      vertex -61 -6.05 2.05001
      vertex -65 -6.05 6.05001
      vertex -64.9231 -6.05 5.26964
    endloop
  endfacet
  facet normal 0 -1 0
    outer loop
      vertex -61 -6.05 2.05001
      vertex -64.9231 -6.05 5.26964
      vertex -64.6955 -6.05 4.51928
    endloop
  endfacet
  facet normal 0 -1 0
    outer loop
      vertex -61 -6.05 2.05001
      vertex -64.6955 -6.05 4.51928
      vertex -64.3259 -6.05 3.82773
    endloop
  endfacet
  facet normal 0 -1 0
    outer loop
      vertex -61 -6.05 2.05001
      vertex -64.3259 -6.05 3.82773
      vertex -63.8284 -6.05 3.22158
    endloop
  endfacet
  facet normal 0 -1 0
    outer loop
      vertex -61 -6.05 2.05001
      vertex -63.8284 -6.05 3.22158
      vertex -63.2223 -6.05 2.72413
    endloop
  endfacet
  facet normal 0 -1 0
    outer loop
      vertex -61 -6.05 2.05001
      vertex -63.2223 -6.05 2.72413
      vertex -62.5307 -6.05 2.3545
    endloop
  endfacet
  facet normal 0 -1 0
    outer loop
      vertex -61 -6.05 2.05001
      vertex -62.5307 -6.05 2.3545
      vertex -61.7804 -6.05 2.12687
    endloop
  endfacet
  facet normal 0 -1 0
    outer loop
      vertex -65 -6.05 6.05001
      vertex -61 -6.05 2.05001
      vertex -52.2 -6.05 2.05001
    endloop
  endfacet
  facet normal 0 -1 0
    outer loop
      vertex -65 -6.05 6.05001
      vertex -52.2 -6.05 2.05001
      vertex -52.2 -6.05 122
    endloop
  endfacet
  facet normal 0 -1 0
    outer loop
      vertex 65 -6.05 118
      vertex 61 -6.05 122
      vertex 52.2 -6.05 122
    endloop
  endfacet
  facet normal 0 -1 0
    outer loop
      vertex 61 -6.05 122
      vertex 65 -6.05 118
      vertex 61.7804 -6.05 121.923
    endloop
  endfacet
  facet normal 0 -1 0
    outer loop
      vertex 61.7804 -6.05 121.923
      vertex 65 -6.05 118
      vertex 62.5307 -6.05 121.696
    endloop
  endfacet
  facet normal 0 -1 0
    outer loop
      vertex 62.5307 -6.05 121.696
      vertex 65 -6.05 118
      vertex 63.2223 -6.05 121.326
    endloop
  endfacet
  facet normal 0 -1 0
    outer loop
      vertex 63.2223 -6.05 121.326
      vertex 65 -6.05 118
      vertex 63.8284 -6.05 120.828
    endloop
  endfacet
  facet normal 0 -1 0
    outer loop
      vertex 63.8284 -6.05 120.828
      vertex 65 -6.05 118
      vertex 64.3259 -6.05 120.222
    endloop
  endfacet
  facet normal 0 -1 0
    outer loop
      vertex 64.3259 -6.05 120.222
      vertex 65 -6.05 118
      vertex 64.6955 -6.05 119.531
    endloop
  endfacet
  facet normal 0 -1 0
    outer loop
      vertex 64.6955 -6.05 119.531
      vertex 65 -6.05 118
      vertex 64.9231 -6.05 118.78
    endloop
  endfacet
  facet normal 0 -1 0
    outer loop
      vertex 52.2 -6.05 122
      vertex 65 -6.05 6.05001
      vertex 65 -6.05 118
    endloop
  endfacet
  facet normal 0 -1 0
    outer loop
      vertex 52.2 -6.05 2.05001
      vertex 65 -6.05 6.05001
      vertex 52.2 -6.05 122
    endloop
  endfacet
  facet normal 0 -1 0
    outer loop
      vertex 61 -6.05 2.05001
      vertex 65 -6.05 6.05001
      vertex 52.2 -6.05 2.05001
    endloop
  endfacet
  facet normal 0 -1 0
    outer loop
      vertex 65 -6.05 6.05001
      vertex 61 -6.05 2.05001
      vertex 64.9231 -6.05 5.26964
    endloop
  endfacet
  facet normal 0 -1 0
    outer loop
      vertex 64.9231 -6.05 5.26964
      vertex 61 -6.05 2.05001
      vertex 64.6955 -6.05 4.51928
    endloop
  endfacet
  facet normal 0 -1 0
    outer loop
      vertex 64.6955 -6.05 4.51928
      vertex 61 -6.05 2.05001
      vertex 64.3259 -6.05 3.82773
    endloop
  endfacet
  facet normal 0 -1 0
    outer loop
      vertex 64.3259 -6.05 3.82773
      vertex 61 -6.05 2.05001
      vertex 63.8284 -6.05 3.22158
    endloop
  endfacet
  facet normal 0 -1 0
    outer loop
      vertex 63.8284 -6.05 3.22158
      vertex 61 -6.05 2.05001
      vertex 63.2223 -6.05 2.72413
    endloop
  endfacet
  facet normal 0 -1 0
    outer loop
      vertex 63.2223 -6.05 2.72413
      vertex 61 -6.05 2.05001
      vertex 62.5307 -6.05 2.3545
    endloop
  endfacet
  facet normal 0 -1 0
    outer loop
      vertex 62.5307 -6.05 2.3545
      vertex 61 -6.05 2.05001
      vertex 61.7804 -6.05 2.12687
    endloop
  endfacet
  facet normal 0 -1 0
    outer loop
      vertex -49 -6.05 61
      vertex 49 -6.05 122
      vertex -49 -6.05 122
    endloop
  endfacet
  facet normal 0 -1 -0
    outer loop
      vertex 49 -6.05 122
      vertex -49 -6.05 61
      vertex 49 -6.05 61
    endloop
  endfacet
  facet normal 0.634421 0 -0.772988
    outer loop
      vertex 63.2223 -6.05 2.72413
      vertex 63.8284 -2.05 3.22158
      vertex 63.8284 -6.05 3.22158
    endloop
  endfacet
  facet normal 0.634421 0 -0.772988
    outer loop
      vertex 63.8284 -2.05 3.22158
      vertex 63.2223 -6.05 2.72413
      vertex 63.2223 -2.05 2.72413
    endloop
  endfacet
  facet normal -0 0 1
    outer loop
      vertex -61 -2.05 122
      vertex -52.2 -6.05 122
      vertex -52.2 -2.05 122
    endloop
  endfacet
  facet normal 0 0 1
    outer loop
      vertex -52.2 -6.05 122
      vertex -61 -2.05 122
      vertex -61 -6.05 122
    endloop
  endfacet
  facet normal -0 0 1
    outer loop
      vertex 52.2 -2.05 122
      vertex 61 -6.05 122
      vertex 61 -2.05 122
    endloop
  endfacet
  facet normal 0 0 1
    outer loop
      vertex 61 -6.05 122
      vertex 52.2 -2.05 122
      vertex 52.2 -6.05 122
    endloop
  endfacet
  facet normal -0 0 1
    outer loop
      vertex -49 -5 122
      vertex 49 -6.05 122
      vertex 49 -5 122
    endloop
  endfacet
  facet normal 0 0 1
    outer loop
      vertex 49 -6.05 122
      vertex -49 -5 122
      vertex -49 -6.05 122
    endloop
  endfacet
  facet normal -0.63484 0 0.772644
    outer loop
      vertex -63.8284 -2.05 120.828
      vertex -63.2223 -6.05 121.326
      vertex -63.2223 -2.05 121.326
    endloop
  endfacet
  facet normal -0.63484 0 0.772644
    outer loop
      vertex -63.2223 -6.05 121.326
      vertex -63.8284 -2.05 120.828
      vertex -63.8284 -6.05 120.828
    endloop
  endfacet
  facet normal 0 0 -1
    outer loop
      vertex 52.2 -6.05 2.05001
      vertex 61 -2.05 2.05001
      vertex 61 -6.05 2.05001
    endloop
  endfacet
  facet normal -0 0 -1
    outer loop
      vertex 61 -2.05 2.05001
      vertex 52.2 -6.05 2.05001
      vertex 52.2 -2.05 2.05001
    endloop
  endfacet
  facet normal 0 0 -1
    outer loop
      vertex -61 -6.05 2.05001
      vertex -52.2 -2.05 2.05001
      vertex -52.2 -6.05 2.05001
    endloop
  endfacet
  facet normal -0 0 -1
    outer loop
      vertex -52.2 -2.05 2.05001
      vertex -61 -6.05 2.05001
      vertex -61 -2.05 2.05001
    endloop
  endfacet
  facet normal -0.634421 0 -0.772988
    outer loop
      vertex -63.8284 -6.05 3.22158
      vertex -63.2223 -2.05 2.72413
      vertex -63.2223 -6.05 2.72413
    endloop
  endfacet
  facet normal -0.634421 0 -0.772988
    outer loop
      vertex -63.2223 -2.05 2.72413
      vertex -63.8284 -6.05 3.22158
      vertex -63.8284 -2.05 3.22158
    endloop
  endfacet
  facet normal 0.289582 0 0.957153
    outer loop
      vertex 61.7804 -2.05 121.923
      vertex 62.5307 -6.05 121.696
      vertex 62.5307 -2.05 121.696
    endloop
  endfacet
  facet normal 0.289582 0 0.957153
    outer loop
      vertex 62.5307 -6.05 121.696
      vertex 61.7804 -2.05 121.923
      vertex 61.7804 -6.05 121.923
    endloop
  endfacet
  facet normal -0.290319 0 -0.95693
    outer loop
      vertex -62.5307 -6.05 2.3545
      vertex -61.7804 -2.05 2.12687
      vertex -61.7804 -6.05 2.12687
    endloop
  endfacet
  facet normal -0.290319 0 -0.95693
    outer loop
      vertex -61.7804 -2.05 2.12687
      vertex -62.5307 -6.05 2.3545
      vertex -62.5307 -2.05 2.3545
    endloop
  endfacet
  facet normal -0.289582 0 0.957153
    outer loop
      vertex -62.5307 -2.05 121.696
      vertex -61.7804 -6.05 121.923
      vertex -61.7804 -2.05 121.923
    endloop
  endfacet
  facet normal -0.289582 0 0.957153
    outer loop
      vertex -61.7804 -6.05 121.923
      vertex -62.5307 -2.05 121.696
      vertex -62.5307 -6.05 121.696
    endloop
  endfacet
  facet normal -0.881943 0 -0.471356
    outer loop
      vertex -64.3259 -6.05 3.82773
      vertex -64.6955 -2.05 4.51928
      vertex -64.3259 -2.05 3.82773
    endloop
  endfacet
  facet normal -0.881943 -0 -0.471356
    outer loop
      vertex -64.6955 -2.05 4.51928
      vertex -64.3259 -6.05 3.82773
      vertex -64.6955 -6.05 4.51928
    endloop
  endfacet
  facet normal -0.471726 0 0.881745
    outer loop
      vertex -63.2223 -2.05 121.326
      vertex -62.5307 -6.05 121.696
      vertex -62.5307 -2.05 121.696
    endloop
  endfacet
  facet normal -0.471726 0 0.881745
    outer loop
      vertex -62.5307 -6.05 121.696
      vertex -63.2223 -2.05 121.326
      vertex -63.2223 -6.05 121.326
    endloop
  endfacet
  facet normal 1 -0 0
    outer loop
      vertex 65 -6.05 118
      vertex 65 -2.05 6.05001
      vertex 65 -2.05 118
    endloop
  endfacet
  facet normal 1 0 0
    outer loop
      vertex 65 -2.05 6.05001
      vertex 65 -6.05 118
      vertex 65 -6.05 6.05001
    endloop
  endfacet
  facet normal -0.471359 0 -0.881941
    outer loop
      vertex -63.2223 -6.05 2.72413
      vertex -62.5307 -2.05 2.3545
      vertex -62.5307 -6.05 2.3545
    endloop
  endfacet
  facet normal -0.471359 0 -0.881941
    outer loop
      vertex -62.5307 -2.05 2.3545
      vertex -63.2223 -6.05 2.72413
      vertex -63.2223 -2.05 2.72413
    endloop
  endfacet
  facet normal -0.995175 0 0.0981141
    outer loop
      vertex -65 -6.05 118
      vertex -64.9231 -2.05 118.78
      vertex -65 -2.05 118
    endloop
  endfacet
  facet normal -0.995175 0 0.0981141
    outer loop
      vertex -64.9231 -2.05 118.78
      vertex -65 -6.05 118
      vertex -64.9231 -6.05 118.78
    endloop
  endfacet
  facet normal -0.0980137 0 -0.995185
    outer loop
      vertex -61.7804 -6.05 2.12687
      vertex -61 -2.05 2.05001
      vertex -61 -6.05 2.05001
    endloop
  endfacet
  facet normal -0.0980137 0 -0.995185
    outer loop
      vertex -61 -2.05 2.05001
      vertex -61.7804 -6.05 2.12687
      vertex -61.7804 -2.05 2.12687
    endloop
  endfacet
  facet normal 0.63484 0 0.772644
    outer loop
      vertex 63.2223 -2.05 121.326
      vertex 63.8284 -6.05 120.828
      vertex 63.8284 -2.05 120.828
    endloop
  endfacet
  facet normal 0.63484 0 0.772644
    outer loop
      vertex 63.8284 -6.05 120.828
      vertex 63.2223 -2.05 121.326
      vertex 63.2223 -6.05 121.326
    endloop
  endfacet
  facet normal 0.0981906 0 0.995168
    outer loop
      vertex 61 -2.05 122
      vertex 61.7804 -6.05 121.923
      vertex 61.7804 -2.05 121.923
    endloop
  endfacet
  facet normal 0.0981906 0 0.995168
    outer loop
      vertex 61.7804 -6.05 121.923
      vertex 61 -2.05 122
      vertex 61 -6.05 122
    endloop
  endfacet
  facet normal 0.956947 0 -0.290262
    outer loop
      vertex 64.9231 -6.05 5.26964
      vertex 64.6955 -2.05 4.51928
      vertex 64.9231 -2.05 5.26964
    endloop
  endfacet
  facet normal 0.956947 0 -0.290262
    outer loop
      vertex 64.6955 -2.05 4.51928
      vertex 64.9231 -6.05 5.26964
      vertex 64.6955 -6.05 4.51928
    endloop
  endfacet
  facet normal -0.0981906 0 0.995168
    outer loop
      vertex -61.7804 -2.05 121.923
      vertex -61 -6.05 122
      vertex -61 -2.05 122
    endloop
  endfacet
  facet normal -0.0981906 0 0.995168
    outer loop
      vertex -61 -6.05 122
      vertex -61.7804 -2.05 121.923
      vertex -61.7804 -6.05 121.923
    endloop
  endfacet
  facet normal 0.772982 0 -0.634428
    outer loop
      vertex 64.3259 -6.05 3.82773
      vertex 63.8284 -2.05 3.22158
      vertex 64.3259 -2.05 3.82773
    endloop
  endfacet
  facet normal 0.772982 0 -0.634428
    outer loop
      vertex 63.8284 -2.05 3.22158
      vertex 64.3259 -6.05 3.82773
      vertex 63.8284 -6.05 3.22158
    endloop
  endfacet
  facet normal 0.99518 0 -0.098068
    outer loop
      vertex 65 -6.05 6.05001
      vertex 64.9231 -2.05 5.26964
      vertex 65 -2.05 6.05001
    endloop
  endfacet
  facet normal 0.99518 0 -0.098068
    outer loop
      vertex 64.9231 -2.05 5.26964
      vertex 65 -6.05 6.05001
      vertex 64.9231 -6.05 5.26964
    endloop
  endfacet
  facet normal 0.471726 0 0.881745
    outer loop
      vertex 62.5307 -2.05 121.696
      vertex 63.2223 -6.05 121.326
      vertex 63.2223 -2.05 121.326
    endloop
  endfacet
  facet normal 0.471726 0 0.881745
    outer loop
      vertex 63.2223 -6.05 121.326
      vertex 62.5307 -2.05 121.696
      vertex 62.5307 -6.05 121.696
    endloop
  endfacet
  facet normal -0.99518 0 -0.098068
    outer loop
      vertex -64.9231 -6.05 5.26964
      vertex -65 -2.05 6.05001
      vertex -64.9231 -2.05 5.26964
    endloop
  endfacet
  facet normal -0.99518 -0 -0.098068
    outer loop
      vertex -65 -2.05 6.05001
      vertex -64.9231 -6.05 5.26964
      vertex -65 -6.05 6.05001
    endloop
  endfacet
  facet normal -0.957016 0 0.290036
    outer loop
      vertex -64.9231 -6.05 118.78
      vertex -64.6955 -2.05 119.531
      vertex -64.9231 -2.05 118.78
    endloop
  endfacet
  facet normal -0.957016 0 0.290036
    outer loop
      vertex -64.6955 -2.05 119.531
      vertex -64.9231 -6.05 118.78
      vertex -64.6955 -6.05 119.531
    endloop
  endfacet
  facet normal -0.772905 0 0.634522
    outer loop
      vertex -64.3259 -6.05 120.222
      vertex -63.8284 -2.05 120.828
      vertex -64.3259 -2.05 120.222
    endloop
  endfacet
  facet normal -0.772905 0 0.634522
    outer loop
      vertex -63.8284 -2.05 120.828
      vertex -64.3259 -6.05 120.222
      vertex -63.8284 -6.05 120.828
    endloop
  endfacet
  facet normal -0.881787 0 0.471648
    outer loop
      vertex -64.6955 -6.05 119.531
      vertex -64.3259 -2.05 120.222
      vertex -64.6955 -2.05 119.531
    endloop
  endfacet
  facet normal -0.881787 0 0.471648
    outer loop
      vertex -64.3259 -2.05 120.222
      vertex -64.6955 -6.05 119.531
      vertex -64.3259 -6.05 120.222
    endloop
  endfacet
  facet normal 0.290319 0 -0.95693
    outer loop
      vertex 61.7804 -6.05 2.12687
      vertex 62.5307 -2.05 2.3545
      vertex 62.5307 -6.05 2.3545
    endloop
  endfacet
  facet normal 0.290319 0 -0.95693
    outer loop
      vertex 62.5307 -2.05 2.3545
      vertex 61.7804 -6.05 2.12687
      vertex 61.7804 -2.05 2.12687
    endloop
  endfacet
  facet normal -0.956947 0 -0.290262
    outer loop
      vertex -64.6955 -6.05 4.51928
      vertex -64.9231 -2.05 5.26964
      vertex -64.6955 -2.05 4.51928
    endloop
  endfacet
  facet normal -0.956947 -0 -0.290262
    outer loop
      vertex -64.9231 -2.05 5.26964
      vertex -64.6955 -6.05 4.51928
      vertex -64.9231 -6.05 5.26964
    endloop
  endfacet
  facet normal 0 1 0
    outer loop
      vertex 65 -2.05 118
      vertex 61 -2.05 122
      vertex 61.7804 -2.05 121.923
    endloop
  endfacet
  facet normal 0 1 0
    outer loop
      vertex 65 -2.05 118
      vertex 61.7804 -2.05 121.923
      vertex 62.5307 -2.05 121.696
    endloop
  endfacet
  facet normal 0 1 0
    outer loop
      vertex 65 -2.05 118
      vertex 62.5307 -2.05 121.696
      vertex 63.2223 -2.05 121.326
    endloop
  endfacet
  facet normal 0 1 0
    outer loop
      vertex 65 -2.05 118
      vertex 63.2223 -2.05 121.326
      vertex 63.8284 -2.05 120.828
    endloop
  endfacet
  facet normal 0 1 0
    outer loop
      vertex 65 -2.05 118
      vertex 63.8284 -2.05 120.828
      vertex 64.3259 -2.05 120.222
    endloop
  endfacet
  facet normal 0 1 0
    outer loop
      vertex 65 -2.05 118
      vertex 64.3259 -2.05 120.222
      vertex 64.6955 -2.05 119.531
    endloop
  endfacet
  facet normal 0 1 0
    outer loop
      vertex 65 -2.05 118
      vertex 64.6955 -2.05 119.531
      vertex 64.9231 -2.05 118.78
    endloop
  endfacet
  facet normal 0 1 0
    outer loop
      vertex 61 -2.05 122
      vertex 65 -2.05 118
      vertex 52.2 -2.05 122
    endloop
  endfacet
  facet normal 0 1 -0
    outer loop
      vertex 65 -2.05 6.05001
      vertex 52.2 -2.05 122
      vertex 65 -2.05 118
    endloop
  endfacet
  facet normal 0 1 0
    outer loop
      vertex 61 -2.05 2.05001
      vertex 65 -2.05 6.05001
      vertex 64.9231 -2.05 5.26964
    endloop
  endfacet
  facet normal 0 1 0
    outer loop
      vertex 61 -2.05 2.05001
      vertex 64.9231 -2.05 5.26964
      vertex 64.6955 -2.05 4.51928
    endloop
  endfacet
  facet normal 0 1 0
    outer loop
      vertex 61 -2.05 2.05001
      vertex 64.6955 -2.05 4.51928
      vertex 64.3259 -2.05 3.82773
    endloop
  endfacet
  facet normal 0 1 0
    outer loop
      vertex 61 -2.05 2.05001
      vertex 64.3259 -2.05 3.82773
      vertex 63.8284 -2.05 3.22158
    endloop
  endfacet
  facet normal 0 1 0
    outer loop
      vertex 61 -2.05 2.05001
      vertex 63.8284 -2.05 3.22158
      vertex 63.2223 -2.05 2.72413
    endloop
  endfacet
  facet normal 0 1 0
    outer loop
      vertex 61 -2.05 2.05001
      vertex 63.2223 -2.05 2.72413
      vertex 62.5307 -2.05 2.3545
    endloop
  endfacet
  facet normal 0 1 0
    outer loop
      vertex 61 -2.05 2.05001
      vertex 62.5307 -2.05 2.3545
      vertex 61.7804 -2.05 2.12687
    endloop
  endfacet
  facet normal 0 1 0
    outer loop
      vertex 65 -2.05 6.05001
      vertex 61 -2.05 2.05001
      vertex 52.2 -2.05 2.05001
    endloop
  endfacet
  facet normal 0 1 0
    outer loop
      vertex 65 -2.05 6.05001
      vertex 52.2 -2.05 2.05001
      vertex 52.2 -2.05 122
    endloop
  endfacet
  facet normal 0 1 0
    outer loop
      vertex -65 -2.05 118
      vertex -61 -2.05 122
      vertex -52.2 -2.05 122
    endloop
  endfacet
  facet normal 0 1 0
    outer loop
      vertex -61 -2.05 122
      vertex -65 -2.05 118
      vertex -61.7804 -2.05 121.923
    endloop
  endfacet
  facet normal 0 1 0
    outer loop
      vertex -61.7804 -2.05 121.923
      vertex -65 -2.05 118
      vertex -62.5307 -2.05 121.696
    endloop
  endfacet
  facet normal 0 1 0
    outer loop
      vertex -62.5307 -2.05 121.696
      vertex -65 -2.05 118
      vertex -63.2223 -2.05 121.326
    endloop
  endfacet
  facet normal 0 1 0
    outer loop
      vertex -63.2223 -2.05 121.326
      vertex -65 -2.05 118
      vertex -63.8284 -2.05 120.828
    endloop
  endfacet
  facet normal 0 1 0
    outer loop
      vertex -63.8284 -2.05 120.828
      vertex -65 -2.05 118
      vertex -64.3259 -2.05 120.222
    endloop
  endfacet
  facet normal 0 1 0
    outer loop
      vertex -64.3259 -2.05 120.222
      vertex -65 -2.05 118
      vertex -64.6955 -2.05 119.531
    endloop
  endfacet
  facet normal 0 1 0
    outer loop
      vertex -64.6955 -2.05 119.531
      vertex -65 -2.05 118
      vertex -64.9231 -2.05 118.78
    endloop
  endfacet
  facet normal 0 1 0
    outer loop
      vertex -52.2 -2.05 122
      vertex -65 -2.05 6.05001
      vertex -65 -2.05 118
    endloop
  endfacet
  facet normal 0 1 -0
    outer loop
      vertex -52.2 -2.05 2.05001
      vertex -65 -2.05 6.05001
      vertex -52.2 -2.05 122
    endloop
  endfacet
  facet normal 0 1 -0
    outer loop
      vertex -61 -2.05 2.05001
      vertex -65 -2.05 6.05001
      vertex -52.2 -2.05 2.05001
    endloop
  endfacet
  facet normal 0 1 0
    outer loop
      vertex -65 -2.05 6.05001
      vertex -61 -2.05 2.05001
      vertex -64.9231 -2.05 5.26964
    endloop
  endfacet
  facet normal 0 1 0
    outer loop
      vertex -64.9231 -2.05 5.26964
      vertex -61 -2.05 2.05001
      vertex -64.6955 -2.05 4.51928
    endloop
  endfacet
  facet normal 0 1 0
    outer loop
      vertex -64.6955 -2.05 4.51928
      vertex -61 -2.05 2.05001
      vertex -64.3259 -2.05 3.82773
    endloop
  endfacet
  facet normal 0 1 0
    outer loop
      vertex -64.3259 -2.05 3.82773
      vertex -61 -2.05 2.05001
      vertex -63.8284 -2.05 3.22158
    endloop
  endfacet
  facet normal 0 1 0
    outer loop
      vertex -63.8284 -2.05 3.22158
      vertex -61 -2.05 2.05001
      vertex -63.2223 -2.05 2.72413
    endloop
  endfacet
  facet normal 0 1 0
    outer loop
      vertex -63.2223 -2.05 2.72413
      vertex -61 -2.05 2.05001
      vertex -62.5307 -2.05 2.3545
    endloop
  endfacet
  facet normal 0 1 0
    outer loop
      vertex -62.5307 -2.05 2.3545
      vertex -61 -2.05 2.05001
      vertex -61.7804 -2.05 2.12687
    endloop
  endfacet
  facet normal 0.881787 -0 0.471648
    outer loop
      vertex 64.3259 -6.05 120.222
      vertex 64.6955 -2.05 119.531
      vertex 64.3259 -2.05 120.222
    endloop
  endfacet
  facet normal 0.881787 0 0.471648
    outer loop
      vertex 64.6955 -2.05 119.531
      vertex 64.3259 -6.05 120.222
      vertex 64.6955 -6.05 119.531
    endloop
  endfacet
  facet normal 0.957016 -0 0.290036
    outer loop
      vertex 64.6955 -6.05 119.531
      vertex 64.9231 -2.05 118.78
      vertex 64.6955 -2.05 119.531
    endloop
  endfacet
  facet normal 0.957016 0 0.290036
    outer loop
      vertex 64.9231 -2.05 118.78
      vertex 64.6955 -6.05 119.531
      vertex 64.9231 -6.05 118.78
    endloop
  endfacet
  facet normal 0.881943 0 -0.471356
    outer loop
      vertex 64.6955 -6.05 4.51928
      vertex 64.3259 -2.05 3.82773
      vertex 64.6955 -2.05 4.51928
    endloop
  endfacet
  facet normal 0.881943 0 -0.471356
    outer loop
      vertex 64.3259 -2.05 3.82773
      vertex 64.6955 -6.05 4.51928
      vertex 64.3259 -6.05 3.82773
    endloop
  endfacet
  facet normal 0.471359 0 -0.881941
    outer loop
      vertex 62.5307 -6.05 2.3545
      vertex 63.2223 -2.05 2.72413
      vertex 63.2223 -6.05 2.72413
    endloop
  endfacet
  facet normal 0.471359 0 -0.881941
    outer loop
      vertex 63.2223 -2.05 2.72413
      vertex 62.5307 -6.05 2.3545
      vertex 62.5307 -2.05 2.3545
    endloop
  endfacet
  facet normal 0.772905 -0 0.634522
    outer loop
      vertex 63.8284 -6.05 120.828
      vertex 64.3259 -2.05 120.222
      vertex 63.8284 -2.05 120.828
    endloop
  endfacet
  facet normal 0.772905 0 0.634522
    outer loop
      vertex 64.3259 -2.05 120.222
      vertex 63.8284 -6.05 120.828
      vertex 64.3259 -6.05 120.222
    endloop
  endfacet
  facet normal 0 0 -1
    outer loop
      vertex -49 -6.05 61
      vertex 49 -5 61
      vertex 49 -6.05 61
    endloop
  endfacet
  facet normal -0 0 -1
    outer loop
      vertex 49 -5 61
      vertex -49 -6.05 61
      vertex -49 -5 61
    endloop
  endfacet
  facet normal -0 0 1
    outer loop
      vertex -52.2 58 40.05
      vertex -49 -1.8 40.05
      vertex -49 58 40.05
    endloop
  endfacet
  facet normal 0 0 1
    outer loop
      vertex -49 -1.8 40.05
      vertex -52.2 58 40.05
      vertex -52.2 -1.8 40.05
    endloop
  endfacet
  facet normal -0 0 1
    outer loop
      vertex 49 58 40.05
      vertex 52.2 -1.8 40.05
      vertex 52.2 58 40.05
    endloop
  endfacet
  facet normal 0 0 1
    outer loop
      vertex 52.2 -1.8 40.05
      vertex 49 58 40.05
      vertex 49 -1.8 40.05
    endloop
  endfacet
  facet normal -0 0 1
    outer loop
      vertex -49 -58.8 40.05
      vertex 49 -61.7808 40.05
      vertex 49 -58.8 40.05
    endloop
  endfacet
  facet normal 0 0 1
    outer loop
      vertex 49 -61.7808 40.05
      vertex -49 -58.8 40.05
      vertex -49 -61.7808 40.05
    endloop
  endfacet
  facet normal 0 0 -1
    outer loop
      vertex -49 -7 40.05
      vertex 49 -5 40.05
      vertex 49 -7 40.05
    endloop
  endfacet
  facet normal -0 0 -1
    outer loop
      vertex 49 -5 40.05
      vertex -49 -7 40.05
      vertex -49 -5 40.05
    endloop
  endfacet
  facet normal -0 0 1
    outer loop
      vertex -49 54.8 6.05
      vertex 49 -58.8 6.05
      vertex 49 54.8 6.05
    endloop
  endfacet
  facet normal 0 0 1
    outer loop
      vertex 49 -58.8 6.05
      vertex -49 54.8 6.05
      vertex -49 -58.8 6.05
    endloop
  endfacet
  facet normal 0 1 0
    outer loop
      vertex 52.2 58 40.05
      vertex 49 58 23.45
      vertex 49 58 40.05
    endloop
  endfacet
  facet normal 0 1 0
    outer loop
      vertex 49 58 23.45
      vertex 52.2 58 2.05
      vertex -49 58 23.45
    endloop
  endfacet
  facet normal 0 1 -0
    outer loop
      vertex 52.2 58 2.05
      vertex 49 58 23.45
      vertex 52.2 58 40.05
    endloop
  endfacet
  facet normal 0 1 -0
    outer loop
      vertex -49 58 23.45
      vertex -52.2 58 40.05
      vertex -49 58 40.05
    endloop
  endfacet
  facet normal 0 1 0
    outer loop
      vertex -49 58 23.45
      vertex -52.2 58 2.05
      vertex -52.2 58 40.05
    endloop
  endfacet
  facet normal 0 1 0
    outer loop
      vertex -52.2 58 2.05
      vertex -49 58 23.45
      vertex 52.2 58 2.05
    endloop
  endfacet
  facet normal 0 -1 0
    outer loop
      vertex -52.2 -62 2.05
      vertex 52.2 -62 29.5764
      vertex -52.2 -62 29.5764
    endloop
  endfacet
  facet normal 0 -1 -0
    outer loop
      vertex 52.2 -62 29.5764
      vertex -52.2 -62 2.05
      vertex 52.2 -62 2.05
    endloop
  endfacet
  facet normal 0 0 -1
    outer loop
      vertex -52.2 -62 2.05
      vertex 52.2 58 2.05
      vertex 52.2 -62 2.05
    endloop
  endfacet
  facet normal -0 0 -1
    outer loop
      vertex 52.2 58 2.05
      vertex -52.2 -62 2.05
      vertex -52.2 58 2.05
    endloop
  endfacet
  facet normal 0 1 -0
    outer loop
      vertex 49 -58.8 6.05
      vertex -49 -58.8 40.05
      vertex 49 -58.8 40.05
    endloop
  endfacet
  facet normal 0 1 0
    outer loop
      vertex -49 -58.8 40.05
      vertex 49 -58.8 6.05
      vertex -49 -58.8 6.05
    endloop
  endfacet
  facet normal -0 0 1
    outer loop
      vertex -49 58 23.45
      vertex 49 57.9649 23.45
      vertex 49 58 23.45
    endloop
  endfacet
  facet normal 0 0 1
    outer loop
      vertex 49 57.9649 23.45
      vertex -49 58 23.45
      vertex -49 57.9649 23.45
    endloop
  endfacet
  facet normal -0 0 1
    outer loop
      vertex -49 54.8351 23.45
      vertex 49 54.8 23.45
      vertex 49 54.8351 23.45
    endloop
  endfacet
  facet normal 0 0 1
    outer loop
      vertex 49 54.8 23.45
      vertex -49 54.8351 23.45
      vertex -49 54.8 23.45
    endloop
  endfacet
  facet normal 0 -1 0
    outer loop
      vertex -49 54.8 6.05
      vertex 49 54.8 23.45
      vertex -49 54.8 23.45
    endloop
  endfacet
  facet normal 0 -1 -0
    outer loop
      vertex 49 54.8 23.45
      vertex -49 54.8 6.05
      vertex 49 54.8 6.05
    endloop
  endfacet
  facet normal 0 0.822981 0.568069
    outer loop
      vertex 49 57.896 24.0174
      vertex -49 57.461 24.6476
      vertex 49 57.461 24.6476
    endloop
  endfacet
  facet normal 0 0.822981 0.568069
    outer loop
      vertex -49 57.461 24.6476
      vertex 49 57.896 24.0174
      vertex -49 57.896 24.0174
    endloop
  endfacet
  facet normal -0 0 1
    outer loop
      vertex -49 56.7829 25.0035
      vertex 49 56.0171 25.0035
      vertex 49 56.7829 25.0035
    endloop
  endfacet
  facet normal 0 0 1
    outer loop
      vertex 49 56.0171 25.0035
      vertex -49 56.7829 25.0035
      vertex -49 56.0171 25.0035
    endloop
  endfacet
  facet normal -0 0.464729 0.885453
    outer loop
      vertex -49 57.461 24.6476
      vertex 49 56.7829 25.0035
      vertex 49 57.461 24.6476
    endloop
  endfacet
  facet normal 0 0.464729 0.885453
    outer loop
      vertex 49 56.7829 25.0035
      vertex -49 57.461 24.6476
      vertex -49 56.7829 25.0035
    endloop
  endfacet
  facet normal 0 -0.992708 0.120546
    outer loop
      vertex -49 54.8351 23.45
      vertex 49 54.904 24.0174
      vertex -49 54.904 24.0174
    endloop
  endfacet
  facet normal 0 -0.992708 0.120546
    outer loop
      vertex 49 54.904 24.0174
      vertex -49 54.8351 23.45
      vertex 49 54.8351 23.45
    endloop
  endfacet
  facet normal 0 0.992708 0.120546
    outer loop
      vertex 49 57.9649 23.45
      vertex -49 57.896 24.0174
      vertex 49 57.896 24.0174
    endloop
  endfacet
  facet normal 0 0.992708 0.120546
    outer loop
      vertex -49 57.896 24.0174
      vertex 49 57.9649 23.45
      vertex -49 57.9649 23.45
    endloop
  endfacet
  facet normal 0 -0.822981 0.568069
    outer loop
      vertex -49 54.904 24.0174
      vertex 49 55.339 24.6476
      vertex -49 55.339 24.6476
    endloop
  endfacet
  facet normal 0 -0.822981 0.568069
    outer loop
      vertex 49 55.339 24.6476
      vertex -49 54.904 24.0174
      vertex 49 54.904 24.0174
    endloop
  endfacet
  facet normal 0 -0.464729 0.885453
    outer loop
      vertex -49 56.0171 25.0035
      vertex 49 55.339 24.6476
      vertex 49 56.0171 25.0035
    endloop
  endfacet
  facet normal 0 -0.464729 0.885453
    outer loop
      vertex 49 55.339 24.6476
      vertex -49 56.0171 25.0035
      vertex -49 55.339 24.6476
    endloop
  endfacet
  facet normal 0 0.733562 -0.679623
    outer loop
      vertex 52.2 -1.8 42.2087
      vertex -52.2 34 80.85
      vertex 52.2 34 80.85
    endloop
  endfacet
  facet normal 0 0.733562 -0.679623
    outer loop
      vertex -52.2 34 80.85
      vertex 52.2 -1.8 42.2087
      vertex -52.2 -1.8 42.2087
    endloop
  endfacet
  facet normal 0 -0.733561 0.679623
    outer loop
      vertex -52.2 -1.8 48.8627
      vertex 52.2 30.8 84.05
      vertex -52.2 30.8 84.05
    endloop
  endfacet
  facet normal 0 -0.733561 0.679623
    outer loop
      vertex 52.2 30.8 84.05
      vertex -52.2 -1.8 48.8627
      vertex 52.2 -1.8 48.8627
    endloop
  endfacet
  facet normal 0 -0.733557 0.679628
    outer loop
      vertex -49 -7 43.25
      vertex 49 -5 45.4087
      vertex -49 -5 45.4087
    endloop
  endfacet
  facet normal 0 -0.733557 0.679628
    outer loop
      vertex 49 -5 45.4087
      vertex -49 -7 43.25
      vertex 49 -7 43.25
    endloop
  endfacet
  facet normal 0 -1 0
    outer loop
      vertex -49 -7 40.05
      vertex 49 -7 43.25
      vertex -49 -7 43.25
    endloop
  endfacet
  facet normal 0 -1 -0
    outer loop
      vertex 49 -7 43.25
      vertex -49 -7 40.05
      vertex 49 -7 40.05
    endloop
  endfacet
  facet normal -0 0 1
    outer loop
      vertex -52.2 34 84.05
      vertex 52.2 30.8 84.05
      vertex 52.2 34 84.05
    endloop
  endfacet
  facet normal 0 0 1
    outer loop
      vertex 52.2 30.8 84.05
      vertex -52.2 34 84.05
      vertex -52.2 30.8 84.05
    endloop
  endfacet
  facet normal 0 1 -0
    outer loop
      vertex 52.2 34 80.85
      vertex -52.2 34 84.05
      vertex 52.2 34 84.05
    endloop
  endfacet
  facet normal 0 1 0
    outer loop
      vertex -52.2 34 84.05
      vertex 52.2 34 80.85
      vertex -52.2 34 80.85
    endloop
  endfacet
  facet normal 1 0 0
    outer loop
      vertex -27.5 12 120.2
      vertex -27.5 11.2 114
      vertex -27.5 12 114
    endloop
  endfacet
  facet normal 1 0 0
    outer loop
      vertex -27.5 8 108
      vertex -27.5 11.2 114
      vertex -27.5 8 114
    endloop
  endfacet
  facet normal 1 0 0
    outer loop
      vertex -27.5 12 120.2
      vertex -27.5 8 114
      vertex -27.5 11.2 114
    endloop
  endfacet
  facet normal 1 -0 0
    outer loop
      vertex -27.5 -1.8 120.2
      vertex -27.5 8 114
      vertex -27.5 12 120.2
    endloop
  endfacet
  facet normal 1 0 0
    outer loop
      vertex -27.5 8 114
      vertex -27.5 -1.8 120.2
      vertex -27.5 -1.8 114
    endloop
  endfacet
  facet normal 1 0 0
    outer loop
      vertex -27.5 11.2 114
      vertex -27.5 8 108
      vertex -27.5 11.2 104
    endloop
  endfacet
  facet normal 1 0 0
    outer loop
      vertex -27.5 8 108
      vertex -27.5 8 104
      vertex -27.5 11.2 104
    endloop
  endfacet
  facet normal 1 0 0
    outer loop
      vertex -27.5 8 108
      vertex -27.5 5.6 104.8
      vertex -27.5 8 104
    endloop
  endfacet
  facet normal 1 -0 0
    outer loop
      vertex -27.5 1.4 108
      vertex -27.5 5.6 104.8
      vertex -27.5 8 108
    endloop
  endfacet
  facet normal 1 0 0
    outer loop
      vertex -27.5 5.6 104.8
      vertex -27.5 1.4 108
      vertex -27.5 1.4 104.8
    endloop
  endfacet
  facet normal -0 0 1
    outer loop
      vertex -32.5 12 120.2
      vertex -27.5 -1.8 120.2
      vertex -27.5 12 120.2
    endloop
  endfacet
  facet normal 0 0 1
    outer loop
      vertex -27.5 -1.8 120.2
      vertex -32.5 12 120.2
      vertex -32.5 -1.8 120.2
    endloop
  endfacet
  facet normal 0 0 -1
    outer loop
      vertex -32.5 11.2 114
      vertex -27.5 12 114
      vertex -27.5 11.2 114
    endloop
  endfacet
  facet normal -0 0 -1
    outer loop
      vertex -27.5 12 114
      vertex -32.5 11.2 114
      vertex -32.5 12 114
    endloop
  endfacet
  facet normal 0 0 -1
    outer loop
      vertex -32.5 -1.8 114
      vertex -27.5 8 114
      vertex -27.5 -1.8 114
    endloop
  endfacet
  facet normal -0 0 -1
    outer loop
      vertex -27.5 8 114
      vertex -32.5 -1.8 114
      vertex -32.5 8 114
    endloop
  endfacet
  facet normal -1 0 0
    outer loop
      vertex -32.5 8 108
      vertex -32.5 11.2 104
      vertex -32.5 8 104
    endloop
  endfacet
  facet normal -1 0 0
    outer loop
      vertex -32.5 11.2 114
      vertex -32.5 12 120.2
      vertex -32.5 12 114
    endloop
  endfacet
  facet normal -1 0 0
    outer loop
      vertex -32.5 11.2 104
      vertex -32.5 8 108
      vertex -32.5 11.2 114
    endloop
  endfacet
  facet normal -1 0 0
    outer loop
      vertex -32.5 8 114
      vertex -32.5 11.2 114
      vertex -32.5 8 108
    endloop
  endfacet
  facet normal -1 0 0
    outer loop
      vertex -32.5 11.2 114
      vertex -32.5 8 114
      vertex -32.5 12 120.2
    endloop
  endfacet
  facet normal -1 0 0
    outer loop
      vertex -32.5 -1.8 120.2
      vertex -32.5 8 114
      vertex -32.5 -1.8 114
    endloop
  endfacet
  facet normal -1 0 0
    outer loop
      vertex -32.5 8 114
      vertex -32.5 -1.8 120.2
      vertex -32.5 12 120.2
    endloop
  endfacet
  facet normal -1 0 0
    outer loop
      vertex -32.5 5.6 104.8
      vertex -32.5 8 108
      vertex -32.5 8 104
    endloop
  endfacet
  facet normal -1 0 0
    outer loop
      vertex -32.5 1.4 108
      vertex -32.5 5.6 104.8
      vertex -32.5 1.4 104.8
    endloop
  endfacet
  facet normal -1 0 0
    outer loop
      vertex -32.5 5.6 104.8
      vertex -32.5 1.4 108
      vertex -32.5 8 108
    endloop
  endfacet
  facet normal 0 1 -0
    outer loop
      vertex -27.5 12 114
      vertex -32.5 12 120.2
      vertex -27.5 12 120.2
    endloop
  endfacet
  facet normal 0 1 0
    outer loop
      vertex -32.5 12 120.2
      vertex -27.5 12 114
      vertex -32.5 12 114
    endloop
  endfacet
  facet normal 0 0 -1
    outer loop
      vertex -32.5 8 104
      vertex -27.5 11.2 104
      vertex -27.5 8 104
    endloop
  endfacet
  facet normal -0 0 -1
    outer loop
      vertex -27.5 11.2 104
      vertex -32.5 8 104
      vertex -32.5 11.2 104
    endloop
  endfacet
  facet normal 0 1 -0
    outer loop
      vertex -27.5 11.2 104
      vertex -32.5 11.2 114
      vertex -27.5 11.2 114
    endloop
  endfacet
  facet normal 0 1 0
    outer loop
      vertex -32.5 11.2 114
      vertex -27.5 11.2 104
      vertex -32.5 11.2 104
    endloop
  endfacet
  facet normal 0 -1 0
    outer loop
      vertex -32.5 8 108
      vertex -27.5 8 114
      vertex -32.5 8 114
    endloop
  endfacet
  facet normal 0 -1 -0
    outer loop
      vertex -27.5 8 114
      vertex -32.5 8 108
      vertex -27.5 8 108
    endloop
  endfacet
  facet normal -0 0 1
    outer loop
      vertex -32.5 8 108
      vertex -27.5 1.4 108
      vertex -27.5 8 108
    endloop
  endfacet
  facet normal 0 0 1
    outer loop
      vertex -27.5 1.4 108
      vertex -32.5 8 108
      vertex -32.5 1.4 108
    endloop
  endfacet
  facet normal 0 0 -1
    outer loop
      vertex -32.5 1.4 104.8
      vertex -27.5 5.6 104.8
      vertex -27.5 1.4 104.8
    endloop
  endfacet
  facet normal -0 0 -1
    outer loop
      vertex -27.5 5.6 104.8
      vertex -32.5 1.4 104.8
      vertex -32.5 5.6 104.8
    endloop
  endfacet
  facet normal 0 -1 0
    outer loop
      vertex -32.5 1.4 104.8
      vertex -27.5 1.4 108
      vertex -32.5 1.4 108
    endloop
  endfacet
  facet normal 0 -1 -0
    outer loop
      vertex -27.5 1.4 108
      vertex -32.5 1.4 104.8
      vertex -27.5 1.4 104.8
    endloop
  endfacet
  facet normal 0 -0.316228 -0.948683
    outer loop
      vertex -32.5 5.6 104.8
      vertex -27.5 8 104
      vertex -27.5 5.6 104.8
    endloop
  endfacet
  facet normal -0 -0.316228 -0.948683
    outer loop
      vertex -27.5 8 104
      vertex -32.5 5.6 104.8
      vertex -32.5 8 104
    endloop
  endfacet
  facet normal 1 0 0
    outer loop
      vertex 32.5 12 120.2
      vertex 32.5 11.2 114
      vertex 32.5 12 114
    endloop
  endfacet
  facet normal 1 0 0
    outer loop
      vertex 32.5 8 108
      vertex 32.5 11.2 114
      vertex 32.5 8 114
    endloop
  endfacet
  facet normal 1 0 0
    outer loop
      vertex 32.5 12 120.2
      vertex 32.5 8 114
      vertex 32.5 11.2 114
    endloop
  endfacet
  facet normal 1 -0 0
    outer loop
      vertex 32.5 -1.8 120.2
      vertex 32.5 8 114
      vertex 32.5 12 120.2
    endloop
  endfacet
  facet normal 1 0 0
    outer loop
      vertex 32.5 8 114
      vertex 32.5 -1.8 120.2
      vertex 32.5 -1.8 114
    endloop
  endfacet
  facet normal 1 0 0
    outer loop
      vertex 32.5 11.2 114
      vertex 32.5 8 108
      vertex 32.5 11.2 104
    endloop
  endfacet
  facet normal 1 0 0
    outer loop
      vertex 32.5 8 108
      vertex 32.5 8 104
      vertex 32.5 11.2 104
    endloop
  endfacet
  facet normal 1 0 0
    outer loop
      vertex 32.5 8 108
      vertex 32.5 5.6 104.8
      vertex 32.5 8 104
    endloop
  endfacet
  facet normal 1 -0 0
    outer loop
      vertex 32.5 1.4 108
      vertex 32.5 5.6 104.8
      vertex 32.5 8 108
    endloop
  endfacet
  facet normal 1 0 0
    outer loop
      vertex 32.5 5.6 104.8
      vertex 32.5 1.4 108
      vertex 32.5 1.4 104.8
    endloop
  endfacet
  facet normal -0 0 1
    outer loop
      vertex 27.5 12 120.2
      vertex 32.5 -1.8 120.2
      vertex 32.5 12 120.2
    endloop
  endfacet
  facet normal 0 0 1
    outer loop
      vertex 32.5 -1.8 120.2
      vertex 27.5 12 120.2
      vertex 27.5 -1.8 120.2
    endloop
  endfacet
  facet normal 0 0 -1
    outer loop
      vertex 27.5 11.2 114
      vertex 32.5 12 114
      vertex 32.5 11.2 114
    endloop
  endfacet
  facet normal -0 0 -1
    outer loop
      vertex 32.5 12 114
      vertex 27.5 11.2 114
      vertex 27.5 12 114
    endloop
  endfacet
  facet normal 0 0 -1
    outer loop
      vertex 27.5 -1.8 114
      vertex 32.5 8 114
      vertex 32.5 -1.8 114
    endloop
  endfacet
  facet normal -0 0 -1
    outer loop
      vertex 32.5 8 114
      vertex 27.5 -1.8 114
      vertex 27.5 8 114
    endloop
  endfacet
  facet normal -1 0 0
    outer loop
      vertex 27.5 8 108
      vertex 27.5 11.2 104
      vertex 27.5 8 104
    endloop
  endfacet
  facet normal -1 0 0
    outer loop
      vertex 27.5 11.2 114
      vertex 27.5 12 120.2
      vertex 27.5 12 114
    endloop
  endfacet
  facet normal -1 0 0
    outer loop
      vertex 27.5 11.2 104
      vertex 27.5 8 108
      vertex 27.5 11.2 114
    endloop
  endfacet
  facet normal -1 0 0
    outer loop
      vertex 27.5 8 114
      vertex 27.5 11.2 114
      vertex 27.5 8 108
    endloop
  endfacet
  facet normal -1 0 0
    outer loop
      vertex 27.5 11.2 114
      vertex 27.5 8 114
      vertex 27.5 12 120.2
    endloop
  endfacet
  facet normal -1 0 0
    outer loop
      vertex 27.5 -1.8 120.2
      vertex 27.5 8 114
      vertex 27.5 -1.8 114
    endloop
  endfacet
  facet normal -1 0 0
    outer loop
      vertex 27.5 8 114
      vertex 27.5 -1.8 120.2
      vertex 27.5 12 120.2
    endloop
  endfacet
  facet normal -1 0 0
    outer loop
      vertex 27.5 5.6 104.8
      vertex 27.5 8 108
      vertex 27.5 8 104
    endloop
  endfacet
  facet normal -1 0 0
    outer loop
      vertex 27.5 1.4 108
      vertex 27.5 5.6 104.8
      vertex 27.5 1.4 104.8
    endloop
  endfacet
  facet normal -1 0 0
    outer loop
      vertex 27.5 5.6 104.8
      vertex 27.5 1.4 108
      vertex 27.5 8 108
    endloop
  endfacet
  facet normal 0 1 -0
    outer loop
      vertex 32.5 12 114
      vertex 27.5 12 120.2
      vertex 32.5 12 120.2
    endloop
  endfacet
  facet normal 0 1 0
    outer loop
      vertex 27.5 12 120.2
      vertex 32.5 12 114
      vertex 27.5 12 114
    endloop
  endfacet
  facet normal 0 0 -1
    outer loop
      vertex 27.5 8 104
      vertex 32.5 11.2 104
      vertex 32.5 8 104
    endloop
  endfacet
  facet normal -0 0 -1
    outer loop
      vertex 32.5 11.2 104
      vertex 27.5 8 104
      vertex 27.5 11.2 104
    endloop
  endfacet
  facet normal 0 1 -0
    outer loop
      vertex 32.5 11.2 104
      vertex 27.5 11.2 114
      vertex 32.5 11.2 114
    endloop
  endfacet
  facet normal 0 1 0
    outer loop
      vertex 27.5 11.2 114
      vertex 32.5 11.2 104
      vertex 27.5 11.2 104
    endloop
  endfacet
  facet normal 0 -1 0
    outer loop
      vertex 27.5 8 108
      vertex 32.5 8 114
      vertex 27.5 8 114
    endloop
  endfacet
  facet normal 0 -1 -0
    outer loop
      vertex 32.5 8 114
      vertex 27.5 8 108
      vertex 32.5 8 108
    endloop
  endfacet
  facet normal -0 0 1
    outer loop
      vertex 27.5 8 108
      vertex 32.5 1.4 108
      vertex 32.5 8 108
    endloop
  endfacet
  facet normal 0 0 1
    outer loop
      vertex 32.5 1.4 108
      vertex 27.5 8 108
      vertex 27.5 1.4 108
    endloop
  endfacet
  facet normal 0 0 -1
    outer loop
      vertex 27.5 1.4 104.8
      vertex 32.5 5.6 104.8
      vertex 32.5 1.4 104.8
    endloop
  endfacet
  facet normal -0 0 -1
    outer loop
      vertex 32.5 5.6 104.8
      vertex 27.5 1.4 104.8
      vertex 27.5 5.6 104.8
    endloop
  endfacet
  facet normal 0 -1 0
    outer loop
      vertex 27.5 1.4 104.8
      vertex 32.5 1.4 108
      vertex 27.5 1.4 108
    endloop
  endfacet
  facet normal 0 -1 -0
    outer loop
      vertex 32.5 1.4 108
      vertex 27.5 1.4 104.8
      vertex 32.5 1.4 104.8
    endloop
  endfacet
  facet normal 0 -0.316228 -0.948683
    outer loop
      vertex 27.5 5.6 104.8
      vertex 32.5 8 104
      vertex 32.5 5.6 104.8
    endloop
  endfacet
  facet normal -0 -0.316228 -0.948683
    outer loop
      vertex 32.5 8 104
      vertex 27.5 5.6 104.8
      vertex 27.5 8 104
    endloop
  endfacet
endsolid OpenSCAD_Model
