solid OpenSCAD_Model
  facet normal 1 0 0
    outer loop
      vertex 51.5 150.755 183.4
      vertex 51.5 6 180.2
      vertex 51.5 150.755 160.2
    endloop
  endfacet
  facet normal 1 -0 0
    outer loop
      vertex 51.5 2.8 183.4
      vertex 51.5 6 180.2
      vertex 51.5 150.755 183.4
    endloop
  endfacet
  facet normal 1 0 0
    outer loop
      vertex 51.5 6 180.2
      vertex 51.5 2.8 183.4
      vertex 51.5 2.8 180.2
    endloop
  endfacet
  facet normal 1 0 0
    outer loop
      vertex 51.5 150.755 160.2
      vertex 51.5 6 180.2
      vertex 51.5 6 160.2
    endloop
  endfacet
  facet normal 0 0 -1
    outer loop
      vertex -48.3 6 160.2
      vertex -51.5 6 160.2
      vertex -48.3 147.155 160.2
    endloop
  endfacet
  facet normal 0 0 -1
    outer loop
      vertex 48.3 147.155 160.2
      vertex 51.5 6 160.2
      vertex 48.3 6 160.2
    endloop
  endfacet
  facet normal 0 0 -1
    outer loop
      vertex 51.5 6 160.2
      vertex 48.3 147.155 160.2
      vertex 51.5 150.755 160.2
    endloop
  endfacet
  facet normal 0 0 -1
    outer loop
      vertex -48.3 147.155 160.2
      vertex 51.5 150.755 160.2
      vertex 48.3 147.155 160.2
    endloop
  endfacet
  facet normal 0 0 -1
    outer loop
      vertex -48.3 147.155 160.2
      vertex -51.5 150.755 160.2
      vertex 51.5 150.755 160.2
    endloop
  endfacet
  facet normal 0 0 -1
    outer loop
      vertex -51.5 150.755 160.2
      vertex -48.3 147.155 160.2
      vertex -51.5 6 160.2
    endloop
  endfacet
  facet normal -1 0 0
    outer loop
      vertex 48.3 133.429 163.2
      vertex 48.3 147.155 160.2
      vertex 48.3 133.429 161.2
    endloop
  endfacet
  facet normal -1 0 0
    outer loop
      vertex 48.3 147.155 160.2
      vertex 48.3 101.429 161.2
      vertex 48.3 133.429 161.2
    endloop
  endfacet
  facet normal -1 -0 0
    outer loop
      vertex 48.3 101.429 161.2
      vertex 48.3 6 160.2
      vertex 48.3 101.429 163.2
    endloop
  endfacet
  facet normal -1 0 0
    outer loop
      vertex 48.3 6 160.2
      vertex 48.3 101.429 161.2
      vertex 48.3 147.155 160.2
    endloop
  endfacet
  facet normal -1 0 0
    outer loop
      vertex 48.3 147.155 160.2
      vertex 48.3 133.429 163.2
      vertex 48.3 147.155 180.2
    endloop
  endfacet
  facet normal -1 0 0
    outer loop
      vertex 48.3 101.429 163.2
      vertex 48.3 147.155 180.2
      vertex 48.3 133.429 163.2
    endloop
  endfacet
  facet normal -1 0 0
    outer loop
      vertex 48.3 6 180.2
      vertex 48.3 101.429 163.2
      vertex 48.3 6 160.2
    endloop
  endfacet
  facet normal -1 0 0
    outer loop
      vertex 48.3 101.429 163.2
      vertex 48.3 6 180.2
      vertex 48.3 147.155 180.2
    endloop
  endfacet
  facet normal 0 1 -0
    outer loop
      vertex 51.5 150.755 160.2
      vertex -51.5 150.755 183.4
      vertex 51.5 150.755 183.4
    endloop
  endfacet
  facet normal 0 1 0
    outer loop
      vertex -51.5 150.755 183.4
      vertex 51.5 150.755 160.2
      vertex -51.5 150.755 160.2
    endloop
  endfacet
  facet normal 0 -1 0
    outer loop
      vertex 48.3 6 160.2
      vertex 51.5 6 180.2
      vertex 48.3 6 180.2
    endloop
  endfacet
  facet normal 0 -1 -0
    outer loop
      vertex 51.5 6 180.2
      vertex 48.3 6 160.2
      vertex 51.5 6 160.2
    endloop
  endfacet
  facet normal 1 0 0
    outer loop
      vertex -48.3 147.155 180.2
      vertex -48.3 133.429 163.2
      vertex -48.3 147.155 160.2
    endloop
  endfacet
  facet normal 1 0 0
    outer loop
      vertex -48.3 147.155 180.2
      vertex -48.3 101.429 163.2
      vertex -48.3 133.429 163.2
    endloop
  endfacet
  facet normal 1 0 0
    outer loop
      vertex -48.3 6 160.2
      vertex -48.3 101.429 163.2
      vertex -48.3 6 180.2
    endloop
  endfacet
  facet normal 1 -0 0
    outer loop
      vertex -48.3 6 180.2
      vertex -48.3 101.429 163.2
      vertex -48.3 147.155 180.2
    endloop
  endfacet
  facet normal 1 -0 0
    outer loop
      vertex -48.3 133.429 161.2
      vertex -48.3 147.155 160.2
      vertex -48.3 133.429 163.2
    endloop
  endfacet
  facet normal 1 -0 0
    outer loop
      vertex -48.3 101.429 161.2
      vertex -48.3 147.155 160.2
      vertex -48.3 133.429 161.2
    endloop
  endfacet
  facet normal 1 0 0
    outer loop
      vertex -48.3 101.429 161.2
      vertex -48.3 6 160.2
      vertex -48.3 147.155 160.2
    endloop
  endfacet
  facet normal 1 0 0
    outer loop
      vertex -48.3 101.429 163.2
      vertex -48.3 6 160.2
      vertex -48.3 101.429 161.2
    endloop
  endfacet
  facet normal 0 -1 0
    outer loop
      vertex -51.5 6 160.2
      vertex -48.3 6 180.2
      vertex -51.5 6 180.2
    endloop
  endfacet
  facet normal 0 -1 -0
    outer loop
      vertex -48.3 6 180.2
      vertex -51.5 6 160.2
      vertex -48.3 6 160.2
    endloop
  endfacet
  facet normal -1 0 0
    outer loop
      vertex -51.5 6 180.2
      vertex -51.5 150.755 160.2
      vertex -51.5 6 160.2
    endloop
  endfacet
  facet normal -1 0 0
    outer loop
      vertex -51.5 150.755 160.2
      vertex -51.5 6 180.2
      vertex -51.5 150.755 183.4
    endloop
  endfacet
  facet normal -1 0 0
    outer loop
      vertex -51.5 2.8 183.4
      vertex -51.5 6 180.2
      vertex -51.5 2.8 180.2
    endloop
  endfacet
  facet normal -1 0 0
    outer loop
      vertex -51.5 6 180.2
      vertex -51.5 2.8 183.4
      vertex -51.5 150.755 183.4
    endloop
  endfacet
  facet normal -0 0 1
    outer loop
      vertex 47.5 133.429 163.2
      vertex 48.3 101.429 163.2
      vertex 48.3 133.429 163.2
    endloop
  endfacet
  facet normal 0 0 1
    outer loop
      vertex 48.3 101.429 163.2
      vertex 47.5 133.429 163.2
      vertex 47.5 101.429 163.2
    endloop
  endfacet
  facet normal 0 0 -1
    outer loop
      vertex 47.5 101.429 161.2
      vertex 48.3 133.429 161.2
      vertex 48.3 101.429 161.2
    endloop
  endfacet
  facet normal -0 0 -1
    outer loop
      vertex 48.3 133.429 161.2
      vertex 47.5 101.429 161.2
      vertex 47.5 133.429 161.2
    endloop
  endfacet
  facet normal -1 0 0
    outer loop
      vertex 47.5 101.429 161.2
      vertex 47.5 133.429 163.2
      vertex 47.5 133.429 161.2
    endloop
  endfacet
  facet normal -1 -0 0
    outer loop
      vertex 47.5 133.429 163.2
      vertex 47.5 101.429 161.2
      vertex 47.5 101.429 163.2
    endloop
  endfacet
  facet normal 0 1 -0
    outer loop
      vertex 48.3 133.429 161.2
      vertex 47.5 133.429 163.2
      vertex 48.3 133.429 163.2
    endloop
  endfacet
  facet normal 0 1 0
    outer loop
      vertex 47.5 133.429 163.2
      vertex 48.3 133.429 161.2
      vertex 47.5 133.429 161.2
    endloop
  endfacet
  facet normal 0 -1 0
    outer loop
      vertex 47.5 101.429 161.2
      vertex 48.3 101.429 163.2
      vertex 47.5 101.429 163.2
    endloop
  endfacet
  facet normal 0 -1 -0
    outer loop
      vertex 48.3 101.429 163.2
      vertex 47.5 101.429 161.2
      vertex 48.3 101.429 161.2
    endloop
  endfacet
  facet normal -0 0 1
    outer loop
      vertex -48.3 133.429 163.2
      vertex -47.5 101.429 163.2
      vertex -47.5 133.429 163.2
    endloop
  endfacet
  facet normal 0 0 1
    outer loop
      vertex -47.5 101.429 163.2
      vertex -48.3 133.429 163.2
      vertex -48.3 101.429 163.2
    endloop
  endfacet
  facet normal 1 -0 0
    outer loop
      vertex -47.5 101.429 163.2
      vertex -47.5 133.429 161.2
      vertex -47.5 133.429 163.2
    endloop
  endfacet
  facet normal 1 0 0
    outer loop
      vertex -47.5 133.429 161.2
      vertex -47.5 101.429 163.2
      vertex -47.5 101.429 161.2
    endloop
  endfacet
  facet normal 0 -1 0
    outer loop
      vertex -48.3 101.429 161.2
      vertex -47.5 101.429 163.2
      vertex -48.3 101.429 163.2
    endloop
  endfacet
  facet normal 0 -1 -0
    outer loop
      vertex -47.5 101.429 163.2
      vertex -48.3 101.429 161.2
      vertex -47.5 101.429 161.2
    endloop
  endfacet
  facet normal 0 0 -1
    outer loop
      vertex -48.3 101.429 161.2
      vertex -47.5 133.429 161.2
      vertex -47.5 101.429 161.2
    endloop
  endfacet
  facet normal -0 0 -1
    outer loop
      vertex -47.5 133.429 161.2
      vertex -48.3 101.429 161.2
      vertex -48.3 133.429 161.2
    endloop
  endfacet
  facet normal 0 1 -0
    outer loop
      vertex -47.5 133.429 161.2
      vertex -48.3 133.429 163.2
      vertex -47.5 133.429 163.2
    endloop
  endfacet
  facet normal 0 1 0
    outer loop
      vertex -48.3 133.429 163.2
      vertex -47.5 133.429 161.2
      vertex -48.3 133.429 161.2
    endloop
  endfacet
  facet normal -0 0 1
    outer loop
      vertex -51.5 150.755 183.4
      vertex 51.5 2.8 183.4
      vertex 51.5 150.755 183.4
    endloop
  endfacet
  facet normal 0 0 1
    outer loop
      vertex 51.5 2.8 183.4
      vertex -51.5 150.755 183.4
      vertex -51.5 2.8 183.4
    endloop
  endfacet
  facet normal 0 0 -1
    outer loop
      vertex 51.5 2.8 180.2
      vertex 48.3 6 180.2
      vertex 51.5 6 180.2
    endloop
  endfacet
  facet normal 0 0 -1
    outer loop
      vertex 43.4 9.3 180.2
      vertex 48.3 6 180.2
      vertex 43.4 6.1 180.2
    endloop
  endfacet
  facet normal 0 0 -1
    outer loop
      vertex 51.5 2.8 180.2
      vertex 43.4 6.1 180.2
      vertex 48.3 6 180.2
    endloop
  endfacet
  facet normal 0 0 -1
    outer loop
      vertex 51.5 2.8 180.2
      vertex -43.4 6.1 180.2
      vertex 43.4 6.1 180.2
    endloop
  endfacet
  facet normal -0 0 -1
    outer loop
      vertex -43.4 6.1 180.2
      vertex -48.3 6 180.2
      vertex -43.4 9.3 180.2
    endloop
  endfacet
  facet normal 0 0 -1
    outer loop
      vertex -51.5 2.8 180.2
      vertex -43.4 6.1 180.2
      vertex 51.5 2.8 180.2
    endloop
  endfacet
  facet normal 0 0 -1
    outer loop
      vertex -43.4 6.1 180.2
      vertex -51.5 2.8 180.2
      vertex -48.3 6 180.2
    endloop
  endfacet
  facet normal -0 0 -1
    outer loop
      vertex -48.3 6 180.2
      vertex -51.5 2.8 180.2
      vertex -51.5 6 180.2
    endloop
  endfacet
  facet normal 0 0 -1
    outer loop
      vertex 48.3 6 180.2
      vertex 43.4 9.3 180.2
      vertex 48.3 147.155 180.2
    endloop
  endfacet
  facet normal 0 0 -1
    outer loop
      vertex -43.4 9.3 180.2
      vertex 48.3 147.155 180.2
      vertex 43.4 9.3 180.2
    endloop
  endfacet
  facet normal 0 0 -1
    outer loop
      vertex -48.3 147.155 180.2
      vertex -43.4 9.3 180.2
      vertex -48.3 6 180.2
    endloop
  endfacet
  facet normal 0 0 -1
    outer loop
      vertex -43.4 9.3 180.2
      vertex -48.3 147.155 180.2
      vertex 48.3 147.155 180.2
    endloop
  endfacet
  facet normal 0 -1 0
    outer loop
      vertex -51.5 2.8 180.2
      vertex 51.5 2.8 183.4
      vertex -51.5 2.8 183.4
    endloop
  endfacet
  facet normal 0 -1 -0
    outer loop
      vertex 51.5 2.8 183.4
      vertex -51.5 2.8 180.2
      vertex 51.5 2.8 180.2
    endloop
  endfacet
  facet normal 0 -1 0
    outer loop
      vertex -48.3 147.155 160.2
      vertex 48.3 147.155 180.2
      vertex -48.3 147.155 180.2
    endloop
  endfacet
  facet normal 0 -1 -0
    outer loop
      vertex 48.3 147.155 180.2
      vertex -48.3 147.155 160.2
      vertex 48.3 147.155 160.2
    endloop
  endfacet
  facet normal 1 -0 0
    outer loop
      vertex 43.4 6.1 180.2
      vertex 43.4 9.3 168.2
      vertex 43.4 9.3 180.2
    endloop
  endfacet
  facet normal 1 0 0
    outer loop
      vertex 43.4 9.3 168.2
      vertex 43.4 6.1 180.2
      vertex 43.4 6.1 168.2
    endloop
  endfacet
  facet normal 0 0 -1
    outer loop
      vertex -43.4 6.1 168.2
      vertex 43.4 9.3 168.2
      vertex 43.4 6.1 168.2
    endloop
  endfacet
  facet normal -0 0 -1
    outer loop
      vertex 43.4 9.3 168.2
      vertex -43.4 6.1 168.2
      vertex -43.4 9.3 168.2
    endloop
  endfacet
  facet normal -1 0 0
    outer loop
      vertex -43.4 6.1 168.2
      vertex -43.4 9.3 180.2
      vertex -43.4 9.3 168.2
    endloop
  endfacet
  facet normal -1 -0 0
    outer loop
      vertex -43.4 9.3 180.2
      vertex -43.4 6.1 168.2
      vertex -43.4 6.1 180.2
    endloop
  endfacet
  facet normal 0 1 -0
    outer loop
      vertex 43.4 9.3 168.2
      vertex -43.4 9.3 180.2
      vertex 43.4 9.3 180.2
    endloop
  endfacet
  facet normal 0 1 0
    outer loop
      vertex -43.4 9.3 180.2
      vertex 43.4 9.3 168.2
      vertex -43.4 9.3 168.2
    endloop
  endfacet
  facet normal 0 -1 0
    outer loop
      vertex -43.4 6.1 168.2
      vertex 43.4 6.1 180.2
      vertex -43.4 6.1 180.2
    endloop
  endfacet
  facet normal 0 -1 -0
    outer loop
      vertex 43.4 6.1 180.2
      vertex -43.4 6.1 168.2
      vertex 43.4 6.1 168.2
    endloop
  endfacet
endsolid OpenSCAD_Model
