solid OpenSCAD_Model
  facet normal 0 0 -1
    outer loop
      vertex -49 -64 22
      vertex 49 72.1 22
      vertex 49 -64 22
    endloop
  endfacet
  facet normal 0 0 -1
    outer loop
      vertex 46 -67 22
      vertex 49 -64 22
      vertex 48.7926 -65.096 22
    endloop
  endfacet
  facet normal 0 0 -1
    outer loop
      vertex -49 72.1 22
      vertex 49 72.1 22
      vertex -49 -64 22
    endloop
  endfacet
  facet normal 0 0 -1
    outer loop
      vertex 46 -67 22
      vertex 48.7926 -65.096 22
      vertex 48.3455 -65.8705 22
    endloop
  endfacet
  facet normal -0 0 -1
    outer loop
      vertex 49 -64 22
      vertex 46 -67 22
      vertex -49 -64 22
    endloop
  endfacet
  facet normal 0 0 -1
    outer loop
      vertex 46 -67 22
      vertex 48.3455 -65.8705 22
      vertex 47.69 -66.4787 22
    endloop
  endfacet
  facet normal 0 0 -1
    outer loop
      vertex 48.8667 72.9843 22
      vertex 46 75.1 22
      vertex 48.4787 73.7899 22
    endloop
  endfacet
  facet normal 0 0 -1
    outer loop
      vertex 46 -67 22
      vertex 47.69 -66.4787 22
      vertex 46.8843 -66.8667 22
    endloop
  endfacet
  facet normal 0 0 -1
    outer loop
      vertex 48.4787 73.7899 22
      vertex 46 75.1 22
      vertex 47.8705 74.4455 22
    endloop
  endfacet
  facet normal 0 0 -1
    outer loop
      vertex 47.8705 74.4455 22
      vertex 46 75.1 22
      vertex 47.096 74.8926 22
    endloop
  endfacet
  facet normal 0 0 -1
    outer loop
      vertex -49 -64 22
      vertex 46 -67 22
      vertex -46 -67 22
    endloop
  endfacet
  facet normal 0 -0 -1
    outer loop
      vertex 46 75.1 22
      vertex 49 72.1 22
      vertex -49 72.1 22
    endloop
  endfacet
  facet normal -0 0 -1
    outer loop
      vertex 46 75.1 22
      vertex -49 72.1 22
      vertex -46 75.1 22
    endloop
  endfacet
  facet normal 0 0 -1
    outer loop
      vertex -49 -64 22
      vertex -46 -67 22
      vertex -47.096 -66.7926 22
    endloop
  endfacet
  facet normal 0 0 -1
    outer loop
      vertex 49 72.1 22
      vertex 46 75.1 22
      vertex 48.8667 72.9843 22
    endloop
  endfacet
  facet normal 0 0 -1
    outer loop
      vertex -49 -64 22
      vertex -47.096 -66.7926 22
      vertex -47.8705 -66.3455 22
    endloop
  endfacet
  facet normal 0 0 -1
    outer loop
      vertex -46 75.1 22
      vertex -49 72.1 22
      vertex -46.8843 74.9667 22
    endloop
  endfacet
  facet normal 0 0 -1
    outer loop
      vertex -49 -64 22
      vertex -47.8705 -66.3455 22
      vertex -48.4787 -65.6899 22
    endloop
  endfacet
  facet normal 0 0 -1
    outer loop
      vertex -46.8843 74.9667 22
      vertex -49 72.1 22
      vertex -47.69 74.5787 22
    endloop
  endfacet
  facet normal 0 0 -1
    outer loop
      vertex -49 -64 22
      vertex -48.4787 -65.6899 22
      vertex -48.8667 -64.8842 22
    endloop
  endfacet
  facet normal 0 0 -1
    outer loop
      vertex -47.69 74.5787 22
      vertex -49 72.1 22
      vertex -48.3455 73.9705 22
    endloop
  endfacet
  facet normal 0 0 -1
    outer loop
      vertex -48.3455 73.9705 22
      vertex -49 72.1 22
      vertex -48.7926 73.196 22
    endloop
  endfacet
  facet normal 0.328203 -0.937829 0.112961
    outer loop
      vertex 45.606 -66.6378 25
      vertex 43.5205 -64.244 50.9332
      vertex 43.1543 -64.3776 50.888
    endloop
  endfacet
  facet normal 0.328163 -0.937843 0.112959
    outer loop
      vertex 43.5205 -64.244 50.9332
      vertex 45.606 -66.6378 25
      vertex 46.4022 -66.3592 25
    endloop
  endfacet
  facet normal 0.328132 -0.937854 0.112956
    outer loop
      vertex 45.5628 -66.6529 25
      vertex 43.1543 -64.3776 50.888
      vertex 42.7436 -64.5274 50.8373
    endloop
  endfacet
  facet normal 0.32785 -0.937955 0.112939
    outer loop
      vertex 43.1543 -64.3776 50.888
      vertex 45.5628 -66.6529 25
      vertex 45.606 -66.6378 25
    endloop
  endfacet
  facet normal 0.527694 -0.839866 0.127138
    outer loop
      vertex 47.1552 -65.886 25
      vertex 43.8863 -64.0017 51.0153
      vertex 46.4409 -66.3348 25
    endloop
  endfacet
  facet normal 0.527688 -0.83987 0.127138
    outer loop
      vertex 43.8863 -64.0017 51.0153
      vertex 47.1552 -65.886 25
      vertex 44.2093 -63.7878 51.0877
    endloop
  endfacet
  facet normal 0.529002 -0.839031 0.127217
    outer loop
      vertex 46.4409 -66.3348 25
      vertex 43.5205 -64.244 50.9332
      vertex 46.4022 -66.3592 25
    endloop
  endfacet
  facet normal 0.527753 -0.839828 0.127141
    outer loop
      vertex 43.5205 -64.244 50.9332
      vertex 46.4409 -66.3348 25
      vertex 43.8863 -64.0017 51.0153
    endloop
  endfacet
  facet normal 0.700673 -0.700504 0.135467
    outer loop
      vertex 44.2093 -63.7878 51.0877
      vertex 47.784 -65.2572 25
      vertex 44.7753 -63.182 51.2928
    endloop
  endfacet
  facet normal 0.700589 -0.700589 0.13546
    outer loop
      vertex 47.784 -65.2572 25
      vertex 44.2093 -63.7878 51.0877
      vertex 47.1552 -65.886 25
    endloop
  endfacet
  facet normal 0.83866 -0.526998 0.137561
    outer loop
      vertex 44.7753 -63.182 51.2928
      vertex 48.2328 -64.5429 25
      vertex 44.9668 -62.8477 51.406
    endloop
  endfacet
  facet normal 0.838687 -0.526954 0.137562
    outer loop
      vertex 48.2328 -64.5429 25
      vertex 44.7753 -63.182 51.2928
      vertex 47.784 -65.2572 25
    endloop
  endfacet
  facet normal 0.838571 -0.52714 0.137561
    outer loop
      vertex 44.9668 -62.8477 51.406
      vertex 48.2572 -64.5042 25
      vertex 45.1904 -62.4575 51.5382
    endloop
  endfacet
  facet normal 0.837864 -0.528266 0.137544
    outer loop
      vertex 48.2572 -64.5042 25
      vertex 44.9668 -62.8477 51.406
      vertex 48.2328 -64.5429 25
    endloop
  endfacet
  facet normal 0.935488 -0.327232 0.133347
    outer loop
      vertex 45.1904 -62.4575 51.5382
      vertex 48.5358 -63.708 25
      vertex 45.3014 -62.0894 51.6628
    endloop
  endfacet
  facet normal 0.935455 -0.327327 0.133347
    outer loop
      vertex 48.5358 -63.708 25
      vertex 45.1904 -62.4575 51.5382
      vertex 48.2572 -64.5042 25
    endloop
  endfacet
  facet normal 0.935433 -0.327389 0.133348
    outer loop
      vertex 45.3014 -62.0894 51.6628
      vertex 48.5509 -63.6647 25
      vertex 45.4337 -61.6509 51.8113
    endloop
  endfacet
  facet normal 0.935801 -0.326342 0.133331
    outer loop
      vertex 48.5509 -63.6647 25
      vertex 45.3014 -62.0894 51.6628
      vertex 48.5358 -63.708 25
    endloop
  endfacet
  facet normal 0.986177 -0.111024 0.123001
    outer loop
      vertex 45.4337 -61.6509 51.8113
      vertex 48.6454 -62.8265 25
      vertex 45.4606 -61.2686 51.9407
    endloop
  endfacet
  facet normal 0.986158 -0.111181 0.123006
    outer loop
      vertex 48.6454 -62.8265 25
      vertex 45.4337 -61.6509 51.8113
      vertex 48.5509 -63.6647 25
    endloop
  endfacet
  facet normal 0.986164 -0.111134 0.123005
    outer loop
      vertex 45.4606 -61.2686 51.9407
      vertex 48.6505 -62.781 25
      vertex 45.4934 -60.803 52.0984
    endloop
  endfacet
  facet normal 0.986233 -0.110545 0.12298
    outer loop
      vertex 48.6505 -62.781 25
      vertex 45.4606 -61.2686 51.9407
      vertex 48.6454 -62.8265 25
    endloop
  endfacet
  facet normal 0.993282 2.54717e-07 0.115723
    outer loop
      vertex 45.4934 -60.803 52.0984
      vertex 48.6505 -1.81897 25
      vertex 43.2987 -5.17202 70.936
    endloop
  endfacet
  facet normal 0.993282 0 0.115722
    outer loop
      vertex 48.6505 -1.81897 25
      vertex 45.4934 -60.803 52.0984
      vertex 48.6505 -62.781 25
    endloop
  endfacet
  facet normal 0.986012 0.112391 0.123082
    outer loop
      vertex 43.186 -4.44406 71.1825
      vertex 48.5509 -0.93523 25
      vertex 43.1799 -4.405 71.1957
    endloop
  endfacet
  facet normal 0.986159 0.111176 0.123006
    outer loop
      vertex 48.5509 -0.93523 25
      vertex 43.186 -4.44406 71.1825
      vertex 48.6454 -1.77347 25
    endloop
  endfacet
  facet normal 0.986177 0.111026 0.123
    outer loop
      vertex 43.2987 -5.17202 70.936
      vertex 48.6454 -1.77347 25
      vertex 43.186 -4.44406 71.1825
    endloop
  endfacet
  facet normal 0.986234 0.110545 0.122971
    outer loop
      vertex 48.6454 -1.77347 25
      vertex 43.2987 -5.17202 70.936
      vertex 48.6505 -1.81897 25
    endloop
  endfacet
  facet normal 0.935269 0.32785 0.133367
    outer loop
      vertex 42.9034 -3.71056 71.4309
      vertex 48.2572 -0.0958324 25
      vertex 42.8902 -3.67746 71.4421
    endloop
  endfacet
  facet normal 0.935452 0.327334 0.133348
    outer loop
      vertex 48.2572 -0.0958324 25
      vertex 42.9034 -3.71056 71.4309
      vertex 48.5358 -0.892013 25
    endloop
  endfacet
  facet normal 0.935463 0.327303 0.133347
    outer loop
      vertex 43.1799 -4.405 71.1957
      vertex 48.5358 -0.892013 25
      vertex 42.9034 -3.71056 71.4309
    endloop
  endfacet
  facet normal 0.935606 0.3269 0.133333
    outer loop
      vertex 48.5358 -0.892013 25
      vertex 43.1799 -4.405 71.1957
      vertex 48.5509 -0.93523 25
    endloop
  endfacet
  facet normal 0.838879 0.52665 0.137558
    outer loop
      vertex 42.4625 -3.05209 71.6538
      vertex 47.784 0.657181 25
      vertex 42.4444 -3.02561 71.6628
    endloop
  endfacet
  facet normal 0.838669 0.526984 0.13756
    outer loop
      vertex 47.784 0.657181 25
      vertex 42.4625 -3.05209 71.6538
      vertex 48.2328 -0.0570622 25
    endloop
  endfacet
  facet normal 0.838657 0.527003 0.13756
    outer loop
      vertex 42.8902 -3.67746 71.4421
      vertex 48.2328 -0.0570622 25
      vertex 42.4625 -3.05209 71.6538
    endloop
  endfacet
  facet normal 0.838294 0.52758 0.137563
    outer loop
      vertex 48.2328 -0.0570622 25
      vertex 42.8902 -3.67746 71.4421
      vertex 48.2572 -0.0958324 25
    endloop
  endfacet
  facet normal 0.700611 0.700567 0.135462
    outer loop
      vertex 47.1552 1.28602 25
      vertex 42.4444 -3.02561 71.6628
      vertex 47.784 0.657181 25
    endloop
  endfacet
  facet normal 0.700562 0.700616 0.135461
    outer loop
      vertex 42.4444 -3.02561 71.6628
      vertex 47.1552 1.28602 25
      vertex 41.865 -2.48185 71.8469
    endloop
  endfacet
  facet normal 0.527702 0.83986 0.12714
    outer loop
      vertex 46.4409 1.73483 25
      vertex 41.865 -2.48185 71.8469
      vertex 47.1552 1.28602 25
    endloop
  endfacet
  facet normal 0.528682 0.839238 0.12718
    outer loop
      vertex 41.865 -2.48185 71.8469
      vertex 46.4409 1.73483 25
      vertex 41.8402 -2.467 71.852
    endloop
  endfacet
  facet normal 0.528384 0.839428 0.127168
    outer loop
      vertex 46.4022 1.75919 25
      vertex 41.8402 -2.467 71.852
      vertex 46.4409 1.73483 25
    endloop
  endfacet
  facet normal 0.527696 0.839865 0.12714
    outer loop
      vertex 41.8402 -2.467 71.852
      vertex 46.4022 1.75919 25
      vertex 41.1811 -2.07306 71.9853
    endloop
  endfacet
  facet normal 0.32817 0.93784 0.11296
    outer loop
      vertex 45.7095 2.00158 25
      vertex 41.1811 -2.07306 71.9853
      vertex 46.4022 1.75919 25
    endloop
  endfacet
  facet normal 0.329439 0.937385 0.113043
    outer loop
      vertex 41.1811 -2.07306 71.9853
      vertex 45.7095 2.00158 25
      vertex 41.1593 -2.0657 71.9878
    endloop
  endfacet
  facet normal 0.328236 0.937817 0.112963
    outer loop
      vertex 45.6719 2.01474 25
      vertex 41.1593 -2.0657 71.9878
      vertex 45.7095 2.00158 25
    endloop
  endfacet
  facet normal 0.328148 0.937848 0.112958
    outer loop
      vertex 41.1593 -2.0657 71.9878
      vertex 45.6719 2.01474 25
      vertex 40.5248 -1.8524 72.0601
    endloop
  endfacet
  facet normal -0.994072 -5.79081e-07 -0.108725
    outer loop
      vertex 45.6719 2.01474 25
      vertex 42.6377 -58.9022 52.7421
      vertex 40.5248 -1.8524 72.0601
    endloop
  endfacet
  facet normal -0.994072 0 -0.108723
    outer loop
      vertex 42.6377 -58.9022 52.7421
      vertex 45.6719 2.01474 25
      vertex 45.6719 -60.7953 25
    endloop
  endfacet
  facet normal -0.975531 0.184685 -0.119296
    outer loop
      vertex 45.6613 -60.8513 25
      vertex 42.4838 -59.9431 52.3896
      vertex 42.5514 -59.4861 52.5443
    endloop
  endfacet
  facet normal -0.97555 0.184581 -0.119295
    outer loop
      vertex 42.4838 -59.9431 52.3896
      vertex 45.6613 -60.8513 25
      vertex 45.466 -61.8835 25
    endloop
  endfacet
  facet normal -0.975548 0.184597 -0.119294
    outer loop
      vertex 45.6719 -60.7953 25
      vertex 42.5514 -59.4861 52.5443
      vertex 42.6377 -58.9022 52.7421
    endloop
  endfacet
  facet normal -0.975536 0.184655 -0.119296
    outer loop
      vertex 42.5514 -59.4861 52.5443
      vertex 45.6719 -60.7953 25
      vertex 45.6613 -60.8513 25
    endloop
  endfacet
  facet normal -0.858864 0.495787 -0.128638
    outer loop
      vertex 45.4431 -61.9231 25
      vertex 42.0959 -60.6797 52.1402
      vertex 42.2684 -60.3521 52.2511
    endloop
  endfacet
  facet normal -0.858811 0.49588 -0.128635
    outer loop
      vertex 42.0959 -60.6797 52.1402
      vertex 45.4431 -61.9231 25
      vertex 45.022 -62.6524 25
    endloop
  endfacet
  facet normal -0.858822 0.49586 -0.128638
    outer loop
      vertex 45.466 -61.8835 25
      vertex 42.2684 -60.3521 52.2511
      vertex 42.4838 -59.9431 52.3896
    endloop
  endfacet
  facet normal -0.858484 0.496447 -0.128631
    outer loop
      vertex 42.2684 -60.3521 52.2511
      vertex 45.466 -61.8835 25
      vertex 45.4431 -61.9231 25
    endloop
  endfacet
  facet normal -0.674797 0.727235 -0.125612
    outer loop
      vertex 45.022 -62.6524 25
      vertex 41.8324 -60.9394 52.0522
      vertex 42.0959 -60.6797 52.1402
    endloop
  endfacet
  facet normal -0.674804 0.727228 -0.125613
    outer loop
      vertex 41.8324 -60.9394 52.0522
      vertex 45.022 -62.6524 25
      vertex 44.4047 -63.2252 25
    endloop
  endfacet
  facet normal -0.674783 0.727248 -0.125612
    outer loop
      vertex 44.4047 -63.2252 25
      vertex 41.5082 -61.2589 51.944
      vertex 41.8324 -60.9394 52.0522
    endloop
  endfacet
  facet normal -0.674978 0.727066 -0.12562
    outer loop
      vertex 41.5082 -61.2589 51.944
      vertex 44.4047 -63.2252 25
      vertex 44.3712 -63.2563 25
    endloop
  endfacet
  facet normal -0.431127 0.895291 -0.11218
    outer loop
      vertex 43.6124 -63.6217 25
      vertex 41.5082 -61.2589 51.944
      vertex 44.3712 -63.2563 25
    endloop
  endfacet
  facet normal -0.431122 0.895293 -0.11218
    outer loop
      vertex 41.5082 -61.2589 51.944
      vertex 43.6124 -63.6217 25
      vertex 41.1761 -61.4259 51.8875
    endloop
  endfacet
  facet normal -0.430425 0.895633 -0.112144
    outer loop
      vertex 43.5712 -63.6415 25
      vertex 41.1761 -61.4259 51.8875
      vertex 43.6124 -63.6217 25
    endloop
  endfacet
  facet normal -0.431182 0.895264 -0.112181
    outer loop
      vertex 41.1761 -61.4259 51.8875
      vertex 43.5712 -63.6415 25
      vertex 40.7729 -61.6287 51.8188
    endloop
  endfacet
  facet normal -0.14855 0.984854 -0.089415
    outer loop
      vertex 42.7385 -63.7671 25
      vertex 40.7729 -61.6287 51.8188
      vertex 43.5712 -63.6415 25
    endloop
  endfacet
  facet normal -0.148409 0.984876 -0.0894064
    outer loop
      vertex 40.7729 -61.6287 51.8188
      vertex 42.7385 -63.7671 25
      vertex 40.4024 -61.6863 51.7993
    endloop
  endfacet
  facet normal -0.148173 0.984913 -0.0893887
    outer loop
      vertex 42.6933 -63.7739 25
      vertex 40.4024 -61.6863 51.7993
      vertex 42.7385 -63.7671 25
    endloop
  endfacet
  facet normal -0.148343 0.984887 -0.0894012
    outer loop
      vertex 40.4024 -61.6863 51.7993
      vertex 42.6933 -63.7739 25
      vertex 39.9558 -61.7557 51.7758
    endloop
  endfacet
  facet normal 0 0.997171 -0.0751608
    outer loop
      vertex 42.6933 -63.7739 25
      vertex -39.9558 -61.7557 51.7758
      vertex 39.9558 -61.7557 51.7758
    endloop
  endfacet
  facet normal 0 0.997171 -0.0751608
    outer loop
      vertex -39.9558 -61.7557 51.7758
      vertex 42.6933 -63.7739 25
      vertex -42.6933 -63.7739 25
    endloop
  endfacet
  facet normal 0.185104 0.97834 -0.092666
    outer loop
      vertex -42.7493 -63.7633 25
      vertex -40.9672 -61.558 51.8427
      vertex -40.5088 -61.6476 51.8124
    endloop
  endfacet
  facet normal 0.185109 0.978339 -0.0926663
    outer loop
      vertex -40.9672 -61.558 51.8427
      vertex -42.7493 -63.7633 25
      vertex -43.7815 -63.568 25
    endloop
  endfacet
  facet normal 0.185112 0.978339 -0.0926668
    outer loop
      vertex -42.6933 -63.7739 25
      vertex -40.5088 -61.6476 51.8124
      vertex -39.9558 -61.7557 51.7758
    endloop
  endfacet
  facet normal 0.185183 0.978325 -0.0926714
    outer loop
      vertex -40.5088 -61.6476 51.8124
      vertex -42.6933 -63.7739 25
      vertex -42.7493 -63.7633 25
    endloop
  endfacet
  facet normal 0.496434 0.860226 -0.116465
    outer loop
      vertex -43.8211 -63.5451 25
      vertex -41.6713 -61.132 51.987
      vertex -41.3537 -61.3241 51.9219
    endloop
  endfacet
  facet normal 0.496631 0.860112 -0.116471
    outer loop
      vertex -41.6713 -61.132 51.987
      vertex -43.8211 -63.5451 25
      vertex -44.5504 -63.124 25
    endloop
  endfacet
  facet normal 0.496645 0.860103 -0.116475
    outer loop
      vertex -43.7815 -63.568 25
      vertex -41.3537 -61.3241 51.9219
      vertex -40.9672 -61.558 51.8427
    endloop
  endfacet
  facet normal 0.497197 0.859781 -0.116498
    outer loop
      vertex -41.3537 -61.3241 51.9219
      vertex -43.7815 -63.568 25
      vertex -43.8211 -63.5451 25
    endloop
  endfacet
  facet normal 0.727089 0.674625 -0.127369
    outer loop
      vertex -41.9708 -60.7871 52.1038
      vertex -45.1543 -62.4732 25
      vertex -42.2133 -60.5079 52.1983
    endloop
  endfacet
  facet normal 0.727064 0.674652 -0.127367
    outer loop
      vertex -45.1543 -62.4732 25
      vertex -41.9708 -60.7871 52.1038
      vertex -44.5815 -63.0905 25
    endloop
  endfacet
  facet normal 0.727146 0.674563 -0.127368
    outer loop
      vertex -41.6713 -61.132 51.987
      vertex -44.5815 -63.0905 25
      vertex -41.9708 -60.7871 52.1038
    endloop
  endfacet
  facet normal 0.726903 0.674827 -0.127361
    outer loop
      vertex -44.5815 -63.0905 25
      vertex -41.6713 -61.132 51.987
      vertex -44.5504 -63.124 25
    endloop
  endfacet
  facet normal 0.893578 0.430356 -0.127719
    outer loop
      vertex -42.2133 -60.5079 52.1983
      vertex -45.5197 -61.7144 25
      vertex -42.3605 -60.1681 52.3134
    endloop
  endfacet
  facet normal 0.893599 0.430312 -0.12772
    outer loop
      vertex -45.5197 -61.7144 25
      vertex -42.2133 -60.5079 52.1983
      vertex -45.1543 -62.4732 25
    endloop
  endfacet
  facet normal 0.893649 0.430208 -0.127721
    outer loop
      vertex -42.3605 -60.1681 52.3134
      vertex -45.5396 -61.6732 25
      vertex -42.5451 -59.7418 52.4577
    endloop
  endfacet
  facet normal 0.893089 0.43137 -0.12772
    outer loop
      vertex -45.5396 -61.6732 25
      vertex -42.3605 -60.1681 52.3134
      vertex -45.5197 -61.7144 25
    endloop
  endfacet
  facet normal 0.981957 0.148162 -0.117508
    outer loop
      vertex -42.5451 -59.7418 52.4577
      vertex -45.6651 -60.8405 25
      vertex -42.5857 -59.3739 52.5823
    endloop
  endfacet
  facet normal 0.981982 0.147999 -0.117504
    outer loop
      vertex -45.6651 -60.8405 25
      vertex -42.5451 -59.7418 52.4577
      vertex -45.5396 -61.6732 25
    endloop
  endfacet
  facet normal 0.981973 0.14806 -0.117504
    outer loop
      vertex -42.5857 -59.3739 52.5823
      vertex -45.6719 -60.7953 25
      vertex -42.6377 -58.9022 52.7421
    endloop
  endfacet
  facet normal 0.982023 0.147738 -0.117493
    outer loop
      vertex -45.6719 -60.7953 25
      vertex -42.5857 -59.3739 52.5823
      vertex -45.6651 -60.8405 25
    endloop
  endfacet
  facet normal 0.994072 -5.79081e-07 -0.108725
    outer loop
      vertex -42.6377 -58.9022 52.7421
      vertex -45.6719 2.01474 25
      vertex -40.5248 -1.8524 72.0601
    endloop
  endfacet
  facet normal 0.994072 0 -0.108723
    outer loop
      vertex -45.6719 2.01474 25
      vertex -42.6377 -58.9022 52.7421
      vertex -45.6719 -60.7953 25
    endloop
  endfacet
  facet normal -0.329439 0.937385 0.113043
    outer loop
      vertex -45.7095 2.00158 25
      vertex -41.1811 -2.07306 71.9853
      vertex -41.1593 -2.0657 71.9878
    endloop
  endfacet
  facet normal -0.32817 0.93784 0.11296
    outer loop
      vertex -41.1811 -2.07306 71.9853
      vertex -45.7095 2.00158 25
      vertex -46.4022 1.75919 25
    endloop
  endfacet
  facet normal -0.328148 0.937848 0.112958
    outer loop
      vertex -45.6719 2.01474 25
      vertex -41.1593 -2.0657 71.9878
      vertex -40.5248 -1.8524 72.0601
    endloop
  endfacet
  facet normal -0.328236 0.937817 0.112963
    outer loop
      vertex -41.1593 -2.0657 71.9878
      vertex -45.6719 2.01474 25
      vertex -45.7095 2.00158 25
    endloop
  endfacet
  facet normal -0.528682 0.839238 0.12718
    outer loop
      vertex -46.4409 1.73483 25
      vertex -41.865 -2.48185 71.8469
      vertex -41.8402 -2.467 71.852
    endloop
  endfacet
  facet normal -0.527702 0.83986 0.12714
    outer loop
      vertex -41.865 -2.48185 71.8469
      vertex -46.4409 1.73483 25
      vertex -47.1552 1.28602 25
    endloop
  endfacet
  facet normal -0.527696 0.839865 0.12714
    outer loop
      vertex -46.4022 1.75919 25
      vertex -41.8402 -2.467 71.852
      vertex -41.1811 -2.07306 71.9853
    endloop
  endfacet
  facet normal -0.528384 0.839428 0.127168
    outer loop
      vertex -41.8402 -2.467 71.852
      vertex -46.4022 1.75919 25
      vertex -46.4409 1.73483 25
    endloop
  endfacet
  facet normal -0.700562 0.700616 0.135461
    outer loop
      vertex -47.1552 1.28602 25
      vertex -42.4444 -3.02561 71.6628
      vertex -41.865 -2.48185 71.8469
    endloop
  endfacet
  facet normal -0.700611 0.700567 0.135462
    outer loop
      vertex -42.4444 -3.02561 71.6628
      vertex -47.1552 1.28602 25
      vertex -47.784 0.657181 25
    endloop
  endfacet
  facet normal -0.838669 0.526984 0.13756
    outer loop
      vertex -42.4625 -3.05209 71.6538
      vertex -47.784 0.657181 25
      vertex -48.2328 -0.0570622 25
    endloop
  endfacet
  facet normal -0.838879 0.52665 0.137558
    outer loop
      vertex -47.784 0.657181 25
      vertex -42.4625 -3.05209 71.6538
      vertex -42.4444 -3.02561 71.6628
    endloop
  endfacet
  facet normal -0.838294 0.52758 0.137563
    outer loop
      vertex -42.8902 -3.67746 71.4421
      vertex -48.2328 -0.0570622 25
      vertex -48.2572 -0.0958324 25
    endloop
  endfacet
  facet normal -0.838657 0.527003 0.13756
    outer loop
      vertex -48.2328 -0.0570622 25
      vertex -42.8902 -3.67746 71.4421
      vertex -42.4625 -3.05209 71.6538
    endloop
  endfacet
  facet normal -0.935452 0.327334 0.133348
    outer loop
      vertex -42.9034 -3.71056 71.4309
      vertex -48.2572 -0.0958324 25
      vertex -48.5358 -0.892013 25
    endloop
  endfacet
  facet normal -0.935269 0.32785 0.133367
    outer loop
      vertex -48.2572 -0.0958324 25
      vertex -42.9034 -3.71056 71.4309
      vertex -42.8902 -3.67746 71.4421
    endloop
  endfacet
  facet normal -0.935606 0.3269 0.133333
    outer loop
      vertex -43.1799 -4.405 71.1957
      vertex -48.5358 -0.892013 25
      vertex -48.5509 -0.93523 25
    endloop
  endfacet
  facet normal -0.935463 0.327303 0.133347
    outer loop
      vertex -48.5358 -0.892013 25
      vertex -43.1799 -4.405 71.1957
      vertex -42.9034 -3.71056 71.4309
    endloop
  endfacet
  facet normal -0.986159 0.111176 0.123006
    outer loop
      vertex -43.186 -4.44406 71.1825
      vertex -48.5509 -0.93523 25
      vertex -48.6454 -1.77347 25
    endloop
  endfacet
  facet normal -0.986012 0.112391 0.123082
    outer loop
      vertex -48.5509 -0.93523 25
      vertex -43.186 -4.44406 71.1825
      vertex -43.1799 -4.405 71.1957
    endloop
  endfacet
  facet normal -0.986234 0.110545 0.122971
    outer loop
      vertex -43.2987 -5.17202 70.936
      vertex -48.6454 -1.77347 25
      vertex -48.6505 -1.81897 25
    endloop
  endfacet
  facet normal -0.986177 0.111026 0.123
    outer loop
      vertex -48.6454 -1.77347 25
      vertex -43.2987 -5.17202 70.936
      vertex -43.186 -4.44406 71.1825
    endloop
  endfacet
  facet normal -0.993282 2.54717e-07 0.115723
    outer loop
      vertex -48.6505 -1.81897 25
      vertex -45.4934 -60.803 52.0984
      vertex -43.2987 -5.17202 70.936
    endloop
  endfacet
  facet normal -0.993282 0 0.115722
    outer loop
      vertex -45.4934 -60.803 52.0984
      vertex -48.6505 -1.81897 25
      vertex -48.6505 -62.781 25
    endloop
  endfacet
  facet normal -0.986177 -0.111024 0.123001
    outer loop
      vertex -48.6454 -62.8265 25
      vertex -45.4337 -61.6509 51.8113
      vertex -45.4606 -61.2686 51.9407
    endloop
  endfacet
  facet normal -0.986158 -0.111181 0.123006
    outer loop
      vertex -45.4337 -61.6509 51.8113
      vertex -48.6454 -62.8265 25
      vertex -48.5509 -63.6647 25
    endloop
  endfacet
  facet normal -0.986164 -0.111134 0.123005
    outer loop
      vertex -48.6505 -62.781 25
      vertex -45.4606 -61.2686 51.9407
      vertex -45.4934 -60.803 52.0984
    endloop
  endfacet
  facet normal -0.986233 -0.110545 0.12298
    outer loop
      vertex -45.4606 -61.2686 51.9407
      vertex -48.6505 -62.781 25
      vertex -48.6454 -62.8265 25
    endloop
  endfacet
  facet normal -0.935488 -0.327232 0.133347
    outer loop
      vertex -48.5358 -63.708 25
      vertex -45.1904 -62.4575 51.5382
      vertex -45.3014 -62.0894 51.6628
    endloop
  endfacet
  facet normal -0.935455 -0.327327 0.133347
    outer loop
      vertex -45.1904 -62.4575 51.5382
      vertex -48.5358 -63.708 25
      vertex -48.2572 -64.5042 25
    endloop
  endfacet
  facet normal -0.935433 -0.327389 0.133348
    outer loop
      vertex -48.5509 -63.6647 25
      vertex -45.3014 -62.0894 51.6628
      vertex -45.4337 -61.6509 51.8113
    endloop
  endfacet
  facet normal -0.935801 -0.326342 0.133331
    outer loop
      vertex -45.3014 -62.0894 51.6628
      vertex -48.5509 -63.6647 25
      vertex -48.5358 -63.708 25
    endloop
  endfacet
  facet normal -0.83866 -0.526998 0.137561
    outer loop
      vertex -48.2328 -64.5429 25
      vertex -44.7753 -63.182 51.2928
      vertex -44.9668 -62.8477 51.406
    endloop
  endfacet
  facet normal -0.838687 -0.526954 0.137562
    outer loop
      vertex -44.7753 -63.182 51.2928
      vertex -48.2328 -64.5429 25
      vertex -47.784 -65.2572 25
    endloop
  endfacet
  facet normal -0.838571 -0.52714 0.137561
    outer loop
      vertex -48.2572 -64.5042 25
      vertex -44.9668 -62.8477 51.406
      vertex -45.1904 -62.4575 51.5382
    endloop
  endfacet
  facet normal -0.837864 -0.528266 0.137544
    outer loop
      vertex -44.9668 -62.8477 51.406
      vertex -48.2572 -64.5042 25
      vertex -48.2328 -64.5429 25
    endloop
  endfacet
  facet normal -0.700673 -0.700504 0.135467
    outer loop
      vertex -47.784 -65.2572 25
      vertex -44.2093 -63.7878 51.0877
      vertex -44.7753 -63.182 51.2928
    endloop
  endfacet
  facet normal -0.700589 -0.700589 0.13546
    outer loop
      vertex -44.2093 -63.7878 51.0877
      vertex -47.784 -65.2572 25
      vertex -47.1552 -65.886 25
    endloop
  endfacet
  facet normal -0.527688 -0.83987 0.127138
    outer loop
      vertex -47.1552 -65.886 25
      vertex -43.8863 -64.0017 51.0153
      vertex -44.2093 -63.7878 51.0877
    endloop
  endfacet
  facet normal -0.527694 -0.839866 0.127138
    outer loop
      vertex -43.8863 -64.0017 51.0153
      vertex -47.1552 -65.886 25
      vertex -46.4409 -66.3348 25
    endloop
  endfacet
  facet normal -0.527753 -0.839828 0.127141
    outer loop
      vertex -46.4409 -66.3348 25
      vertex -43.5205 -64.244 50.9332
      vertex -43.8863 -64.0017 51.0153
    endloop
  endfacet
  facet normal -0.529002 -0.839031 0.127217
    outer loop
      vertex -43.5205 -64.244 50.9332
      vertex -46.4409 -66.3348 25
      vertex -46.4022 -66.3592 25
    endloop
  endfacet
  facet normal -0.328163 -0.937843 0.112959
    outer loop
      vertex -45.606 -66.6378 25
      vertex -43.5205 -64.244 50.9332
      vertex -46.4022 -66.3592 25
    endloop
  endfacet
  facet normal -0.328203 -0.937829 0.112961
    outer loop
      vertex -43.5205 -64.244 50.9332
      vertex -45.606 -66.6378 25
      vertex -43.1543 -64.3776 50.888
    endloop
  endfacet
  facet normal -0.32785 -0.937955 0.112939
    outer loop
      vertex -45.5628 -66.6529 25
      vertex -43.1543 -64.3776 50.888
      vertex -45.606 -66.6378 25
    endloop
  endfacet
  facet normal -0.328132 -0.937854 0.112956
    outer loop
      vertex -43.1543 -64.3776 50.888
      vertex -45.5628 -66.6529 25
      vertex -42.7436 -64.5274 50.8373
    endloop
  endfacet
  facet normal -0.111411 -0.989362 0.0935461
    outer loop
      vertex -44.7245 -66.7473 25
      vertex -42.7436 -64.5274 50.8373
      vertex -45.5628 -66.6529 25
    endloop
  endfacet
  facet normal -0.111421 -0.989361 0.0935467
    outer loop
      vertex -42.7436 -64.5274 50.8373
      vertex -44.7245 -66.7473 25
      vertex -42.3534 -64.5728 50.8219
    endloop
  endfacet
  facet normal -0.113047 -0.989164 0.0936795
    outer loop
      vertex -44.679 -66.7525 25
      vertex -42.3534 -64.5728 50.8219
      vertex -44.7245 -66.7473 25
    endloop
  endfacet
  facet normal -0.111534 -0.989347 0.0935587
    outer loop
      vertex -42.3534 -64.5728 50.8219
      vertex -44.679 -66.7525 25
      vertex -41.9181 -64.6235 50.8047
    endloop
  endfacet
  facet normal 0 -0.996614 0.082225
    outer loop
      vertex -44.679 -66.7525 25
      vertex 41.9181 -64.6235 50.8047
      vertex -41.9181 -64.6235 50.8047
    endloop
  endfacet
  facet normal 0 -0.996614 0.082225
    outer loop
      vertex 41.9181 -64.6235 50.8047
      vertex -44.679 -66.7525 25
      vertex 44.679 -66.7525 25
    endloop
  endfacet
  facet normal 0.111421 -0.989361 0.0935467
    outer loop
      vertex 44.7245 -66.7473 25
      vertex 42.7436 -64.5274 50.8373
      vertex 42.3534 -64.5728 50.8219
    endloop
  endfacet
  facet normal 0.111411 -0.989362 0.0935461
    outer loop
      vertex 42.7436 -64.5274 50.8373
      vertex 44.7245 -66.7473 25
      vertex 45.5628 -66.6529 25
    endloop
  endfacet
  facet normal 0.111534 -0.989347 0.0935587
    outer loop
      vertex 44.679 -66.7525 25
      vertex 42.3534 -64.5728 50.8219
      vertex 41.9181 -64.6235 50.8047
    endloop
  endfacet
  facet normal 0.113047 -0.989164 0.0936795
    outer loop
      vertex 42.3534 -64.5728 50.8219
      vertex 44.679 -66.7525 25
      vertex 44.7245 -66.7473 25
    endloop
  endfacet
  facet normal -0.000954085 -0.319091 0.947724
    outer loop
      vertex -41.8402 -2.467 71.852
      vertex -41.1593 -2.0657 71.9878
      vertex -41.1811 -2.07306 71.9853
    endloop
  endfacet
  facet normal -0.000414442 -0.319913 0.947447
    outer loop
      vertex -41.1593 -2.0657 71.9878
      vertex -41.8402 -2.467 71.852
      vertex -40.5248 -1.8524 72.0601
    endloop
  endfacet
  facet normal -0.00733187 -0.31383 0.949451
    outer loop
      vertex -42.4625 -3.05209 71.6538
      vertex -41.8402 -2.467 71.852
      vertex -41.865 -2.48185 71.8469
    endloop
  endfacet
  facet normal 0.00324614 -0.323787 0.946124
    outer loop
      vertex -42.4625 -3.05209 71.6538
      vertex -41.865 -2.48185 71.8469
      vertex -42.4444 -3.02561 71.6628
    endloop
  endfacet
  facet normal 0.00013819 -0.320974 0.947088
    outer loop
      vertex -41.8402 -2.467 71.852
      vertex -42.4625 -3.05209 71.6538
      vertex -40.5248 -1.8524 72.0601
    endloop
  endfacet
  facet normal -5.79906e-05 -0.32069 0.947184
    outer loop
      vertex -43.2987 -5.17202 70.936
      vertex -40.5248 -1.8524 72.0601
      vertex -42.4625 -3.05209 71.6538
    endloop
  endfacet
  facet normal -7.89758e-06 -0.320728 0.947171
    outer loop
      vertex -40.5248 -1.8524 72.0601
      vertex -43.2987 -5.17202 70.936
      vertex -42.6377 -58.9022 52.7421
    endloop
  endfacet
  facet normal -0.000501741 -0.320338 0.947303
    outer loop
      vertex -42.9034 -3.71056 71.4309
      vertex -42.4625 -3.05209 71.6538
      vertex -42.8902 -3.67746 71.4421
    endloop
  endfacet
  facet normal 0.000289444 -0.320813 0.947143
    outer loop
      vertex -42.4625 -3.05209 71.6538
      vertex -42.9034 -3.71056 71.4309
      vertex -43.2987 -5.17202 70.936
    endloop
  endfacet
  facet normal -1.92978e-05 -0.320728 0.947171
    outer loop
      vertex -45.4934 -60.803 52.0984
      vertex -42.6377 -58.9022 52.7421
      vertex -43.2987 -5.17202 70.936
    endloop
  endfacet
  facet normal -0.00293084 -0.319742 0.9475
    outer loop
      vertex -43.186 -4.44406 71.1825
      vertex -42.9034 -3.71056 71.4309
      vertex -43.1799 -4.405 71.1957
    endloop
  endfacet
  facet normal -0.000134807 -0.32071 0.947177
    outer loop
      vertex -43.2987 -5.17202 70.936
      vertex -42.9034 -3.71056 71.4309
      vertex -43.186 -4.44406 71.1825
    endloop
  endfacet
  facet normal 3.3641e-05 -0.320799 0.947147
    outer loop
      vertex -45.4606 -61.2686 51.9407
      vertex -42.6377 -58.9022 52.7421
      vertex -45.4934 -60.803 52.0984
    endloop
  endfacet
  facet normal -5.85657e-05 -0.3207 0.947181
    outer loop
      vertex -45.3014 -62.0894 51.6628
      vertex -42.6377 -58.9022 52.7421
      vertex -45.4606 -61.2686 51.9407
    endloop
  endfacet
  facet normal -5.75762e-05 -0.320729 0.947171
    outer loop
      vertex -42.6377 -58.9022 52.7421
      vertex -43.1543 -64.3776 50.888
      vertex -42.7436 -64.5274 50.8373
    endloop
  endfacet
  facet normal 1.40266e-05 -0.320735 0.947169
    outer loop
      vertex -42.6377 -58.9022 52.7421
      vertex -43.8863 -64.0017 51.0153
      vertex -43.1543 -64.3776 50.888
    endloop
  endfacet
  facet normal -0.000394361 -0.321448 0.946927
    outer loop
      vertex -43.1543 -64.3776 50.888
      vertex -43.8863 -64.0017 51.0153
      vertex -43.5205 -64.244 50.9332
    endloop
  endfacet
  facet normal -4.80407e-05 -0.320721 0.947174
    outer loop
      vertex -42.6377 -58.9022 52.7421
      vertex -44.9668 -62.8477 51.406
      vertex -43.8863 -64.0017 51.0153
    endloop
  endfacet
  facet normal -0.000150476 -0.320806 0.947145
    outer loop
      vertex -44.2093 -63.7878 51.0877
      vertex -44.9668 -62.8477 51.406
      vertex -44.7753 -63.182 51.2928
    endloop
  endfacet
  facet normal -0.000141313 -0.3208 0.947147
    outer loop
      vertex -43.8863 -64.0017 51.0153
      vertex -44.9668 -62.8477 51.406
      vertex -44.2093 -63.7878 51.0877
    endloop
  endfacet
  facet normal 0.00106646 -0.320336 0.947303
    outer loop
      vertex -44.9668 -62.8477 51.406
      vertex -45.3014 -62.0894 51.6628
      vertex -45.1904 -62.4575 51.5382
    endloop
  endfacet
  facet normal 0.000724171 -0.320564 0.947227
    outer loop
      vertex -45.3014 -62.0894 51.6628
      vertex -45.4606 -61.2686 51.9407
      vertex -45.4337 -61.6509 51.8113
    endloop
  endfacet
  facet normal 1.2205e-05 -0.320753 0.947163
    outer loop
      vertex -42.6377 -58.9022 52.7421
      vertex -45.3014 -62.0894 51.6628
      vertex -44.9668 -62.8477 51.406
    endloop
  endfacet
  facet normal 4.74199e-05 -0.320613 0.94721
    outer loop
      vertex 42.0959 -60.6797 52.1402
      vertex 45.4337 -61.6509 51.8113
      vertex 45.4606 -61.2686 51.9407
    endloop
  endfacet
  facet normal -6.12755e-06 -0.320801 0.947147
    outer loop
      vertex 42.2684 -60.3521 52.2511
      vertex 45.4606 -61.2686 51.9407
      vertex 45.4934 -60.803 52.0984
    endloop
  endfacet
  facet normal 3.71289e-05 -0.320666 0.947192
    outer loop
      vertex 42.0959 -60.6797 52.1402
      vertex 45.4606 -61.2686 51.9407
      vertex 42.2684 -60.3521 52.2511
    endloop
  endfacet
  facet normal 5.83451e-05 -0.32064 0.947201
    outer loop
      vertex 45.3014 -62.0894 51.6628
      vertex 42.0959 -60.6797 52.1402
      vertex 45.1904 -62.4575 51.5382
    endloop
  endfacet
  facet normal -7.36229e-05 -0.320846 0.947131
    outer loop
      vertex 45.1904 -62.4575 51.5382
      vertex 42.0959 -60.6797 52.1402
      vertex 44.9668 -62.8477 51.406
    endloop
  endfacet
  facet normal 1.75392e-05 -0.320738 0.947168
    outer loop
      vertex 44.9668 -62.8477 51.406
      vertex 42.0959 -60.6797 52.1402
      vertex 44.7753 -63.182 51.2928
    endloop
  endfacet
  facet normal -9.26867e-05 -0.320844 0.947132
    outer loop
      vertex 41.8324 -60.9394 52.0522
      vertex 44.7753 -63.182 51.2928
      vertex 42.0959 -60.6797 52.1402
    endloop
  endfacet
  facet normal 2.70798e-05 -0.320703 0.94718
    outer loop
      vertex 44.7753 -63.182 51.2928
      vertex 41.8324 -60.9394 52.0522
      vertex 44.2093 -63.7878 51.0877
    endloop
  endfacet
  facet normal 1.92978e-05 -0.320728 0.947171
    outer loop
      vertex 42.6377 -58.9022 52.7421
      vertex 45.4934 -60.803 52.0984
      vertex 43.2987 -5.17202 70.936
    endloop
  endfacet
  facet normal 7.7758e-06 -0.320728 0.947171
    outer loop
      vertex 40.5248 -1.8524 72.0601
      vertex 43.2987 -5.17202 70.936
      vertex 43.186 -4.44406 71.1825
    endloop
  endfacet
  facet normal 0.00293084 -0.319742 0.9475
    outer loop
      vertex 42.9034 -3.71056 71.4309
      vertex 43.186 -4.44406 71.1825
      vertex 43.1799 -4.405 71.1957
    endloop
  endfacet
  facet normal -6.29929e-05 -0.320839 0.947134
    outer loop
      vertex 42.5514 -59.4861 52.5443
      vertex 45.4934 -60.803 52.0984
      vertex 42.6377 -58.9022 52.7421
    endloop
  endfacet
  facet normal -3.78556e-05 -0.32077 0.947157
    outer loop
      vertex 43.186 -4.44406 71.1825
      vertex 42.9034 -3.71056 71.4309
      vertex 40.5248 -1.8524 72.0601
    endloop
  endfacet
  facet normal 0.000501741 -0.320338 0.947303
    outer loop
      vertex 42.4625 -3.05209 71.6538
      vertex 42.9034 -3.71056 71.4309
      vertex 42.8902 -3.67746 71.4421
    endloop
  endfacet
  facet normal 3.42732e-05 -0.320644 0.9472
    outer loop
      vertex 42.4838 -59.9431 52.3896
      vertex 45.4934 -60.803 52.0984
      vertex 42.5514 -59.4861 52.5443
    endloop
  endfacet
  facet normal 3.11007e-06 -0.320741 0.947167
    outer loop
      vertex 42.2684 -60.3521 52.2511
      vertex 45.4934 -60.803 52.0984
      vertex 42.4838 -59.9431 52.3896
    endloop
  endfacet
  facet normal 0.000159095 -0.320543 0.947234
    outer loop
      vertex 42.9034 -3.71056 71.4309
      vertex 42.4625 -3.05209 71.6538
      vertex 40.5248 -1.8524 72.0601
    endloop
  endfacet
  facet normal -0.00280794 -0.323519 0.946218
    outer loop
      vertex 41.8402 -2.467 71.852
      vertex 42.4625 -3.05209 71.6538
      vertex 42.4444 -3.02561 71.6628
    endloop
  endfacet
  facet normal 0.00764386 -0.313361 0.949603
    outer loop
      vertex 41.8402 -2.467 71.852
      vertex 42.4444 -3.02561 71.6628
      vertex 41.865 -2.48185 71.8469
    endloop
  endfacet
  facet normal -0.00013819 -0.320974 0.947088
    outer loop
      vertex 42.4625 -3.05209 71.6538
      vertex 41.8402 -2.467 71.852
      vertex 40.5248 -1.8524 72.0601
    endloop
  endfacet
  facet normal 0.000954085 -0.319091 0.947724
    outer loop
      vertex 41.1593 -2.0657 71.9878
      vertex 41.8402 -2.467 71.852
      vertex 41.1811 -2.07306 71.9853
    endloop
  endfacet
  facet normal 0.000414442 -0.319913 0.947447
    outer loop
      vertex 40.5248 -1.8524 72.0601
      vertex 41.8402 -2.467 71.852
      vertex 41.1593 -2.0657 71.9878
    endloop
  endfacet
  facet normal 7.89758e-06 -0.320728 0.947171
    outer loop
      vertex 43.2987 -5.17202 70.936
      vertex 40.5248 -1.8524 72.0601
      vertex 42.6377 -58.9022 52.7421
    endloop
  endfacet
  facet normal -3.27199e-07 -0.32076 0.94716
    outer loop
      vertex 45.4337 -61.6509 51.8113
      vertex 42.0959 -60.6797 52.1402
      vertex 45.3014 -62.0894 51.6628
    endloop
  endfacet
  facet normal 5.46317e-05 -0.320682 0.947187
    outer loop
      vertex 44.2093 -63.7878 51.0877
      vertex 41.8324 -60.9394 52.0522
      vertex 43.8863 -64.0017 51.0153
    endloop
  endfacet
  facet normal -2.94716e-05 -0.320733 0.94717
    outer loop
      vertex 41.5082 -61.2589 51.944
      vertex 43.8863 -64.0017 51.0153
      vertex 41.8324 -60.9394 52.0522
    endloop
  endfacet
  facet normal -9.58647e-05 -0.320785 0.947152
    outer loop
      vertex 43.8863 -64.0017 51.0153
      vertex 41.5082 -61.2589 51.944
      vertex 43.5205 -64.244 50.9332
    endloop
  endfacet
  facet normal 8.09221e-05 -0.320678 0.947188
    outer loop
      vertex 43.5205 -64.244 50.9332
      vertex 41.5082 -61.2589 51.944
      vertex 43.1543 -64.3776 50.888
    endloop
  endfacet
  facet normal 4.38482e-05 -0.320695 0.947182
    outer loop
      vertex 43.1543 -64.3776 50.888
      vertex 41.5082 -61.2589 51.944
      vertex 42.7436 -64.5274 50.8373
    endloop
  endfacet
  facet normal -6.45363e-05 -0.320732 0.94717
    outer loop
      vertex 42.7436 -64.5274 50.8373
      vertex 41.5082 -61.2589 51.944
      vertex 42.3534 -64.5728 50.8219
    endloop
  endfacet
  facet normal 0.000118503 -0.32069 0.947184
    outer loop
      vertex 41.1761 -61.4259 51.8875
      vertex 42.3534 -64.5728 50.8219
      vertex 41.5082 -61.2589 51.944
    endloop
  endfacet
  facet normal -6.67603e-05 -0.320752 0.947163
    outer loop
      vertex 42.3534 -64.5728 50.8219
      vertex 41.1761 -61.4259 51.8875
      vertex 41.9181 -64.6235 50.8047
    endloop
  endfacet
  facet normal -5.47872e-05 -0.32075 0.947164
    outer loop
      vertex 40.7729 -61.6287 51.8188
      vertex 41.9181 -64.6235 50.8047
      vertex 41.1761 -61.4259 51.8875
    endloop
  endfacet
  facet normal 1.09258e-05 -0.320727 0.947172
    outer loop
      vertex 40.4024 -61.6863 51.7993
      vertex 41.9181 -64.6235 50.8047
      vertex 40.7729 -61.6287 51.8188
    endloop
  endfacet
  facet normal 6.95199e-07 -0.320732 0.94717
    outer loop
      vertex 39.9558 -61.7557 51.7758
      vertex 41.9181 -64.6235 50.8047
      vertex 40.4024 -61.6863 51.7993
    endloop
  endfacet
  facet normal 0 -0.320732 0.94717
    outer loop
      vertex -39.9558 -61.7557 51.7758
      vertex 41.9181 -64.6235 50.8047
      vertex 39.9558 -61.7557 51.7758
    endloop
  endfacet
  facet normal -7.63566e-05 -0.320699 0.947181
    outer loop
      vertex -41.9181 -64.6235 50.8047
      vertex -40.5088 -61.6476 51.8124
      vertex -40.9672 -61.558 51.8427
    endloop
  endfacet
  facet normal 0 -0.320732 0.94717
    outer loop
      vertex -39.9558 -61.7557 51.7758
      vertex -41.9181 -64.6235 50.8047
      vertex 41.9181 -64.6235 50.8047
    endloop
  endfacet
  facet normal -7.60153e-06 -0.320728 0.947171
    outer loop
      vertex -40.5088 -61.6476 51.8124
      vertex -41.9181 -64.6235 50.8047
      vertex -39.9558 -61.7557 51.7758
    endloop
  endfacet
  facet normal 4.4769e-06 -0.320713 0.947177
    outer loop
      vertex -42.3534 -64.5728 50.8219
      vertex -40.9672 -61.558 51.8427
      vertex -41.3537 -61.3241 51.9219
    endloop
  endfacet
  facet normal 0.000135079 -0.320757 0.947162
    outer loop
      vertex -42.7436 -64.5274 50.8373
      vertex -41.3537 -61.3241 51.9219
      vertex -41.6713 -61.132 51.987
    endloop
  endfacet
  facet normal 3.49633e-05 -0.320728 0.947171
    outer loop
      vertex -42.7436 -64.5274 50.8373
      vertex -41.6713 -61.132 51.987
      vertex -41.9708 -60.7871 52.1038
    endloop
  endfacet
  facet normal -0.000125232 -0.320698 0.947181
    outer loop
      vertex -42.7436 -64.5274 50.8373
      vertex -41.9708 -60.7871 52.1038
      vertex -42.2133 -60.5079 52.1983
    endloop
  endfacet
  facet normal 6.85051e-05 -0.320739 0.947168
    outer loop
      vertex -40.9672 -61.558 51.8427
      vertex -42.3534 -64.5728 50.8219
      vertex -41.9181 -64.6235 50.8047
    endloop
  endfacet
  facet normal 0.00021677 -0.320739 0.947168
    outer loop
      vertex -42.7436 -64.5274 50.8373
      vertex -42.2133 -60.5079 52.1983
      vertex -42.3605 -60.1681 52.3134
    endloop
  endfacet
  facet normal -0.000209818 -0.320705 0.947179
    outer loop
      vertex -42.7436 -64.5274 50.8373
      vertex -42.3605 -60.1681 52.3134
      vertex -42.5451 -59.7418 52.4577
    endloop
  endfacet
  facet normal 0.000498168 -0.320732 0.94717
    outer loop
      vertex -42.7436 -64.5274 50.8373
      vertex -42.5451 -59.7418 52.4577
      vertex -42.5857 -59.3739 52.5823
    endloop
  endfacet
  facet normal 0.0011417 -0.320749 0.947164
    outer loop
      vertex -42.7436 -64.5274 50.8373
      vertex -42.5857 -59.3739 52.5823
      vertex -42.6377 -58.9022 52.7421
    endloop
  endfacet
  facet normal 6.49083e-05 -0.320729 0.947171
    outer loop
      vertex -41.3537 -61.3241 51.9219
      vertex -42.7436 -64.5274 50.8373
      vertex -42.3534 -64.5728 50.8219
    endloop
  endfacet
  facet normal 0.680164 -0.73306 0
    outer loop
      vertex 47.69 -66.4787 22
      vertex 48.3455 -65.8705 25
      vertex 47.69 -66.4787 25
    endloop
  endfacet
  facet normal 0.680164 -0.73306 0
    outer loop
      vertex 48.3455 -65.8705 25
      vertex 47.69 -66.4787 22
      vertex 48.3455 -65.8705 22
    endloop
  endfacet
  facet normal 0 -1 0
    outer loop
      vertex -46 -67 22
      vertex 46 -67 25
      vertex -46 -67 25
    endloop
  endfacet
  facet normal 0 -1 -0
    outer loop
      vertex 46 -67 25
      vertex -46 -67 22
      vertex 46 -67 22
    endloop
  endfacet
  facet normal 0.433879 -0.900971 0
    outer loop
      vertex 46.8843 -66.8667 22
      vertex 47.69 -66.4787 25
      vertex 46.8843 -66.8667 25
    endloop
  endfacet
  facet normal 0.433879 -0.900971 0
    outer loop
      vertex 47.69 -66.4787 25
      vertex 46.8843 -66.8667 22
      vertex 47.69 -66.4787 22
    endloop
  endfacet
  facet normal -0.185934 -0.982562 0
    outer loop
      vertex -47.096 -66.7926 22
      vertex -46 -67 25
      vertex -47.096 -66.7926 25
    endloop
  endfacet
  facet normal -0.185934 -0.982562 -0
    outer loop
      vertex -46 -67 25
      vertex -47.096 -66.7926 22
      vertex -46 -67 22
    endloop
  endfacet
  facet normal -1 0 0
    outer loop
      vertex -49 -64 22
      vertex -49 72.1 25
      vertex -49 72.1 22
    endloop
  endfacet
  facet normal -1 -0 0
    outer loop
      vertex -49 72.1 25
      vertex -49 -64 22
      vertex -49 -64 25
    endloop
  endfacet
  facet normal 0 1 -0
    outer loop
      vertex 46 75.1 22
      vertex -46 75.1 25
      vertex 46 75.1 25
    endloop
  endfacet
  facet normal 0 1 0
    outer loop
      vertex -46 75.1 25
      vertex 46 75.1 22
      vertex -46 75.1 22
    endloop
  endfacet
  facet normal -0.733112 -0.680108 0
    outer loop
      vertex -47.8705 -66.3455 22
      vertex -48.4787 -65.6899 25
      vertex -48.4787 -65.6899 22
    endloop
  endfacet
  facet normal -0.733112 -0.680108 0
    outer loop
      vertex -48.4787 -65.6899 25
      vertex -47.8705 -66.3455 22
      vertex -47.8705 -66.3455 25
    endloop
  endfacet
  facet normal 0.149057 -0.988829 0
    outer loop
      vertex 46 -67 22
      vertex 46.8843 -66.8667 25
      vertex 46 -67 25
    endloop
  endfacet
  facet normal 0.149057 -0.988829 0
    outer loop
      vertex 46.8843 -66.8667 25
      vertex 46 -67 22
      vertex 46.8843 -66.8667 22
    endloop
  endfacet
  facet normal -0.982562 0.185934 0
    outer loop
      vertex -49 72.1 22
      vertex -48.7926 73.196 25
      vertex -48.7926 73.196 22
    endloop
  endfacet
  facet normal -0.982562 0.185934 0
    outer loop
      vertex -48.7926 73.196 25
      vertex -49 72.1 22
      vertex -49 72.1 25
    endloop
  endfacet
  facet normal 0.185934 0.982562 -0
    outer loop
      vertex 47.096 74.8926 22
      vertex 46 75.1 25
      vertex 47.096 74.8926 25
    endloop
  endfacet
  facet normal 0.185934 0.982562 0
    outer loop
      vertex 46 75.1 25
      vertex 47.096 74.8926 22
      vertex 46 75.1 22
    endloop
  endfacet
  facet normal 0.982562 -0.185934 0
    outer loop
      vertex 48.7926 -65.096 25
      vertex 49 -64 22
      vertex 49 -64 25
    endloop
  endfacet
  facet normal 0.982562 -0.185934 0
    outer loop
      vertex 49 -64 22
      vertex 48.7926 -65.096 25
      vertex 48.7926 -65.096 22
    endloop
  endfacet
  facet normal -0.866053 0.499952 0
    outer loop
      vertex -48.7926 73.196 22
      vertex -48.3455 73.9705 25
      vertex -48.3455 73.9705 22
    endloop
  endfacet
  facet normal -0.866053 0.499952 0
    outer loop
      vertex -48.3455 73.9705 25
      vertex -48.7926 73.196 22
      vertex -48.7926 73.196 25
    endloop
  endfacet
  facet normal 1 -0 0
    outer loop
      vertex 49 -64 25
      vertex 49 72.1 22
      vertex 49 72.1 25
    endloop
  endfacet
  facet normal 1 0 0
    outer loop
      vertex 49 72.1 22
      vertex 49 -64 25
      vertex 49 -64 22
    endloop
  endfacet
  facet normal -0.149057 0.988829 0
    outer loop
      vertex -46 75.1 22
      vertex -46.8843 74.9667 25
      vertex -46 75.1 25
    endloop
  endfacet
  facet normal -0.149057 0.988829 0
    outer loop
      vertex -46.8843 74.9667 25
      vertex -46 75.1 22
      vertex -46.8843 74.9667 22
    endloop
  endfacet
  facet normal 0.988829 0.149057 0
    outer loop
      vertex 49 72.1 25
      vertex 48.8667 72.9843 22
      vertex 48.8667 72.9843 25
    endloop
  endfacet
  facet normal 0.988829 0.149057 0
    outer loop
      vertex 48.8667 72.9843 22
      vertex 49 72.1 25
      vertex 49 72.1 22
    endloop
  endfacet
  facet normal -0.680164 0.73306 0
    outer loop
      vertex -47.69 74.5787 22
      vertex -48.3455 73.9705 25
      vertex -47.69 74.5787 25
    endloop
  endfacet
  facet normal -0.680164 0.73306 0
    outer loop
      vertex -48.3455 73.9705 25
      vertex -47.69 74.5787 22
      vertex -48.3455 73.9705 22
    endloop
  endfacet
  facet normal 0.733112 0.680108 0
    outer loop
      vertex 48.4787 73.7899 25
      vertex 47.8705 74.4455 22
      vertex 47.8705 74.4455 25
    endloop
  endfacet
  facet normal 0.733112 0.680108 0
    outer loop
      vertex 47.8705 74.4455 22
      vertex 48.4787 73.7899 25
      vertex 48.4787 73.7899 22
    endloop
  endfacet
  facet normal -0.499952 -0.866053 0
    outer loop
      vertex -47.8705 -66.3455 22
      vertex -47.096 -66.7926 25
      vertex -47.8705 -66.3455 25
    endloop
  endfacet
  facet normal -0.499952 -0.866053 -0
    outer loop
      vertex -47.096 -66.7926 25
      vertex -47.8705 -66.3455 22
      vertex -47.096 -66.7926 22
    endloop
  endfacet
  facet normal -0.433879 0.900971 0
    outer loop
      vertex -46.8843 74.9667 22
      vertex -47.69 74.5787 25
      vertex -46.8843 74.9667 25
    endloop
  endfacet
  facet normal -0.433879 0.900971 0
    outer loop
      vertex -47.69 74.5787 25
      vertex -46.8843 74.9667 22
      vertex -47.69 74.5787 22
    endloop
  endfacet
  facet normal 0.90095 0.433923 0
    outer loop
      vertex 48.8667 72.9843 25
      vertex 48.4787 73.7899 22
      vertex 48.4787 73.7899 25
    endloop
  endfacet
  facet normal 0.90095 0.433923 0
    outer loop
      vertex 48.4787 73.7899 22
      vertex 48.8667 72.9843 25
      vertex 48.8667 72.9843 22
    endloop
  endfacet
  facet normal -0.988826 -0.149073 0
    outer loop
      vertex -48.8667 -64.8842 22
      vertex -49 -64 25
      vertex -49 -64 22
    endloop
  endfacet
  facet normal -0.988826 -0.149073 0
    outer loop
      vertex -49 -64 25
      vertex -48.8667 -64.8842 22
      vertex -48.8667 -64.8842 25
    endloop
  endfacet
  facet normal 0 0 1
    outer loop
      vertex 46 75.1 25
      vertex 49 72.1 25
      vertex 48.8667 72.9843 25
    endloop
  endfacet
  facet normal 0 0 1
    outer loop
      vertex 49 72.1 25
      vertex 48.6505 -1.81897 25
      vertex 49 -64 25
    endloop
  endfacet
  facet normal -0 0 1
    outer loop
      vertex 48.6505 -62.781 25
      vertex 49 -64 25
      vertex 48.6505 -1.81897 25
    endloop
  endfacet
  facet normal 0 0 1
    outer loop
      vertex 49 72.1 25
      vertex 48.6454 -1.77347 25
      vertex 48.6505 -1.81897 25
    endloop
  endfacet
  facet normal 0 0 1
    outer loop
      vertex 49 72.1 25
      vertex 48.5509 -0.93523 25
      vertex 48.6454 -1.77347 25
    endloop
  endfacet
  facet normal 0 0 1
    outer loop
      vertex 49 72.1 25
      vertex 48.5358 -0.892013 25
      vertex 48.5509 -0.93523 25
    endloop
  endfacet
  facet normal 0 0 1
    outer loop
      vertex 46 75.1 25
      vertex 48.8667 72.9843 25
      vertex 48.4787 73.7899 25
    endloop
  endfacet
  facet normal 0 0 1
    outer loop
      vertex 49 72.1 25
      vertex 48.2572 -0.0958324 25
      vertex 48.5358 -0.892013 25
    endloop
  endfacet
  facet normal 0 0 1
    outer loop
      vertex 49 72.1 25
      vertex 48.2328 -0.0570622 25
      vertex 48.2572 -0.0958324 25
    endloop
  endfacet
  facet normal 0 0 1
    outer loop
      vertex 46 75.1 25
      vertex 48.4787 73.7899 25
      vertex 47.8705 74.4455 25
    endloop
  endfacet
  facet normal 0 0 1
    outer loop
      vertex 49 72.1 25
      vertex 47.784 0.657181 25
      vertex 48.2328 -0.0570622 25
    endloop
  endfacet
  facet normal 0 0 1
    outer loop
      vertex 49 72.1 25
      vertex 47.1552 1.28602 25
      vertex 47.784 0.657181 25
    endloop
  endfacet
  facet normal 0 0 1
    outer loop
      vertex 46 75.1 25
      vertex 47.8705 74.4455 25
      vertex 47.096 74.8926 25
    endloop
  endfacet
  facet normal 0 0 1
    outer loop
      vertex 49 72.1 25
      vertex 46.4409 1.73483 25
      vertex 47.1552 1.28602 25
    endloop
  endfacet
  facet normal 0 0 1
    outer loop
      vertex 49 72.1 25
      vertex 46.4022 1.75919 25
      vertex 46.4409 1.73483 25
    endloop
  endfacet
  facet normal 0 0 1
    outer loop
      vertex 49 72.1 25
      vertex 46 75.1 25
      vertex 45.6719 2.01474 25
    endloop
  endfacet
  facet normal 0 0 1
    outer loop
      vertex 49 72.1 25
      vertex 45.7095 2.00158 25
      vertex 46.4022 1.75919 25
    endloop
  endfacet
  facet normal 0 0 1
    outer loop
      vertex 49 72.1 25
      vertex 45.6719 2.01474 25
      vertex 45.7095 2.00158 25
    endloop
  endfacet
  facet normal 0 0 1
    outer loop
      vertex 42.6933 -63.7739 25
      vertex 45.6719 -60.7953 25
      vertex 45.6719 2.01474 25
    endloop
  endfacet
  facet normal 0 0 1
    outer loop
      vertex 45.6719 -60.7953 25
      vertex 42.6933 -63.7739 25
      vertex 45.6613 -60.8513 25
    endloop
  endfacet
  facet normal 0 -0 1
    outer loop
      vertex 42.7385 -63.7671 25
      vertex 45.6613 -60.8513 25
      vertex 42.6933 -63.7739 25
    endloop
  endfacet
  facet normal 0 0 1
    outer loop
      vertex 45.6613 -60.8513 25
      vertex 45.4431 -61.9231 25
      vertex 45.466 -61.8835 25
    endloop
  endfacet
  facet normal 0 0 1
    outer loop
      vertex -45.6719 2.01474 25
      vertex 45.6719 2.01474 25
      vertex 46 75.1 25
    endloop
  endfacet
  facet normal 0 -0 1
    outer loop
      vertex 42.6933 -63.7739 25
      vertex 45.6719 2.01474 25
      vertex -45.6719 2.01474 25
    endloop
  endfacet
  facet normal 0 0 1
    outer loop
      vertex 45.6613 -60.8513 25
      vertex 42.7385 -63.7671 25
      vertex 45.4431 -61.9231 25
    endloop
  endfacet
  facet normal 0 -0 1
    outer loop
      vertex 44.4047 -63.2252 25
      vertex 45.4431 -61.9231 25
      vertex 42.7385 -63.7671 25
    endloop
  endfacet
  facet normal 0 0 1
    outer loop
      vertex 44.4047 -63.2252 25
      vertex 43.6124 -63.6217 25
      vertex 44.3712 -63.2563 25
    endloop
  endfacet
  facet normal 0 0 1
    outer loop
      vertex 43.6124 -63.6217 25
      vertex 42.7385 -63.7671 25
      vertex 43.5712 -63.6415 25
    endloop
  endfacet
  facet normal 0 -0 1
    outer loop
      vertex 43.6124 -63.6217 25
      vertex 44.4047 -63.2252 25
      vertex 42.7385 -63.7671 25
    endloop
  endfacet
  facet normal 0 0 1
    outer loop
      vertex 45.4431 -61.9231 25
      vertex 44.4047 -63.2252 25
      vertex 45.022 -62.6524 25
    endloop
  endfacet
  facet normal 0 0 1
    outer loop
      vertex 42.6933 -63.7739 25
      vertex -45.6719 2.01474 25
      vertex -42.6933 -63.7739 25
    endloop
  endfacet
  facet normal -0 0 1
    outer loop
      vertex -45.6719 -60.7953 25
      vertex -42.6933 -63.7739 25
      vertex -45.6719 2.01474 25
    endloop
  endfacet
  facet normal 0 0 1
    outer loop
      vertex -42.6933 -63.7739 25
      vertex -45.6719 -60.7953 25
      vertex -42.7493 -63.7633 25
    endloop
  endfacet
  facet normal -0 -0 1
    outer loop
      vertex -45.6651 -60.8405 25
      vertex -42.7493 -63.7633 25
      vertex -45.6719 -60.7953 25
    endloop
  endfacet
  facet normal 0 0 1
    outer loop
      vertex -42.7493 -63.7633 25
      vertex -43.8211 -63.5451 25
      vertex -43.7815 -63.568 25
    endloop
  endfacet
  facet normal 0 0 1
    outer loop
      vertex -42.7493 -63.7633 25
      vertex -45.6651 -60.8405 25
      vertex -43.8211 -63.5451 25
    endloop
  endfacet
  facet normal 0 0 1
    outer loop
      vertex -43.8211 -63.5451 25
      vertex -45.6651 -60.8405 25
      vertex -44.5815 -63.0905 25
    endloop
  endfacet
  facet normal -0 -0 1
    outer loop
      vertex -45.5197 -61.7144 25
      vertex -44.5815 -63.0905 25
      vertex -45.6651 -60.8405 25
    endloop
  endfacet
  facet normal 0 0 1
    outer loop
      vertex -45.5197 -61.7144 25
      vertex -45.6651 -60.8405 25
      vertex -45.5396 -61.6732 25
    endloop
  endfacet
  facet normal 0 0 1
    outer loop
      vertex -43.8211 -63.5451 25
      vertex -44.5815 -63.0905 25
      vertex -44.5504 -63.124 25
    endloop
  endfacet
  facet normal -0 0 1
    outer loop
      vertex -46 75.1 25
      vertex -45.6719 2.01474 25
      vertex 46 75.1 25
    endloop
  endfacet
  facet normal -0 0 1
    outer loop
      vertex -49 72.1 25
      vertex -45.6719 2.01474 25
      vertex -46 75.1 25
    endloop
  endfacet
  facet normal 0 0 1
    outer loop
      vertex -45.6719 2.01474 25
      vertex -49 72.1 25
      vertex -45.7095 2.00158 25
    endloop
  endfacet
  facet normal 0 0 1
    outer loop
      vertex -45.7095 2.00158 25
      vertex -49 72.1 25
      vertex -46.4022 1.75919 25
    endloop
  endfacet
  facet normal 0 0 1
    outer loop
      vertex -49 72.1 25
      vertex -46 75.1 25
      vertex -46.8843 74.9667 25
    endloop
  endfacet
  facet normal 0 0 1
    outer loop
      vertex -46.4022 1.75919 25
      vertex -49 72.1 25
      vertex -46.4409 1.73483 25
    endloop
  endfacet
  facet normal 0 0 1
    outer loop
      vertex -49 72.1 25
      vertex -46.8843 74.9667 25
      vertex -47.69 74.5787 25
    endloop
  endfacet
  facet normal 0 0 1
    outer loop
      vertex -46.4409 1.73483 25
      vertex -49 72.1 25
      vertex -47.1552 1.28602 25
    endloop
  endfacet
  facet normal 0 0 1
    outer loop
      vertex -47.1552 1.28602 25
      vertex -49 72.1 25
      vertex -47.784 0.657181 25
    endloop
  endfacet
  facet normal 0 0 1
    outer loop
      vertex -47.784 0.657181 25
      vertex -49 72.1 25
      vertex -48.2328 -0.0570622 25
    endloop
  endfacet
  facet normal 0 0 1
    outer loop
      vertex -49 72.1 25
      vertex -47.69 74.5787 25
      vertex -48.3455 73.9705 25
    endloop
  endfacet
  facet normal 0 0 1
    outer loop
      vertex -48.2328 -0.0570622 25
      vertex -49 72.1 25
      vertex -48.2572 -0.0958324 25
    endloop
  endfacet
  facet normal 0 0 1
    outer loop
      vertex -48.2572 -0.0958324 25
      vertex -49 72.1 25
      vertex -48.5358 -0.892013 25
    endloop
  endfacet
  facet normal 0 0 1
    outer loop
      vertex -48.5358 -0.892013 25
      vertex -49 72.1 25
      vertex -48.5509 -0.93523 25
    endloop
  endfacet
  facet normal 0 0 1
    outer loop
      vertex -48.5509 -0.93523 25
      vertex -49 72.1 25
      vertex -48.6454 -1.77347 25
    endloop
  endfacet
  facet normal 0 0 1
    outer loop
      vertex -48.6454 -1.77347 25
      vertex -49 72.1 25
      vertex -48.6505 -1.81897 25
    endloop
  endfacet
  facet normal 0 0 1
    outer loop
      vertex -49 72.1 25
      vertex -48.3455 73.9705 25
      vertex -48.7926 73.196 25
    endloop
  endfacet
  facet normal -0 0 1
    outer loop
      vertex 48.6454 -62.8265 25
      vertex 49 -64 25
      vertex 48.6505 -62.781 25
    endloop
  endfacet
  facet normal -0 0 1
    outer loop
      vertex 48.5509 -63.6647 25
      vertex 49 -64 25
      vertex 48.6454 -62.8265 25
    endloop
  endfacet
  facet normal -0 0 1
    outer loop
      vertex 48.5358 -63.708 25
      vertex 49 -64 25
      vertex 48.5509 -63.6647 25
    endloop
  endfacet
  facet normal 0 0 1
    outer loop
      vertex 48.2572 -64.5042 25
      vertex 49 -64 25
      vertex 48.5358 -63.708 25
    endloop
  endfacet
  facet normal 0 0 1
    outer loop
      vertex 49 -64 25
      vertex 48.2572 -64.5042 25
      vertex 48.7926 -65.096 25
    endloop
  endfacet
  facet normal -0 0 1
    outer loop
      vertex 48.2328 -64.5429 25
      vertex 48.7926 -65.096 25
      vertex 48.2572 -64.5042 25
    endloop
  endfacet
  facet normal 0 0 1
    outer loop
      vertex 47.784 -65.2572 25
      vertex 48.7926 -65.096 25
      vertex 48.2328 -64.5429 25
    endloop
  endfacet
  facet normal 0 0 1
    outer loop
      vertex 48.7926 -65.096 25
      vertex 47.784 -65.2572 25
      vertex 48.3455 -65.8705 25
    endloop
  endfacet
  facet normal 0 0 1
    outer loop
      vertex 47.1552 -65.886 25
      vertex 48.3455 -65.8705 25
      vertex 47.784 -65.2572 25
    endloop
  endfacet
  facet normal 0 0 1
    outer loop
      vertex 48.3455 -65.8705 25
      vertex 47.1552 -65.886 25
      vertex 47.69 -66.4787 25
    endloop
  endfacet
  facet normal 0 0 1
    outer loop
      vertex 47.1552 -65.886 25
      vertex 46.8843 -66.8667 25
      vertex 47.69 -66.4787 25
    endloop
  endfacet
  facet normal -0 0 1
    outer loop
      vertex 46.4409 -66.3348 25
      vertex 46.8843 -66.8667 25
      vertex 47.1552 -65.886 25
    endloop
  endfacet
  facet normal -0 0 1
    outer loop
      vertex 46.4022 -66.3592 25
      vertex 46.8843 -66.8667 25
      vertex 46.4409 -66.3348 25
    endloop
  endfacet
  facet normal 0 0 1
    outer loop
      vertex 46.4022 -66.3592 25
      vertex 46 -67 25
      vertex 46.8843 -66.8667 25
    endloop
  endfacet
  facet normal -0 0 1
    outer loop
      vertex 45.606 -66.6378 25
      vertex 46 -67 25
      vertex 46.4022 -66.3592 25
    endloop
  endfacet
  facet normal -0 0 1
    outer loop
      vertex 45.5628 -66.6529 25
      vertex 46 -67 25
      vertex 45.606 -66.6378 25
    endloop
  endfacet
  facet normal -0 0 1
    outer loop
      vertex 44.7245 -66.7473 25
      vertex 46 -67 25
      vertex 45.5628 -66.6529 25
    endloop
  endfacet
  facet normal -0 0 1
    outer loop
      vertex 44.679 -66.7525 25
      vertex 46 -67 25
      vertex 44.7245 -66.7473 25
    endloop
  endfacet
  facet normal -0 0 1
    outer loop
      vertex -44.679 -66.7525 25
      vertex 46 -67 25
      vertex 44.679 -66.7525 25
    endloop
  endfacet
  facet normal 0 0 1
    outer loop
      vertex -46 -67 25
      vertex -44.7245 -66.7473 25
      vertex -45.5628 -66.6529 25
    endloop
  endfacet
  facet normal 0 0 1
    outer loop
      vertex -44.679 -66.7525 25
      vertex -46 -67 25
      vertex 46 -67 25
    endloop
  endfacet
  facet normal 0 0 1
    outer loop
      vertex -44.7245 -66.7473 25
      vertex -46 -67 25
      vertex -44.679 -66.7525 25
    endloop
  endfacet
  facet normal 0 0 1
    outer loop
      vertex -45.606 -66.6378 25
      vertex -46 -67 25
      vertex -45.5628 -66.6529 25
    endloop
  endfacet
  facet normal 0 0 1
    outer loop
      vertex -46.4022 -66.3592 25
      vertex -46 -67 25
      vertex -45.606 -66.6378 25
    endloop
  endfacet
  facet normal 0 0 1
    outer loop
      vertex -47.096 -66.7926 25
      vertex -46.4022 -66.3592 25
      vertex -46.4409 -66.3348 25
    endloop
  endfacet
  facet normal 0 0 1
    outer loop
      vertex -46.4022 -66.3592 25
      vertex -47.096 -66.7926 25
      vertex -46 -67 25
    endloop
  endfacet
  facet normal 0 0 1
    outer loop
      vertex -47.1552 -65.886 25
      vertex -47.096 -66.7926 25
      vertex -46.4409 -66.3348 25
    endloop
  endfacet
  facet normal 0 0 1
    outer loop
      vertex -47.8705 -66.3455 25
      vertex -47.1552 -65.886 25
      vertex -47.784 -65.2572 25
    endloop
  endfacet
  facet normal 0 0 1
    outer loop
      vertex -47.1552 -65.886 25
      vertex -47.8705 -66.3455 25
      vertex -47.096 -66.7926 25
    endloop
  endfacet
  facet normal -0 0 1
    outer loop
      vertex -48.8667 -64.8842 25
      vertex -47.784 -65.2572 25
      vertex -48.2328 -64.5429 25
    endloop
  endfacet
  facet normal 0 0 1
    outer loop
      vertex -48.8667 -64.8842 25
      vertex -48.2328 -64.5429 25
      vertex -48.2572 -64.5042 25
    endloop
  endfacet
  facet normal 0 0 1
    outer loop
      vertex -47.784 -65.2572 25
      vertex -48.4787 -65.6899 25
      vertex -47.8705 -66.3455 25
    endloop
  endfacet
  facet normal -0 0 1
    outer loop
      vertex -49 -64 25
      vertex -48.2572 -64.5042 25
      vertex -48.5358 -63.708 25
    endloop
  endfacet
  facet normal 0 0 1
    outer loop
      vertex -49 -64 25
      vertex -48.5358 -63.708 25
      vertex -48.5509 -63.6647 25
    endloop
  endfacet
  facet normal 0 0 1
    outer loop
      vertex -49 -64 25
      vertex -48.5509 -63.6647 25
      vertex -48.6454 -62.8265 25
    endloop
  endfacet
  facet normal 0 0 1
    outer loop
      vertex -49 -64 25
      vertex -48.6454 -62.8265 25
      vertex -48.6505 -62.781 25
    endloop
  endfacet
  facet normal 0 0 1
    outer loop
      vertex -47.784 -65.2572 25
      vertex -48.8667 -64.8842 25
      vertex -48.4787 -65.6899 25
    endloop
  endfacet
  facet normal 0 0 1
    outer loop
      vertex -49 -64 25
      vertex -48.6505 -1.81897 25
      vertex -49 72.1 25
    endloop
  endfacet
  facet normal 0 0 1
    outer loop
      vertex -48.6505 -1.81897 25
      vertex -49 -64 25
      vertex -48.6505 -62.781 25
    endloop
  endfacet
  facet normal 0 0 1
    outer loop
      vertex -48.2572 -64.5042 25
      vertex -49 -64 25
      vertex -48.8667 -64.8842 25
    endloop
  endfacet
  facet normal 0 0 1
    outer loop
      vertex -44.5815 -63.0905 25
      vertex -45.5197 -61.7144 25
      vertex -45.1543 -62.4732 25
    endloop
  endfacet
  facet normal 0.499952 0.866053 -0
    outer loop
      vertex 47.8705 74.4455 22
      vertex 47.096 74.8926 25
      vertex 47.8705 74.4455 25
    endloop
  endfacet
  facet normal 0.499952 0.866053 0
    outer loop
      vertex 47.096 74.8926 25
      vertex 47.8705 74.4455 22
      vertex 47.096 74.8926 22
    endloop
  endfacet
  facet normal -0.900971 -0.433879 0
    outer loop
      vertex -48.4787 -65.6899 22
      vertex -48.8667 -64.8842 25
      vertex -48.8667 -64.8842 22
    endloop
  endfacet
  facet normal -0.900971 -0.433879 0
    outer loop
      vertex -48.8667 -64.8842 25
      vertex -48.4787 -65.6899 22
      vertex -48.4787 -65.6899 25
    endloop
  endfacet
  facet normal 0.866053 -0.499952 0
    outer loop
      vertex 48.3455 -65.8705 25
      vertex 48.7926 -65.096 22
      vertex 48.7926 -65.096 25
    endloop
  endfacet
  facet normal 0.866053 -0.499952 0
    outer loop
      vertex 48.7926 -65.096 22
      vertex 48.3455 -65.8705 25
      vertex 48.3455 -65.8705 22
    endloop
  endfacet
endsolid OpenSCAD_Model
