solid OpenSCAD_Model
  facet normal 0 -0.914752 -0.404016
    outer loop
      vertex -67.4 -51.6837 122.4
      vertex -65 -50.6237 120
      vertex -61 -51.6837 122.4
    endloop
  endfacet
  facet normal 6.15502e-16 -0.914752 -0.404016
    outer loop
      vertex -67.4 -51.6837 122.4
      vertex -65 -49.1662 116.7
      vertex -65 -50.6237 120
    endloop
  endfacet
  facet normal 0 -0.914752 -0.404016
    outer loop
      vertex -67.4 -5.5 17.8332
      vertex -61 -49.1662 116.7
      vertex -65 -49.1662 116.7
    endloop
  endfacet
  facet normal -6.23296e-07 -0.914752 -0.404016
    outer loop
      vertex -67.4 -5.5 17.8332
      vertex -65 -49.1662 116.7
      vertex -67.4 -51.6837 122.4
    endloop
  endfacet
  facet normal 0 -0.914752 -0.404016
    outer loop
      vertex -61 -49.1662 116.7
      vertex -67.4 -5.5 17.8332
      vertex 0 -5.5 17.8332
    endloop
  endfacet
  facet normal 0 -0.914752 -0.404016
    outer loop
      vertex -61 -49.1662 116.7
      vertex 0 -5.5 17.8332
      vertex 0 -49.1662 116.7
    endloop
  endfacet
  facet normal 0 -0.914752 -0.404016
    outer loop
      vertex -61 -51.6837 122.4
      vertex -65 -50.6237 120
      vertex -61 -50.6237 120
    endloop
  endfacet
  facet normal -0 -0.914751 -0.404018
    outer loop
      vertex -64.9 0 5.38037
      vertex -67.4 -2.5 11.0407
      vertex -67.4 0 5.38037
    endloop
  endfacet
  facet normal 0 -0.914751 -0.404018
    outer loop
      vertex -67.4 -2.5 11.0407
      vertex -64.9 0 5.38037
      vertex 0 -2.5 11.0407
    endloop
  endfacet
  facet normal -0 -0.914752 -0.404016
    outer loop
      vertex 0 2.37633 0
      vertex -64.9 0 5.38037
      vertex -64.9 2.37633 0
    endloop
  endfacet
  facet normal -1.44272e-07 -0.914751 -0.404017
    outer loop
      vertex -64.9 0 5.38037
      vertex 0 2.37633 0
      vertex 0 -2.5 11.0407
    endloop
  endfacet
  facet normal 0 0 -1
    outer loop
      vertex 0 2.37633 0
      vertex -62 5 0
      vertex 0 5 0
    endloop
  endfacet
  facet normal 0 0 -1
    outer loop
      vertex -64.9 2.37633 0
      vertex -62 5 0
      vertex 0 2.37633 0
    endloop
  endfacet
  facet normal 0 0 -1
    outer loop
      vertex -64.9 3.6 0
      vertex -62 5 0
      vertex -64.9 2.37633 0
    endloop
  endfacet
  facet normal 0 0 -1
    outer loop
      vertex -65 6 0
      vertex -62 5 0
      vertex -64.9 3.6 0
    endloop
  endfacet
  facet normal 0 0 -1
    outer loop
      vertex -62 5 0
      vertex -65 6 0
      vertex -62 6 0
    endloop
  endfacet
  facet normal -0 0 -1
    outer loop
      vertex -65 6 0
      vertex -67.4 3.6 0
      vertex -65 55 0
    endloop
  endfacet
  facet normal 0 0 -1
    outer loop
      vertex -67.4 3.6 0
      vertex -65 6 0
      vertex -64.9 3.6 0
    endloop
  endfacet
  facet normal 0 0 -1
    outer loop
      vertex -65 55 0
      vertex 0 57.4 0
      vertex 0 55 0
    endloop
  endfacet
  facet normal 0 0 -1
    outer loop
      vertex -65 55 0
      vertex -67.4 57.4 0
      vertex 0 57.4 0
    endloop
  endfacet
  facet normal 0 0 -1
    outer loop
      vertex -67.4 57.4 0
      vertex -65 55 0
      vertex -67.4 3.6 0
    endloop
  endfacet
  facet normal -0 0 1
    outer loop
      vertex -67.4 -4.9 122.4
      vertex -61 -51.6837 122.4
      vertex -61 -4.9 122.4
    endloop
  endfacet
  facet normal 0 0 1
    outer loop
      vertex -61 -51.6837 122.4
      vertex -67.4 -4.9 122.4
      vertex -67.4 -51.6837 122.4
    endloop
  endfacet
  facet normal 0 0 1
    outer loop
      vertex 0 57.4 122.4
      vertex -64.9 3.6 122.4
      vertex 0 -2.5 122.4
    endloop
  endfacet
  facet normal -0 0 1
    outer loop
      vertex -67.4 57.4 122.4
      vertex -64.9 3.6 122.4
      vertex 0 57.4 122.4
    endloop
  endfacet
  facet normal 0 0 1
    outer loop
      vertex -64.9 3.6 122.4
      vertex -67.4 57.4 122.4
      vertex -67.4 3.6 122.4
    endloop
  endfacet
  facet normal -0 0 1
    outer loop
      vertex -64.9 0 122.4
      vertex 0 -2.5 122.4
      vertex -64.9 3.6 122.4
    endloop
  endfacet
  facet normal 0 0 1
    outer loop
      vertex -67.4 -2.5 122.4
      vertex -64.9 0 122.4
      vertex -67.4 0 122.4
    endloop
  endfacet
  facet normal 0 0 1
    outer loop
      vertex -64.9 0 122.4
      vertex -67.4 -2.5 122.4
      vertex 0 -2.5 122.4
    endloop
  endfacet
  facet normal -1 0 0
    outer loop
      vertex -67.4 -5.5 -38.8
      vertex -67.4 -2.5 11.0407
      vertex -67.4 -2.5 -38.8
    endloop
  endfacet
  facet normal -1 0 0
    outer loop
      vertex -67.4 -2.5 11.0407
      vertex -67.4 -5.5 17.8332
      vertex -67.4 -2.5 122.4
    endloop
  endfacet
  facet normal -1 0 -0
    outer loop
      vertex -67.4 -4.9 122.4
      vertex -67.4 -2.5 122.4
      vertex -67.4 -5.5 17.8332
    endloop
  endfacet
  facet normal -1 -0 0
    outer loop
      vertex -67.4 -2.5 11.0407
      vertex -67.4 -5.5 -38.8
      vertex -67.4 -5.5 17.8332
    endloop
  endfacet
  facet normal -1 -0 0
    outer loop
      vertex -67.4 -4.9 122.4
      vertex -67.4 -5.5 17.8332
      vertex -67.4 -51.6837 122.4
    endloop
  endfacet
  facet normal -1 0 0
    outer loop
      vertex -67.4 -2.5 11.0407
      vertex -67.4 0 122.4
      vertex -67.4 0 5.38037
    endloop
  endfacet
  facet normal -1 -0 0
    outer loop
      vertex -67.4 0 122.4
      vertex -67.4 -2.5 11.0407
      vertex -67.4 -2.5 122.4
    endloop
  endfacet
  facet normal -1 0 0
    outer loop
      vertex -67.4 3.6 0
      vertex -67.4 57.4 122.4
      vertex -67.4 57.4 0
    endloop
  endfacet
  facet normal -1 -0 0
    outer loop
      vertex -67.4 57.4 122.4
      vertex -67.4 3.6 0
      vertex -67.4 3.6 122.4
    endloop
  endfacet
  facet normal 1 0 0
    outer loop
      vertex 0 5 0
      vertex 0 -2.5 11.0407
      vertex 0 2.37633 0
    endloop
  endfacet
  facet normal 1 0 0
    outer loop
      vertex 0 -5.5 -38.8
      vertex 0 -2.5 11.0407
      vertex 0 -5.5 17.8332
    endloop
  endfacet
  facet normal 1 0 0
    outer loop
      vertex 0 5 0
      vertex 0 -5.5 17.8332
      vertex 0 -2.5 11.0407
    endloop
  endfacet
  facet normal 1 0 0
    outer loop
      vertex 0 -46.5425 116.7
      vertex 0 -5.5 17.8332
      vertex 0 5 0
    endloop
  endfacet
  facet normal 1 0 0
    outer loop
      vertex 0 -5.5 17.8332
      vertex 0 -46.5425 116.7
      vertex 0 -49.1662 116.7
    endloop
  endfacet
  facet normal 1 0 0
    outer loop
      vertex 0 -2.5 11.0407
      vertex 0 -5.5 -38.8
      vertex 0 -2.5 -38.8
    endloop
  endfacet
  facet normal 1 0 0
    outer loop
      vertex 0 -2.5 122.4
      vertex 0 -4.9 122.4
      vertex 0 -2.5 120
    endloop
  endfacet
  facet normal 1 0 0
    outer loop
      vertex 0 -4.9 114.3
      vertex 0 -2.5 120
      vertex 0 -4.9 122.4
    endloop
  endfacet
  facet normal 1 0 0
    outer loop
      vertex 0 -2.5 120
      vertex 0 -4.9 114.3
      vertex 0 -2.5 114.3
    endloop
  endfacet
  facet normal 1 0 0
    outer loop
      vertex 0 57.4 122.4
      vertex 0 55 120
      vertex 0 57.4 0
    endloop
  endfacet
  facet normal 1 -0 0
    outer loop
      vertex 0 -2.5 122.4
      vertex 0 55 120
      vertex 0 57.4 122.4
    endloop
  endfacet
  facet normal 1 0 0
    outer loop
      vertex 0 55 120
      vertex 0 -2.5 122.4
      vertex 0 -2.5 120
    endloop
  endfacet
  facet normal 1 0 0
    outer loop
      vertex 0 57.4 0
      vertex 0 55 120
      vertex 0 55 0
    endloop
  endfacet
  facet normal 0 1 -0
    outer loop
      vertex 0 57.4 0
      vertex -67.4 57.4 122.4
      vertex 0 57.4 122.4
    endloop
  endfacet
  facet normal 0 1 0
    outer loop
      vertex -67.4 57.4 122.4
      vertex 0 57.4 0
      vertex -67.4 57.4 0
    endloop
  endfacet
  facet normal 0 0.914752 0.404016
    outer loop
      vertex 0 -46.5425 116.7
      vertex -61 -45.4825 114.3
      vertex -61 -46.5425 116.7
    endloop
  endfacet
  facet normal 0 0.914752 0.404015
    outer loop
      vertex -61 -45.4825 114.3
      vertex -62 -2.4 16.7547
      vertex -65 -45.4825 114.3
    endloop
  endfacet
  facet normal 2.76831e-09 0.914752 0.404015
    outer loop
      vertex 0 -46.5425 116.7
      vertex -62 -2.4 16.7547
      vertex -61 -45.4825 114.3
    endloop
  endfacet
  facet normal -1.10655e-07 0.914752 0.404016
    outer loop
      vertex 0 5 0
      vertex -62 -2.4 16.7547
      vertex 0 -46.5425 116.7
    endloop
  endfacet
  facet normal 0 0.914752 0.404016
    outer loop
      vertex -62 -2.4 16.7547
      vertex 0 5 0
      vertex -62 5 0
    endloop
  endfacet
  facet normal 0 0.914752 0.404015
    outer loop
      vertex -65 -45.4825 114.3
      vertex -62 -2.4 16.7547
      vertex -65 -2.4 16.7547
    endloop
  endfacet
  facet normal 0 0 -1
    outer loop
      vertex -62 6 120
      vertex 0 -2.5 120
      vertex -62 -2.4 120
    endloop
  endfacet
  facet normal 0 0 -1
    outer loop
      vertex -65 -2.5 120
      vertex -62 -2.4 120
      vertex 0 -2.5 120
    endloop
  endfacet
  facet normal -0 0 -1
    outer loop
      vertex -62 -2.4 120
      vertex -65 -2.5 120
      vertex -65 -2.4 120
    endloop
  endfacet
  facet normal 0 0 -1
    outer loop
      vertex 0 -2.5 120
      vertex -62 6 120
      vertex 0 55 120
    endloop
  endfacet
  facet normal 0 0 -1
    outer loop
      vertex -65 55 120
      vertex -62 6 120
      vertex -65 6 120
    endloop
  endfacet
  facet normal 0 0 -1
    outer loop
      vertex -62 6 120
      vertex -65 55 120
      vertex 0 55 120
    endloop
  endfacet
  facet normal 1 -0 0
    outer loop
      vertex -65 6 120
      vertex -65 55 0
      vertex -65 55 120
    endloop
  endfacet
  facet normal 1 0 0
    outer loop
      vertex -65 55 0
      vertex -65 6 120
      vertex -65 6 0
    endloop
  endfacet
  facet normal 1 0 0
    outer loop
      vertex -65 -4.9 120
      vertex -65 -49.1662 116.7
      vertex -65 -4.9 116.7
    endloop
  endfacet
  facet normal 1 0 -0
    outer loop
      vertex -65 -49.1662 116.7
      vertex -65 -4.9 120
      vertex -65 -50.6237 120
    endloop
  endfacet
  facet normal 1 0 0
    outer loop
      vertex -65 -2.5 114.3
      vertex -65 -2.4 120
      vertex -65 -2.5 120
    endloop
  endfacet
  facet normal 1 0 0
    outer loop
      vertex -65 -2.4 120
      vertex -65 -2.5 114.3
      vertex -65 -2.4 16.7547
    endloop
  endfacet
  facet normal 1 0 0
    outer loop
      vertex -65 -2.4 16.7547
      vertex -65 -2.5 114.3
      vertex -65 -45.4825 114.3
    endloop
  endfacet
  facet normal 0 -1 0
    outer loop
      vertex -65 55 0
      vertex 0 55 120
      vertex -65 55 120
    endloop
  endfacet
  facet normal 0 -1 -0
    outer loop
      vertex 0 55 120
      vertex -65 55 0
      vertex 0 55 0
    endloop
  endfacet
  facet normal -0 0 1
    outer loop
      vertex -65 -4.9 116.7
      vertex -61 -46.5425 116.7
      vertex -61 -4.9 116.7
    endloop
  endfacet
  facet normal 0 0 1
    outer loop
      vertex -65 -49.1662 116.7
      vertex -61 -46.5425 116.7
      vertex -65 -4.9 116.7
    endloop
  endfacet
  facet normal 0 0 1
    outer loop
      vertex -61 -46.5425 116.7
      vertex -65 -49.1662 116.7
      vertex -61 -49.1662 116.7
    endloop
  endfacet
  facet normal -0 0 1
    outer loop
      vertex -61 -46.5425 116.7
      vertex 0 -49.1662 116.7
      vertex 0 -46.5425 116.7
    endloop
  endfacet
  facet normal 0 0 1
    outer loop
      vertex 0 -49.1662 116.7
      vertex -61 -46.5425 116.7
      vertex -61 -49.1662 116.7
    endloop
  endfacet
  facet normal 0 -1 0
    outer loop
      vertex -65 -4.9 120
      vertex -65 -4.9 116.7
      vertex -61 -4.9 120
    endloop
  endfacet
  facet normal 0 0 0
    outer loop
      vertex -67.4 -4.9 122.4
      vertex -61 -4.9 122.4
      vertex 0 -4.9 122.4
    endloop
  endfacet
  facet normal 0 -1 0
    outer loop
      vertex -61 -4.9 120
      vertex 0 -4.9 122.4
      vertex -61 -4.9 122.4
    endloop
  endfacet
  facet normal 0 -1 0
    outer loop
      vertex -61 -4.9 116.7
      vertex -61 -4.9 120
      vertex -65 -4.9 116.7
    endloop
  endfacet
  facet normal 0 -1 0
    outer loop
      vertex -61 -4.9 120
      vertex -61 -4.9 116.7
      vertex 0 -4.9 122.4
    endloop
  endfacet
  facet normal 0 -1 0
    outer loop
      vertex 0 -4.9 114.3
      vertex -61 -4.9 116.7
      vertex -61 -4.9 114.3
    endloop
  endfacet
  facet normal 0 -1 0
    outer loop
      vertex -61 -4.9 116.7
      vertex 0 -4.9 114.3
      vertex 0 -4.9 122.4
    endloop
  endfacet
  facet normal 0 0 -1
    outer loop
      vertex -67.4 -5.5 -38.8
      vertex 0 -2.5 -38.8
      vertex 0 -5.5 -38.8
    endloop
  endfacet
  facet normal -0 0 -1
    outer loop
      vertex 0 -2.5 -38.8
      vertex -67.4 -5.5 -38.8
      vertex -67.4 -2.5 -38.8
    endloop
  endfacet
  facet normal 0 1 -0
    outer loop
      vertex 0 -2.5 -38.8
      vertex -67.4 -2.5 11.0407
      vertex 0 -2.5 11.0407
    endloop
  endfacet
  facet normal 0 1 0
    outer loop
      vertex -67.4 -2.5 11.0407
      vertex 0 -2.5 -38.8
      vertex -67.4 -2.5 -38.8
    endloop
  endfacet
  facet normal 0 -1 0
    outer loop
      vertex -67.4 -5.5 -38.8
      vertex 0 -5.5 17.8332
      vertex -67.4 -5.5 17.8332
    endloop
  endfacet
  facet normal 0 -1 -0
    outer loop
      vertex 0 -5.5 17.8332
      vertex -67.4 -5.5 -38.8
      vertex 0 -5.5 -38.8
    endloop
  endfacet
  facet normal 0 0 -1
    outer loop
      vertex -61 -45.4825 114.3
      vertex -65 -45.4825 114.3
      vertex -61 -4.9 114.3
    endloop
  endfacet
  facet normal 0 0 -1
    outer loop
      vertex -61 -4.9 114.3
      vertex 0 -2.5 114.3
      vertex 0 -4.9 114.3
    endloop
  endfacet
  facet normal 0 0 -1
    outer loop
      vertex -61 -4.9 114.3
      vertex -65 -2.5 114.3
      vertex 0 -2.5 114.3
    endloop
  endfacet
  facet normal 0 0 -1
    outer loop
      vertex -65 -2.5 114.3
      vertex -61 -4.9 114.3
      vertex -65 -45.4825 114.3
    endloop
  endfacet
  facet normal 1 0 0
    outer loop
      vertex -61 -4.9 116.7
      vertex -61 -45.4825 114.3
      vertex -61 -4.9 114.3
    endloop
  endfacet
  facet normal 1 0 -0
    outer loop
      vertex -61 -45.4825 114.3
      vertex -61 -4.9 116.7
      vertex -61 -46.5425 116.7
    endloop
  endfacet
  facet normal 0 0 -1
    outer loop
      vertex -65 -50.6237 120
      vertex -61 -4.9 120
      vertex -61 -50.6237 120
    endloop
  endfacet
  facet normal -0 0 -1
    outer loop
      vertex -61 -4.9 120
      vertex -65 -50.6237 120
      vertex -65 -4.9 120
    endloop
  endfacet
  facet normal 1 0 0
    outer loop
      vertex -61 -4.9 122.4
      vertex -61 -50.6237 120
      vertex -61 -4.9 120
    endloop
  endfacet
  facet normal 1 0 -0
    outer loop
      vertex -61 -50.6237 120
      vertex -61 -4.9 122.4
      vertex -61 -51.6837 122.4
    endloop
  endfacet
  facet normal 1 -0 0
    outer loop
      vertex -62 -2.4 16.7547
      vertex -62 6 0
      vertex -62 6 120
    endloop
  endfacet
  facet normal 1 0 0
    outer loop
      vertex -62 -2.4 16.7547
      vertex -62 6 120
      vertex -62 -2.4 120
    endloop
  endfacet
  facet normal 1 0 0
    outer loop
      vertex -62 6 0
      vertex -62 -2.4 16.7547
      vertex -62 5 0
    endloop
  endfacet
  facet normal 0 1 -0
    outer loop
      vertex -62 6 0
      vertex -65 6 120
      vertex -62 6 120
    endloop
  endfacet
  facet normal 0 1 0
    outer loop
      vertex -65 6 120
      vertex -62 6 0
      vertex -65 6 0
    endloop
  endfacet
  facet normal 0 -1 0
    outer loop
      vertex -65 -2.4 16.7547
      vertex -62 -2.4 120
      vertex -65 -2.4 120
    endloop
  endfacet
  facet normal 0 -1 -0
    outer loop
      vertex -62 -2.4 120
      vertex -65 -2.4 16.7547
      vertex -62 -2.4 16.7547
    endloop
  endfacet
  facet normal -0 0 1
    outer loop
      vertex -67.4 -2.5 122.4
      vertex 0 -4.9 122.4
      vertex 0 -2.5 122.4
    endloop
  endfacet
  facet normal 0 0 1
    outer loop
      vertex 0 -4.9 122.4
      vertex -67.4 -2.5 122.4
      vertex -67.4 -4.9 122.4
    endloop
  endfacet
  facet normal 0 1 -0
    outer loop
      vertex 0 -2.5 114.3
      vertex -65 -2.5 120
      vertex 0 -2.5 120
    endloop
  endfacet
  facet normal 0 1 0
    outer loop
      vertex -65 -2.5 120
      vertex 0 -2.5 114.3
      vertex -65 -2.5 114.3
    endloop
  endfacet
  facet normal -1 0 0
    outer loop
      vertex -64.9 0 5.38037
      vertex -64.9 3.6 0
      vertex -64.9 2.37633 0
    endloop
  endfacet
  facet normal -1 0 0
    outer loop
      vertex -64.9 3.6 0
      vertex -64.9 0 5.38037
      vertex -64.9 3.6 122.4
    endloop
  endfacet
  facet normal -1 -0 0
    outer loop
      vertex -64.9 3.6 122.4
      vertex -64.9 0 5.38037
      vertex -64.9 0 122.4
    endloop
  endfacet
  facet normal 0 -1 0
    outer loop
      vertex -67.4 3.6 0
      vertex -64.9 3.6 122.4
      vertex -67.4 3.6 122.4
    endloop
  endfacet
  facet normal 0 -1 -0
    outer loop
      vertex -64.9 3.6 122.4
      vertex -67.4 3.6 0
      vertex -64.9 3.6 0
    endloop
  endfacet
  facet normal 0 1 -0
    outer loop
      vertex -64.9 0 5.38037
      vertex -67.4 0 122.4
      vertex -64.9 0 122.4
    endloop
  endfacet
  facet normal 0 1 0
    outer loop
      vertex -67.4 0 122.4
      vertex -64.9 0 5.38037
      vertex -67.4 0 5.38037
    endloop
  endfacet
endsolid OpenSCAD_Model
