solid OpenSCAD_Model
  facet normal 0.954718 0 -0.297512
    outer loop
      vertex 82.7 0.299999 -34
      vertex 81.9919 3.3 -36.2723
      vertex 82.7 3.3 -34
    endloop
  endfacet
  facet normal 0.954718 0 -0.297512
    outer loop
      vertex 81.9919 3.3 -36.2723
      vertex 82.7 0.299999 -34
      vertex 81.9919 0.299999 -36.2723
    endloop
  endfacet
  facet normal 0.663115 0 -0.748518
    outer loop
      vertex 80.5589 0.299999 -37.5418
      vertex 81.9919 3.3 -36.2723
      vertex 81.9919 0.299999 -36.2723
    endloop
  endfacet
  facet normal 0.663115 0 -0.748518
    outer loop
      vertex 81.9919 3.3 -36.2723
      vertex 80.5589 0.299999 -37.5418
      vertex 80.5589 3.3 -37.5418
    endloop
  endfacet
  facet normal -0.748518 0 -0.663115
    outer loop
      vertex -80.9723 0.299999 -37.2919
      vertex -82.2418 3.3 -35.8589
      vertex -80.9723 3.3 -37.2919
    endloop
  endfacet
  facet normal -0.748518 -0 -0.663115
    outer loop
      vertex -82.2418 3.3 -35.8589
      vertex -80.9723 0.299999 -37.2919
      vertex -82.2418 0.299999 -35.8589
    endloop
  endfacet
  facet normal 0.239327 0 -0.970939
    outer loop
      vertex 78.7 0.299999 -38
      vertex 80.5589 3.3 -37.5418
      vertex 80.5589 0.299999 -37.5418
    endloop
  endfacet
  facet normal 0.239327 0 -0.970939
    outer loop
      vertex 80.5589 3.3 -37.5418
      vertex 78.7 0.299999 -38
      vertex 78.7 3.3 -38
    endloop
  endfacet
  facet normal 0 0 -1
    outer loop
      vertex -78.7 0.299999 -38
      vertex 78.7 3.3 -38
      vertex 78.7 0.299999 -38
    endloop
  endfacet
  facet normal -0 0 -1
    outer loop
      vertex 78.7 3.3 -38
      vertex -78.7 0.299999 -38
      vertex -78.7 3.3 -38
    endloop
  endfacet
  facet normal -1 0 0
    outer loop
      vertex -82.7 3.3 -13
      vertex -82.7 104.3 -10
      vertex -82.7 104.3 -13
    endloop
  endfacet
  facet normal -1 -0 0
    outer loop
      vertex -82.7 104.3 -10
      vertex -82.7 3.3 -13
      vertex -82.7 3.3 -10
    endloop
  endfacet
  facet normal -1 0 0
    outer loop
      vertex -82.7 103.979 -32.7274
      vertex -82.7 104.3 -17.2088
      vertex -82.7 105.006 -32.9316
    endloop
  endfacet
  facet normal -1 0 0
    outer loop
      vertex -82.7 102.989 -32.391
      vertex -82.7 104.3 -17.2088
      vertex -82.7 103.979 -32.7274
    endloop
  endfacet
  facet normal -1 0 0
    outer loop
      vertex -82.7 102.05 -31.9282
      vertex -82.7 104.3 -17.2088
      vertex -82.7 102.989 -32.391
    endloop
  endfacet
  facet normal -1 0 0
    outer loop
      vertex -82.7 104.3 -17.2088
      vertex -82.7 102.989 -17.609
      vertex -82.7 103.979 -17.2726
    endloop
  endfacet
  facet normal -1 0 0
    outer loop
      vertex -82.7 102.05 -18.0718
      vertex -82.7 104.3 -17.2088
      vertex -82.7 102.05 -31.9282
    endloop
  endfacet
  facet normal -1 0 0
    outer loop
      vertex -82.7 104.3 -17.2088
      vertex -82.7 102.05 -18.0718
      vertex -82.7 102.989 -17.609
    endloop
  endfacet
  facet normal -1 0 0
    outer loop
      vertex -82.7 101.18 -31.3468
      vertex -82.7 102.05 -18.0718
      vertex -82.7 102.05 -31.9282
    endloop
  endfacet
  facet normal -1 0 0
    outer loop
      vertex -82.7 101.18 -31.3468
      vertex -82.7 101.18 -18.6532
      vertex -82.7 102.05 -18.0718
    endloop
  endfacet
  facet normal -1 0 0
    outer loop
      vertex -82.7 100.393 -30.6569
      vertex -82.7 101.18 -18.6532
      vertex -82.7 101.18 -31.3468
    endloop
  endfacet
  facet normal -1 0 0
    outer loop
      vertex -82.7 100.393 -30.6569
      vertex -82.7 100.393 -19.3431
      vertex -82.7 101.18 -18.6532
    endloop
  endfacet
  facet normal -1 0 0
    outer loop
      vertex -82.7 99.7032 -29.8701
      vertex -82.7 100.393 -19.3431
      vertex -82.7 100.393 -30.6569
    endloop
  endfacet
  facet normal -1 0 0
    outer loop
      vertex -82.7 99.7032 -29.8701
      vertex -82.7 99.7032 -20.1299
      vertex -82.7 100.393 -19.3431
    endloop
  endfacet
  facet normal -1 0 0
    outer loop
      vertex -82.7 99.1218 -29
      vertex -82.7 99.7032 -20.1299
      vertex -82.7 99.7032 -29.8701
    endloop
  endfacet
  facet normal -1 0 0
    outer loop
      vertex -82.7 99.1218 -29
      vertex -82.7 99.1218 -21
      vertex -82.7 99.7032 -20.1299
    endloop
  endfacet
  facet normal -1 0 0
    outer loop
      vertex -82.7 98.659 -28.0615
      vertex -82.7 99.1218 -21
      vertex -82.7 99.1218 -29
    endloop
  endfacet
  facet normal -1 0 0
    outer loop
      vertex -82.7 98.659 -28.0615
      vertex -82.7 98.659 -21.9385
      vertex -82.7 99.1218 -21
    endloop
  endfacet
  facet normal -1 0 0
    outer loop
      vertex -82.7 98.3226 -27.0706
      vertex -82.7 98.659 -21.9385
      vertex -82.7 98.659 -28.0615
    endloop
  endfacet
  facet normal -1 0 0
    outer loop
      vertex -82.7 98.3226 -27.0706
      vertex -82.7 98.3226 -22.9294
      vertex -82.7 98.659 -21.9385
    endloop
  endfacet
  facet normal -1 0 0
    outer loop
      vertex -82.7 98.1184 -26.0442
      vertex -82.7 98.3226 -22.9294
      vertex -82.7 98.3226 -27.0706
    endloop
  endfacet
  facet normal -1 0 0
    outer loop
      vertex -82.7 98.1184 -26.0442
      vertex -82.7 98.1184 -23.9558
      vertex -82.7 98.3226 -22.9294
    endloop
  endfacet
  facet normal -1 0 -0
    outer loop
      vertex -82.7 98.1184 -23.9558
      vertex -82.7 98.1184 -26.0442
      vertex -82.7 98.05 -25
    endloop
  endfacet
  facet normal -1 0 0
    outer loop
      vertex -82.7 113.982 -26.0442
      vertex -82.7 113.982 -23.9558
      vertex -82.7 114.05 -25
    endloop
  endfacet
  facet normal -1 0 0
    outer loop
      vertex -82.7 113.777 -27.0706
      vertex -82.7 113.982 -23.9558
      vertex -82.7 113.982 -26.0442
    endloop
  endfacet
  facet normal -1 0 0
    outer loop
      vertex -82.7 113.777 -27.0706
      vertex -82.7 113.777 -22.9294
      vertex -82.7 113.982 -23.9558
    endloop
  endfacet
  facet normal -1 0 0
    outer loop
      vertex -82.7 113.441 -28.0615
      vertex -82.7 113.777 -22.9294
      vertex -82.7 113.777 -27.0706
    endloop
  endfacet
  facet normal -1 0 0
    outer loop
      vertex -82.7 113.441 -28.0615
      vertex -82.7 113.441 -21.9385
      vertex -82.7 113.777 -22.9294
    endloop
  endfacet
  facet normal -1 0 0
    outer loop
      vertex -82.7 112.978 -29
      vertex -82.7 113.441 -21.9385
      vertex -82.7 113.441 -28.0615
    endloop
  endfacet
  facet normal -1 0 0
    outer loop
      vertex -82.7 112.978 -29
      vertex -82.7 112.978 -21
      vertex -82.7 113.441 -21.9385
    endloop
  endfacet
  facet normal -1 0 0
    outer loop
      vertex -82.7 112.397 -29.8701
      vertex -82.7 112.978 -21
      vertex -82.7 112.978 -29
    endloop
  endfacet
  facet normal -1 0 0
    outer loop
      vertex -82.7 112.397 -29.8701
      vertex -82.7 112.397 -20.1299
      vertex -82.7 112.978 -21
    endloop
  endfacet
  facet normal -1 0 0
    outer loop
      vertex -82.7 111.707 -30.6569
      vertex -82.7 112.397 -20.1299
      vertex -82.7 112.397 -29.8701
    endloop
  endfacet
  facet normal -1 0 0
    outer loop
      vertex -82.7 111.707 -30.6569
      vertex -82.7 111.707 -19.3431
      vertex -82.7 112.397 -20.1299
    endloop
  endfacet
  facet normal -1 0 0
    outer loop
      vertex -82.7 110.92 -31.3468
      vertex -82.7 111.707 -19.3431
      vertex -82.7 111.707 -30.6569
    endloop
  endfacet
  facet normal -1 0 0
    outer loop
      vertex -82.7 110.92 -31.3468
      vertex -82.7 110.92 -18.6532
      vertex -82.7 111.707 -19.3431
    endloop
  endfacet
  facet normal -1 0 0
    outer loop
      vertex -82.7 110.05 -31.9282
      vertex -82.7 110.92 -18.6532
      vertex -82.7 110.92 -31.3468
    endloop
  endfacet
  facet normal -1 0 0
    outer loop
      vertex -82.7 110.05 -31.9282
      vertex -82.7 110.05 -18.0718
      vertex -82.7 110.92 -18.6532
    endloop
  endfacet
  facet normal -1 0 0
    outer loop
      vertex -82.7 109.111 -32.391
      vertex -82.7 110.05 -18.0718
      vertex -82.7 110.05 -31.9282
    endloop
  endfacet
  facet normal -1 0 0
    outer loop
      vertex -82.7 109.111 -32.391
      vertex -82.7 109.111 -17.609
      vertex -82.7 110.05 -18.0718
    endloop
  endfacet
  facet normal -1 0 0
    outer loop
      vertex -82.7 108.121 -32.7274
      vertex -82.7 109.111 -17.609
      vertex -82.7 109.111 -32.391
    endloop
  endfacet
  facet normal -1 0 0
    outer loop
      vertex -82.7 107.3 -17.1094
      vertex -82.7 109.111 -17.609
      vertex -82.7 108.121 -32.7274
    endloop
  endfacet
  facet normal -1 0 0
    outer loop
      vertex -82.7 109.111 -17.609
      vertex -82.7 107.3 -17.1094
      vertex -82.7 108.121 -17.2726
    endloop
  endfacet
  facet normal -1 0 0
    outer loop
      vertex -82.7 107.094 -32.9316
      vertex -82.7 107.3 -17.1094
      vertex -82.7 108.121 -32.7274
    endloop
  endfacet
  facet normal -1 0 0
    outer loop
      vertex -82.7 104.3 -17.2088
      vertex -82.7 107.3 -17.1094
      vertex -82.7 107.094 -32.9316
    endloop
  endfacet
  facet normal -1 0 0
    outer loop
      vertex -82.7 104.3 -17.2088
      vertex -82.7 107.094 -32.9316
      vertex -82.7 106.05 -33
    endloop
  endfacet
  facet normal -1 0 0
    outer loop
      vertex -82.7 104.3 -17.2088
      vertex -82.7 106.05 -33
      vertex -82.7 105.006 -32.9316
    endloop
  endfacet
  facet normal -1 0 0
    outer loop
      vertex -82.7 104.3 -13
      vertex -82.7 107.3 -17.1094
      vertex -82.7 104.3 -17.2088
    endloop
  endfacet
  facet normal -1 0 0
    outer loop
      vertex -82.7 104.3 -10
      vertex -82.7 107.3 -17.1094
      vertex -82.7 104.3 -13
    endloop
  endfacet
  facet normal -1 0 0
    outer loop
      vertex -82.7 107.3 -17.1094
      vertex -82.7 104.3 -10
      vertex -82.7 107.3 -3
    endloop
  endfacet
  facet normal -1 -0 0
    outer loop
      vertex -82.7 107.3 -3
      vertex -82.7 104.3 -10
      vertex -82.7 104.3 -3
    endloop
  endfacet
  facet normal -1 0 0
    outer loop
      vertex -82.7 0.299999 -34
      vertex -82.7 3.3 -13
      vertex -82.7 3.3 -34
    endloop
  endfacet
  facet normal -1 -0 0
    outer loop
      vertex -82.7 3.3 -13
      vertex -82.7 0.299999 -34
      vertex -82.7 3.3 -10
    endloop
  endfacet
  facet normal -1 0 0
    outer loop
      vertex -82.7 0.299999 21
      vertex -82.7 3.3 -10
      vertex -82.7 0.299999 -34
    endloop
  endfacet
  facet normal -1 0 0
    outer loop
      vertex -82.7 3.3 -10
      vertex -82.7 0.299999 21
      vertex -82.7 3.3 21
    endloop
  endfacet
  facet normal -0.297512 0 -0.954718
    outer loop
      vertex -80.9723 0.299999 -37.2919
      vertex -78.7 3.3 -38
      vertex -78.7 0.299999 -38
    endloop
  endfacet
  facet normal -0.297512 0 -0.954718
    outer loop
      vertex -78.7 3.3 -38
      vertex -80.9723 0.299999 -37.2919
      vertex -80.9723 3.3 -37.2919
    endloop
  endfacet
  facet normal -0.970939 0 -0.239327
    outer loop
      vertex -82.2418 0.299999 -35.8589
      vertex -82.7 3.3 -34
      vertex -82.2418 3.3 -35.8589
    endloop
  endfacet
  facet normal -0.970939 -0 -0.239327
    outer loop
      vertex -82.7 3.3 -34
      vertex -82.2418 0.299999 -35.8589
      vertex -82.7 0.299999 -34
    endloop
  endfacet
  facet normal 0 1 0
    outer loop
      vertex -71.1 3.3 -10
      vertex -65.2 3.3 -0.5
      vertex 71.1 3.3 -10
    endloop
  endfacet
  facet normal 0 1 0
    outer loop
      vertex -65.2 3.3 -0.5
      vertex -71.1 3.3 -10
      vertex -72.3 3.3 -8.8
    endloop
  endfacet
  facet normal 0 1 -0
    outer loop
      vertex 82.7 3.3 -10
      vertex 65.2 3.3 3.5
      vertex 82.7 3.3 21
    endloop
  endfacet
  facet normal 0 1 -0
    outer loop
      vertex 71.1 3.3 -10
      vertex 65.2 3.3 -0.5
      vertex 72.3 3.3 -8.8
    endloop
  endfacet
  facet normal -0 1 -0
    outer loop
      vertex 72.3 3.3 -8.8
      vertex 65.2 3.3 3.5
      vertex 82.7 3.3 -10
    endloop
  endfacet
  facet normal 0 1 0
    outer loop
      vertex 65.2 3.3 3.5
      vertex 72.3 3.3 -8.8
      vertex 65.2 3.3 -0.5
    endloop
  endfacet
  facet normal 0 1 0
    outer loop
      vertex 72.3 3.3 -8.8
      vertex 82.7 3.3 -10
      vertex 72.3 3.3 -10
    endloop
  endfacet
  facet normal 0 1 0
    outer loop
      vertex -72.3 3.3 -8.8
      vertex -65.2 3.3 3.5
      vertex -65.2 3.3 -0.5
    endloop
  endfacet
  facet normal 0 1 0
    outer loop
      vertex 65.2 3.3 -0.5
      vertex 71.1 3.3 -10
      vertex -65.2 3.3 -0.5
    endloop
  endfacet
  facet normal 0 1 0
    outer loop
      vertex -65.2 3.3 3.5
      vertex -72.3 3.3 -8.8
      vertex -82.7 3.3 -10
    endloop
  endfacet
  facet normal 0 1 0
    outer loop
      vertex -82.7 3.3 -10
      vertex -72.3 3.3 -8.8
      vertex -72.3 3.3 -10
    endloop
  endfacet
  facet normal 0 1 0
    outer loop
      vertex -65.2 3.3 3.5
      vertex -82.7 3.3 -10
      vertex -82.7 3.3 21
    endloop
  endfacet
  facet normal 0 1 0
    outer loop
      vertex 78.7 3.3 -38
      vertex 82.7 3.3 -13
      vertex 82.7 3.3 -34
    endloop
  endfacet
  facet normal 0 1 0
    outer loop
      vertex 82.7 3.3 -13
      vertex 78.7 3.3 -38
      vertex -82.7 3.3 -13
    endloop
  endfacet
  facet normal 0 1 0
    outer loop
      vertex -82.7 3.3 -13
      vertex -78.7 3.3 -38
      vertex -82.7 3.3 -34
    endloop
  endfacet
  facet normal 0 1 0
    outer loop
      vertex 78.7 3.3 -38
      vertex 82.7 3.3 -34
      vertex 81.9919 3.3 -36.2723
    endloop
  endfacet
  facet normal 0 1 0
    outer loop
      vertex -82.7 3.3 -13
      vertex 78.7 3.3 -38
      vertex -78.7 3.3 -38
    endloop
  endfacet
  facet normal 0 1 0
    outer loop
      vertex 78.7 3.3 -38
      vertex 81.9919 3.3 -36.2723
      vertex 80.5589 3.3 -37.5418
    endloop
  endfacet
  facet normal 0 1 0
    outer loop
      vertex -82.7 3.3 -34
      vertex -78.7 3.3 -38
      vertex -82.2418 3.3 -35.8589
    endloop
  endfacet
  facet normal 0 1 0
    outer loop
      vertex -82.2418 3.3 -35.8589
      vertex -78.7 3.3 -38
      vertex -80.9723 3.3 -37.2919
    endloop
  endfacet
  facet normal 1 -0 0
    outer loop
      vertex 82.7 0.299999 -13
      vertex 82.7 3.3 -34
      vertex 82.7 3.3 -13
    endloop
  endfacet
  facet normal 1 0 0
    outer loop
      vertex 82.7 3.3 -34
      vertex 82.7 0.299999 -13
      vertex 82.7 0.299999 -34
    endloop
  endfacet
  facet normal 1 -0 0
    outer loop
      vertex 82.7 0.299999 21
      vertex 82.7 3.3 -10
      vertex 82.7 3.3 21
    endloop
  endfacet
  facet normal 1 0 0
    outer loop
      vertex 82.7 3.3 -10
      vertex 82.7 0.299999 21
      vertex 82.7 0.299999 -10
    endloop
  endfacet
  facet normal 0 -1 0
    outer loop
      vertex -82.7 0.299999 21
      vertex -65.2 0.299999 -0.5
      vertex -65.2 0.299999 3.5
    endloop
  endfacet
  facet normal 0 -1 0
    outer loop
      vertex 78.7 0.299999 -38
      vertex 65.2 0.299999 -0.5
      vertex -65.2 0.299999 -0.5
    endloop
  endfacet
  facet normal 0 -1 0
    outer loop
      vertex 65.2 0.299999 -0.5
      vertex 82.7 0.299999 -13
      vertex 82.7 0.299999 -10
    endloop
  endfacet
  facet normal 0 -1 0
    outer loop
      vertex -82.7 0.299999 -34
      vertex -65.2 0.299999 -0.5
      vertex -82.7 0.299999 21
    endloop
  endfacet
  facet normal 0 -1 0
    outer loop
      vertex -78.7 0.299999 -38
      vertex -65.2 0.299999 -0.5
      vertex -82.7 0.299999 -34
    endloop
  endfacet
  facet normal 0 -1 0
    outer loop
      vertex 78.7 0.299999 -38
      vertex -65.2 0.299999 -0.5
      vertex -78.7 0.299999 -38
    endloop
  endfacet
  facet normal 0 -1 0
    outer loop
      vertex -78.7 0.299999 -38
      vertex -82.7 0.299999 -34
      vertex -82.2418 0.299999 -35.8589
    endloop
  endfacet
  facet normal 0 -1 0
    outer loop
      vertex 65.2 0.299999 -0.5
      vertex 78.7 0.299999 -38
      vertex 82.7 0.299999 -13
    endloop
  endfacet
  facet normal 0 -1 0
    outer loop
      vertex -78.7 0.299999 -38
      vertex -82.2418 0.299999 -35.8589
      vertex -80.9723 0.299999 -37.2919
    endloop
  endfacet
  facet normal 0 -1 -0
    outer loop
      vertex 82.7 0.299999 -13
      vertex 78.7 0.299999 -38
      vertex 82.7 0.299999 -34
    endloop
  endfacet
  facet normal 0 -1 0
    outer loop
      vertex 82.7 0.299999 -34
      vertex 78.7 0.299999 -38
      vertex 81.9919 0.299999 -36.2723
    endloop
  endfacet
  facet normal 0 -1 0
    outer loop
      vertex 81.9919 0.299999 -36.2723
      vertex 78.7 0.299999 -38
      vertex 80.5589 0.299999 -37.5418
    endloop
  endfacet
  facet normal 0 -1 0
    outer loop
      vertex 82.7 0.299999 -10
      vertex 65.2 0.299999 3.5
      vertex 65.2 0.299999 -0.5
    endloop
  endfacet
  facet normal 0 -1 0
    outer loop
      vertex 65.2 0.299999 3.5
      vertex 82.7 0.299999 -10
      vertex 82.7 0.299999 21
    endloop
  endfacet
  facet normal -0.707107 0 0.707107
    outer loop
      vertex 65.2 3.3 3.5
      vertex 82.7 0.299999 21
      vertex 82.7 3.3 21
    endloop
  endfacet
  facet normal -0.707107 0 0.707107
    outer loop
      vertex 82.7 0.299999 21
      vertex 65.2 3.3 3.5
      vertex 65.2 0.299999 3.5
    endloop
  endfacet
  facet normal 0.707107 -0 0.707107
    outer loop
      vertex -82.7 0.299999 21
      vertex -65.2 3.3 3.5
      vertex -82.7 3.3 21
    endloop
  endfacet
  facet normal 0.707107 0 0.707107
    outer loop
      vertex -65.2 3.3 3.5
      vertex -82.7 0.299999 21
      vertex -65.2 0.299999 3.5
    endloop
  endfacet
  facet normal 1 -0 0
    outer loop
      vertex -65.2 0.299999 3.5
      vertex -65.2 3.3 -0.5
      vertex -65.2 3.3 3.5
    endloop
  endfacet
  facet normal 1 0 0
    outer loop
      vertex -65.2 3.3 -0.5
      vertex -65.2 0.299999 3.5
      vertex -65.2 0.299999 -0.5
    endloop
  endfacet
  facet normal -0 0 1
    outer loop
      vertex -65.2 3.3 -0.5
      vertex 65.2 0.299999 -0.5
      vertex 65.2 3.3 -0.5
    endloop
  endfacet
  facet normal 0 0 1
    outer loop
      vertex 65.2 0.299999 -0.5
      vertex -65.2 3.3 -0.5
      vertex -65.2 0.299999 -0.5
    endloop
  endfacet
  facet normal -1 0 0
    outer loop
      vertex 65.2 0.299999 -0.5
      vertex 65.2 3.3 3.5
      vertex 65.2 3.3 -0.5
    endloop
  endfacet
  facet normal -1 -0 0
    outer loop
      vertex 65.2 3.3 3.5
      vertex 65.2 0.299999 -0.5
      vertex 65.2 0.299999 3.5
    endloop
  endfacet
  facet normal -1 0 0
    outer loop
      vertex -72.3 3.3 -10
      vertex -72.3 104.3 -8.8
      vertex -72.3 104.3 -10
    endloop
  endfacet
  facet normal -1 -0 0
    outer loop
      vertex -72.3 104.3 -8.8
      vertex -72.3 3.3 -10
      vertex -72.3 3.3 -8.8
    endloop
  endfacet
  facet normal 0.707107 -0 0.707107
    outer loop
      vertex -72.3 3.3 -8.8
      vertex -71.1 104.3 -10
      vertex -72.3 104.3 -8.8
    endloop
  endfacet
  facet normal 0.707107 0 0.707107
    outer loop
      vertex -71.1 104.3 -10
      vertex -72.3 3.3 -8.8
      vertex -71.1 3.3 -10
    endloop
  endfacet
  facet normal 0 1 -0
    outer loop
      vertex 82.7 107.3 -17.1094
      vertex -82.7 107.3 -3
      vertex 82.7 107.3 -3
    endloop
  endfacet
  facet normal 0 1 0
    outer loop
      vertex -82.7 107.3 -3
      vertex 82.7 107.3 -17.1094
      vertex -82.7 107.3 -17.1094
    endloop
  endfacet
  facet normal -0 0 1
    outer loop
      vertex -82.7 104.3 -10
      vertex -72.3 3.3 -10
      vertex -72.3 104.3 -10
    endloop
  endfacet
  facet normal 0 0 1
    outer loop
      vertex -72.3 3.3 -10
      vertex -82.7 104.3 -10
      vertex -82.7 3.3 -10
    endloop
  endfacet
  facet normal -0 0 1
    outer loop
      vertex 72.3 104.3 -10
      vertex 82.7 3.3 -10
      vertex 82.7 104.3 -10
    endloop
  endfacet
  facet normal 0 0 1
    outer loop
      vertex 82.7 3.3 -10
      vertex 72.3 104.3 -10
      vertex 72.3 3.3 -10
    endloop
  endfacet
  facet normal 0 0 0
    outer loop
      vertex 82.7 104.3 -10
      vertex 82.7 3.3 -10
      vertex 82.7 0.299999 -10
    endloop
  endfacet
  facet normal -0 0 1
    outer loop
      vertex -71.1 104.3 -10
      vertex 71.1 3.3 -10
      vertex 71.1 104.3 -10
    endloop
  endfacet
  facet normal 0 0 1
    outer loop
      vertex 71.1 3.3 -10
      vertex -71.1 104.3 -10
      vertex -71.1 3.3 -10
    endloop
  endfacet
  facet normal -0.707107 0 0.707107
    outer loop
      vertex 71.1 3.3 -10
      vertex 72.3 104.3 -8.8
      vertex 71.1 104.3 -10
    endloop
  endfacet
  facet normal -0.707107 0 0.707107
    outer loop
      vertex 72.3 104.3 -8.8
      vertex 71.1 3.3 -10
      vertex 72.3 3.3 -8.8
    endloop
  endfacet
  facet normal 1 -0 0
    outer loop
      vertex 72.3 3.3 -8.8
      vertex 72.3 104.3 -10
      vertex 72.3 104.3 -8.8
    endloop
  endfacet
  facet normal 1 0 0
    outer loop
      vertex 72.3 104.3 -10
      vertex 72.3 3.3 -8.8
      vertex 72.3 3.3 -10
    endloop
  endfacet
  facet normal 1 -0 0
    outer loop
      vertex 82.7 0.299999 -10
      vertex 82.7 104.3 -13
      vertex 82.7 104.3 -10
    endloop
  endfacet
  facet normal 1 0 0
    outer loop
      vertex 82.7 104.3 -13
      vertex 82.7 0.299999 -10
      vertex 82.7 0.299999 -13
    endloop
  endfacet
  facet normal 1 -0 0
    outer loop
      vertex 82.7 104.3 -10
      vertex 82.7 107.3 -17.1094
      vertex 82.7 107.3 -3
    endloop
  endfacet
  facet normal 1 0 0
    outer loop
      vertex 82.7 107.3 -17.1094
      vertex 82.7 104.3 -17.2088
      vertex 82.7 107.094 -32.9316
    endloop
  endfacet
  facet normal 1 0 0
    outer loop
      vertex 82.7 107.094 -32.9316
      vertex 82.7 104.3 -17.2088
      vertex 82.7 106.05 -33
    endloop
  endfacet
  facet normal 1 0 0
    outer loop
      vertex 82.7 104.3 -10
      vertex 82.7 107.3 -3
      vertex 82.7 104.3 -3
    endloop
  endfacet
  facet normal 1 0 0
    outer loop
      vertex 82.7 107.3 -17.1094
      vertex 82.7 104.3 -10
      vertex 82.7 104.3 -13
    endloop
  endfacet
  facet normal 1 0 0
    outer loop
      vertex 82.7 107.3 -17.1094
      vertex 82.7 104.3 -13
      vertex 82.7 104.3 -17.2088
    endloop
  endfacet
  facet normal 1 0 0
    outer loop
      vertex 82.7 106.05 -33
      vertex 82.7 104.3 -17.2088
      vertex 82.7 105.006 -32.9316
    endloop
  endfacet
  facet normal 1 0 0
    outer loop
      vertex 82.7 102.989 -17.609
      vertex 82.7 104.3 -17.2088
      vertex 82.7 103.979 -17.2726
    endloop
  endfacet
  facet normal 1 0 0
    outer loop
      vertex 82.7 104.3 -17.2088
      vertex 82.7 103.979 -32.7274
      vertex 82.7 105.006 -32.9316
    endloop
  endfacet
  facet normal 1 0 0
    outer loop
      vertex 82.7 102.05 -18.0718
      vertex 82.7 104.3 -17.2088
      vertex 82.7 102.989 -17.609
    endloop
  endfacet
  facet normal 1 0 0
    outer loop
      vertex 82.7 104.3 -17.2088
      vertex 82.7 102.989 -32.391
      vertex 82.7 103.979 -32.7274
    endloop
  endfacet
  facet normal 1 0 0
    outer loop
      vertex 82.7 104.3 -17.2088
      vertex 82.7 102.05 -18.0718
      vertex 82.7 102.989 -32.391
    endloop
  endfacet
  facet normal 1 0 0
    outer loop
      vertex 82.7 102.05 -18.0718
      vertex 82.7 102.05 -31.9282
      vertex 82.7 102.989 -32.391
    endloop
  endfacet
  facet normal 1 -0 0
    outer loop
      vertex 82.7 101.18 -18.6532
      vertex 82.7 102.05 -31.9282
      vertex 82.7 102.05 -18.0718
    endloop
  endfacet
  facet normal 1 0 0
    outer loop
      vertex 82.7 101.18 -18.6532
      vertex 82.7 101.18 -31.3468
      vertex 82.7 102.05 -31.9282
    endloop
  endfacet
  facet normal 1 -0 0
    outer loop
      vertex 82.7 100.393 -19.3431
      vertex 82.7 101.18 -31.3468
      vertex 82.7 101.18 -18.6532
    endloop
  endfacet
  facet normal 1 0 0
    outer loop
      vertex 82.7 100.393 -19.3431
      vertex 82.7 100.393 -30.6569
      vertex 82.7 101.18 -31.3468
    endloop
  endfacet
  facet normal 1 -0 0
    outer loop
      vertex 82.7 99.7032 -20.1299
      vertex 82.7 100.393 -30.6569
      vertex 82.7 100.393 -19.3431
    endloop
  endfacet
  facet normal 1 0 0
    outer loop
      vertex 82.7 99.7032 -20.1299
      vertex 82.7 99.7032 -29.8701
      vertex 82.7 100.393 -30.6569
    endloop
  endfacet
  facet normal 1 -0 0
    outer loop
      vertex 82.7 99.1218 -21
      vertex 82.7 99.7032 -29.8701
      vertex 82.7 99.7032 -20.1299
    endloop
  endfacet
  facet normal 1 0 0
    outer loop
      vertex 82.7 99.1218 -21
      vertex 82.7 99.1218 -29
      vertex 82.7 99.7032 -29.8701
    endloop
  endfacet
  facet normal 1 -0 0
    outer loop
      vertex 82.7 98.659 -21.9385
      vertex 82.7 99.1218 -29
      vertex 82.7 99.1218 -21
    endloop
  endfacet
  facet normal 1 0 0
    outer loop
      vertex 82.7 98.659 -21.9385
      vertex 82.7 98.659 -28.0615
      vertex 82.7 99.1218 -29
    endloop
  endfacet
  facet normal 1 -0 0
    outer loop
      vertex 82.7 98.3226 -22.9294
      vertex 82.7 98.659 -28.0615
      vertex 82.7 98.659 -21.9385
    endloop
  endfacet
  facet normal 1 0 0
    outer loop
      vertex 82.7 98.3226 -22.9294
      vertex 82.7 98.3226 -27.0706
      vertex 82.7 98.659 -28.0615
    endloop
  endfacet
  facet normal 1 -0 0
    outer loop
      vertex 82.7 98.1184 -23.9558
      vertex 82.7 98.3226 -27.0706
      vertex 82.7 98.3226 -22.9294
    endloop
  endfacet
  facet normal 1 0 0
    outer loop
      vertex 82.7 98.1184 -23.9558
      vertex 82.7 98.1184 -26.0442
      vertex 82.7 98.3226 -27.0706
    endloop
  endfacet
  facet normal 1 0 -0
    outer loop
      vertex 82.7 98.1184 -26.0442
      vertex 82.7 98.1184 -23.9558
      vertex 82.7 98.05 -25
    endloop
  endfacet
  facet normal 1 0 0
    outer loop
      vertex 82.7 113.982 -23.9558
      vertex 82.7 113.982 -26.0442
      vertex 82.7 114.05 -25
    endloop
  endfacet
  facet normal 1 0 0
    outer loop
      vertex 82.7 113.777 -22.9294
      vertex 82.7 113.982 -26.0442
      vertex 82.7 113.982 -23.9558
    endloop
  endfacet
  facet normal 1 0 0
    outer loop
      vertex 82.7 113.777 -22.9294
      vertex 82.7 113.777 -27.0706
      vertex 82.7 113.982 -26.0442
    endloop
  endfacet
  facet normal 1 0 0
    outer loop
      vertex 82.7 113.441 -21.9385
      vertex 82.7 113.777 -27.0706
      vertex 82.7 113.777 -22.9294
    endloop
  endfacet
  facet normal 1 0 0
    outer loop
      vertex 82.7 113.441 -21.9385
      vertex 82.7 113.441 -28.0615
      vertex 82.7 113.777 -27.0706
    endloop
  endfacet
  facet normal 1 0 0
    outer loop
      vertex 82.7 112.978 -21
      vertex 82.7 113.441 -28.0615
      vertex 82.7 113.441 -21.9385
    endloop
  endfacet
  facet normal 1 0 0
    outer loop
      vertex 82.7 112.978 -21
      vertex 82.7 112.978 -29
      vertex 82.7 113.441 -28.0615
    endloop
  endfacet
  facet normal 1 0 0
    outer loop
      vertex 82.7 112.397 -20.1299
      vertex 82.7 112.978 -29
      vertex 82.7 112.978 -21
    endloop
  endfacet
  facet normal 1 0 0
    outer loop
      vertex 82.7 112.397 -20.1299
      vertex 82.7 112.397 -29.8701
      vertex 82.7 112.978 -29
    endloop
  endfacet
  facet normal 1 0 0
    outer loop
      vertex 82.7 111.707 -19.3431
      vertex 82.7 112.397 -29.8701
      vertex 82.7 112.397 -20.1299
    endloop
  endfacet
  facet normal 1 0 0
    outer loop
      vertex 82.7 111.707 -19.3431
      vertex 82.7 111.707 -30.6569
      vertex 82.7 112.397 -29.8701
    endloop
  endfacet
  facet normal 1 0 0
    outer loop
      vertex 82.7 110.92 -18.6532
      vertex 82.7 111.707 -30.6569
      vertex 82.7 111.707 -19.3431
    endloop
  endfacet
  facet normal 1 0 0
    outer loop
      vertex 82.7 110.92 -18.6532
      vertex 82.7 110.92 -31.3468
      vertex 82.7 111.707 -30.6569
    endloop
  endfacet
  facet normal 1 0 0
    outer loop
      vertex 82.7 110.05 -18.0718
      vertex 82.7 110.92 -31.3468
      vertex 82.7 110.92 -18.6532
    endloop
  endfacet
  facet normal 1 0 0
    outer loop
      vertex 82.7 110.05 -18.0718
      vertex 82.7 110.05 -31.9282
      vertex 82.7 110.92 -31.3468
    endloop
  endfacet
  facet normal 1 0 0
    outer loop
      vertex 82.7 109.111 -17.609
      vertex 82.7 110.05 -31.9282
      vertex 82.7 110.05 -18.0718
    endloop
  endfacet
  facet normal 1 0 0
    outer loop
      vertex 82.7 109.111 -17.609
      vertex 82.7 109.111 -32.391
      vertex 82.7 110.05 -31.9282
    endloop
  endfacet
  facet normal 1 0 0
    outer loop
      vertex 82.7 107.3 -17.1094
      vertex 82.7 109.111 -17.609
      vertex 82.7 108.121 -17.2726
    endloop
  endfacet
  facet normal 1 0 0
    outer loop
      vertex 82.7 109.111 -17.609
      vertex 82.7 107.3 -17.1094
      vertex 82.7 109.111 -32.391
    endloop
  endfacet
  facet normal 1 0 0
    outer loop
      vertex 82.7 109.111 -32.391
      vertex 82.7 107.3 -17.1094
      vertex 82.7 108.121 -32.7274
    endloop
  endfacet
  facet normal 1 0 0
    outer loop
      vertex 82.7 108.121 -32.7274
      vertex 82.7 107.3 -17.1094
      vertex 82.7 107.094 -32.9316
    endloop
  endfacet
  facet normal 0 0 -1
    outer loop
      vertex -82.7 3.3 -13
      vertex 82.7 104.3 -13
      vertex 82.7 3.3 -13
    endloop
  endfacet
  facet normal -0 0 -1
    outer loop
      vertex 82.7 104.3 -13
      vertex -82.7 3.3 -13
      vertex -82.7 104.3 -13
    endloop
  endfacet
  facet normal 0 0 0
    outer loop
      vertex 82.7 0.299999 -13
      vertex 82.7 3.3 -13
      vertex 82.7 104.3 -13
    endloop
  endfacet
  facet normal -0 0 1
    outer loop
      vertex -82.7 107.3 -3
      vertex 82.7 104.3 -3
      vertex 82.7 107.3 -3
    endloop
  endfacet
  facet normal 0 0 1
    outer loop
      vertex 82.7 104.3 -3
      vertex -82.7 107.3 -3
      vertex -82.7 104.3 -3
    endloop
  endfacet
  facet normal 0 -1 0
    outer loop
      vertex -71.1 104.3 -10
      vertex 72.3 104.3 -8.8
      vertex -72.3 104.3 -8.8
    endloop
  endfacet
  facet normal 0 -1 0
    outer loop
      vertex 72.3 104.3 -8.8
      vertex -71.1 104.3 -10
      vertex 71.1 104.3 -10
    endloop
  endfacet
  facet normal 0 -1 0
    outer loop
      vertex -82.7 104.3 -3
      vertex -72.3 104.3 -8.8
      vertex 82.7 104.3 -3
    endloop
  endfacet
  facet normal 0 -1 0
    outer loop
      vertex -82.7 104.3 -10
      vertex -72.3 104.3 -8.8
      vertex -82.7 104.3 -3
    endloop
  endfacet
  facet normal 0 -1 -0
    outer loop
      vertex -72.3 104.3 -8.8
      vertex -82.7 104.3 -10
      vertex -72.3 104.3 -10
    endloop
  endfacet
  facet normal 0 -1 0
    outer loop
      vertex 72.3 104.3 -8.8
      vertex 82.7 104.3 -3
      vertex -72.3 104.3 -8.8
    endloop
  endfacet
  facet normal 0 -1 0
    outer loop
      vertex 82.7 104.3 -10
      vertex 72.3 104.3 -8.8
      vertex 72.3 104.3 -10
    endloop
  endfacet
  facet normal 0 -1 0
    outer loop
      vertex 72.3 104.3 -8.8
      vertex 82.7 104.3 -10
      vertex 82.7 104.3 -3
    endloop
  endfacet
  facet normal 0 -1 0
    outer loop
      vertex -82.7 104.3 -17.2088
      vertex 82.7 104.3 -13
      vertex -82.7 104.3 -13
    endloop
  endfacet
  facet normal 0 -1 -0
    outer loop
      vertex 82.7 104.3 -13
      vertex -82.7 104.3 -17.2088
      vertex 82.7 104.3 -17.2088
    endloop
  endfacet
  facet normal 0 -0.94692 -0.321469
    outer loop
      vertex -82.7 98.659 -28.0615
      vertex 82.7 98.3226 -27.0706
      vertex -82.7 98.3226 -27.0706
    endloop
  endfacet
  facet normal 0 -0.94692 -0.321469
    outer loop
      vertex 82.7 98.3226 -27.0706
      vertex -82.7 98.659 -28.0615
      vertex 82.7 98.659 -28.0615
    endloop
  endfacet
  facet normal 0 0.321731 -0.946831
    outer loop
      vertex -82.7 108.121 -32.7274
      vertex 82.7 109.111 -32.391
      vertex 82.7 108.121 -32.7274
    endloop
  endfacet
  facet normal 0 0.321731 -0.946831
    outer loop
      vertex 82.7 109.111 -32.391
      vertex -82.7 108.121 -32.7274
      vertex -82.7 109.111 -32.391
    endloop
  endfacet
  facet normal 0 0.555626 -0.831432
    outer loop
      vertex -82.7 110.05 -31.9282
      vertex 82.7 110.92 -31.3468
      vertex 82.7 110.05 -31.9282
    endloop
  endfacet
  facet normal 0 0.555626 -0.831432
    outer loop
      vertex 82.7 110.92 -31.3468
      vertex -82.7 110.05 -31.9282
      vertex -82.7 110.92 -31.3468
    endloop
  endfacet
  facet normal 0 0.831638 -0.555318
    outer loop
      vertex 82.7 112.397 -29.8701
      vertex -82.7 112.978 -29
      vertex 82.7 112.978 -29
    endloop
  endfacet
  facet normal 0 0.831638 -0.555318
    outer loop
      vertex -82.7 112.978 -29
      vertex 82.7 112.397 -29.8701
      vertex -82.7 112.397 -29.8701
    endloop
  endfacet
  facet normal 0 0.0653771 -0.997861
    outer loop
      vertex -82.7 106.05 -33
      vertex 82.7 107.094 -32.9316
      vertex 82.7 106.05 -33
    endloop
  endfacet
  facet normal 0 0.0653771 -0.997861
    outer loop
      vertex 82.7 107.094 -32.9316
      vertex -82.7 106.05 -33
      vertex -82.7 107.094 -32.9316
    endloop
  endfacet
  facet normal 0 0.442086 -0.896973
    outer loop
      vertex -82.7 109.111 -32.391
      vertex 82.7 110.05 -31.9282
      vertex 82.7 109.111 -32.391
    endloop
  endfacet
  facet normal 0 0.442086 -0.896973
    outer loop
      vertex 82.7 110.05 -31.9282
      vertex -82.7 109.111 -32.391
      vertex -82.7 110.05 -31.9282
    endloop
  endfacet
  facet normal 0 -0.555626 -0.831432
    outer loop
      vertex -82.7 101.18 -31.3468
      vertex 82.7 102.05 -31.9282
      vertex 82.7 101.18 -31.3468
    endloop
  endfacet
  facet normal -0 -0.555626 -0.831432
    outer loop
      vertex 82.7 102.05 -31.9282
      vertex -82.7 101.18 -31.3468
      vertex -82.7 102.05 -31.9282
    endloop
  endfacet
  facet normal 0 0.947036 -0.321126
    outer loop
      vertex 82.7 113.441 -28.0615
      vertex -82.7 113.777 -27.0706
      vertex 82.7 113.777 -27.0706
    endloop
  endfacet
  facet normal 0 0.947036 -0.321126
    outer loop
      vertex -82.7 113.777 -27.0706
      vertex 82.7 113.441 -28.0615
      vertex -82.7 113.441 -28.0615
    endloop
  endfacet
  facet normal 0 -0.321731 -0.946831
    outer loop
      vertex -82.7 102.989 -32.391
      vertex 82.7 103.979 -32.7274
      vertex 82.7 102.989 -32.391
    endloop
  endfacet
  facet normal -0 -0.321731 -0.946831
    outer loop
      vertex 82.7 103.979 -32.7274
      vertex -82.7 102.989 -32.391
      vertex -82.7 103.979 -32.7274
    endloop
  endfacet
  facet normal -0 0.659194 0.751973
    outer loop
      vertex -82.7 111.707 -19.3431
      vertex 82.7 110.92 -18.6532
      vertex 82.7 111.707 -19.3431
    endloop
  endfacet
  facet normal 0 0.659194 0.751973
    outer loop
      vertex 82.7 110.92 -18.6532
      vertex -82.7 111.707 -19.3431
      vertex -82.7 110.92 -18.6532
    endloop
  endfacet
  facet normal 0 0.997886 -0.064984
    outer loop
      vertex 82.7 113.982 -26.0442
      vertex -82.7 114.05 -25
      vertex 82.7 114.05 -25
    endloop
  endfacet
  facet normal 0 0.997886 -0.064984
    outer loop
      vertex -82.7 114.05 -25
      vertex 82.7 113.982 -26.0442
      vertex -82.7 113.982 -26.0442
    endloop
  endfacet
  facet normal 0 -0.194941 0.980815
    outer loop
      vertex -82.7 104.3 -17.2088
      vertex 82.7 103.979 -17.2726
      vertex 82.7 104.3 -17.2088
    endloop
  endfacet
  facet normal 0 -0.194941 0.980815
    outer loop
      vertex 82.7 103.979 -17.2726
      vertex -82.7 104.3 -17.2088
      vertex -82.7 103.979 -17.2726
    endloop
  endfacet
  facet normal 0 0.980632 0.195859
    outer loop
      vertex 82.7 113.982 -23.9558
      vertex -82.7 113.777 -22.9294
      vertex 82.7 113.777 -22.9294
    endloop
  endfacet
  facet normal 0 0.980632 0.195859
    outer loop
      vertex -82.7 113.777 -22.9294
      vertex 82.7 113.982 -23.9558
      vertex -82.7 113.982 -23.9558
    endloop
  endfacet
  facet normal 0 0.896803 0.442429
    outer loop
      vertex 82.7 113.441 -21.9385
      vertex -82.7 112.978 -21
      vertex 82.7 112.978 -21
    endloop
  endfacet
  facet normal 0 0.896803 0.442429
    outer loop
      vertex -82.7 112.978 -21
      vertex 82.7 113.441 -21.9385
      vertex -82.7 113.441 -21.9385
    endloop
  endfacet
  facet normal -0 0.194967 0.98081
    outer loop
      vertex -82.7 108.121 -17.2726
      vertex 82.7 107.3 -17.1094
      vertex 82.7 108.121 -17.2726
    endloop
  endfacet
  facet normal 0 0.194967 0.98081
    outer loop
      vertex 82.7 107.3 -17.1094
      vertex -82.7 108.121 -17.2726
      vertex -82.7 107.3 -17.1094
    endloop
  endfacet
  facet normal 0 -0.980779 -0.195124
    outer loop
      vertex -82.7 98.3226 -27.0706
      vertex 82.7 98.1184 -26.0442
      vertex -82.7 98.1184 -26.0442
    endloop
  endfacet
  facet normal 0 -0.980779 -0.195124
    outer loop
      vertex 82.7 98.1184 -26.0442
      vertex -82.7 98.3226 -27.0706
      vertex 82.7 98.3226 -27.0706
    endloop
  endfacet
  facet normal 0 -0.659194 0.751973
    outer loop
      vertex -82.7 101.18 -18.6532
      vertex 82.7 100.393 -19.3431
      vertex 82.7 101.18 -18.6532
    endloop
  endfacet
  facet normal 0 -0.659194 0.751973
    outer loop
      vertex 82.7 100.393 -19.3431
      vertex -82.7 101.18 -18.6532
      vertex -82.7 100.393 -19.3431
    endloop
  endfacet
  facet normal 0 0.659194 -0.751973
    outer loop
      vertex -82.7 110.92 -31.3468
      vertex 82.7 111.707 -30.6569
      vertex 82.7 110.92 -31.3468
    endloop
  endfacet
  facet normal 0 0.659194 -0.751973
    outer loop
      vertex 82.7 111.707 -30.6569
      vertex -82.7 110.92 -31.3468
      vertex -82.7 111.707 -30.6569
    endloop
  endfacet
  facet normal 0 -0.831462 -0.555582
    outer loop
      vertex -82.7 99.7032 -29.8701
      vertex 82.7 99.1218 -29
      vertex -82.7 99.1218 -29
    endloop
  endfacet
  facet normal 0 -0.831462 -0.555582
    outer loop
      vertex 82.7 99.1218 -29
      vertex -82.7 99.7032 -29.8701
      vertex 82.7 99.7032 -29.8701
    endloop
  endfacet
  facet normal 0 -0.0653771 -0.997861
    outer loop
      vertex -82.7 105.006 -32.9316
      vertex 82.7 106.05 -33
      vertex 82.7 105.006 -32.9316
    endloop
  endfacet
  facet normal -0 -0.0653771 -0.997861
    outer loop
      vertex 82.7 106.05 -33
      vertex -82.7 105.006 -32.9316
      vertex -82.7 106.05 -33
    endloop
  endfacet
  facet normal 0 0.751842 -0.659343
    outer loop
      vertex 82.7 111.707 -30.6569
      vertex -82.7 112.397 -29.8701
      vertex 82.7 112.397 -29.8701
    endloop
  endfacet
  facet normal 0 0.751842 -0.659343
    outer loop
      vertex -82.7 112.397 -29.8701
      vertex 82.7 111.707 -30.6569
      vertex -82.7 111.707 -30.6569
    endloop
  endfacet
  facet normal 0 -0.94692 0.321469
    outer loop
      vertex -82.7 98.3226 -22.9294
      vertex 82.7 98.659 -21.9385
      vertex -82.7 98.659 -21.9385
    endloop
  endfacet
  facet normal 0 -0.94692 0.321469
    outer loop
      vertex 82.7 98.659 -21.9385
      vertex -82.7 98.3226 -22.9294
      vertex 82.7 98.3226 -22.9294
    endloop
  endfacet
  facet normal 0 -0.195014 -0.9808
    outer loop
      vertex -82.7 103.979 -32.7274
      vertex 82.7 105.006 -32.9316
      vertex 82.7 103.979 -32.7274
    endloop
  endfacet
  facet normal -0 -0.195014 -0.9808
    outer loop
      vertex 82.7 105.006 -32.9316
      vertex -82.7 103.979 -32.7274
      vertex -82.7 105.006 -32.9316
    endloop
  endfacet
  facet normal 0 0.195014 -0.9808
    outer loop
      vertex -82.7 107.094 -32.9316
      vertex 82.7 108.121 -32.7274
      vertex 82.7 107.094 -32.9316
    endloop
  endfacet
  facet normal 0 0.195014 -0.9808
    outer loop
      vertex 82.7 108.121 -32.7274
      vertex -82.7 107.094 -32.9316
      vertex -82.7 108.121 -32.7274
    endloop
  endfacet
  facet normal 0 0.751842 0.659343
    outer loop
      vertex 82.7 112.397 -20.1299
      vertex -82.7 111.707 -19.3431
      vertex 82.7 111.707 -19.3431
    endloop
  endfacet
  facet normal 0 0.751842 0.659343
    outer loop
      vertex -82.7 111.707 -19.3431
      vertex 82.7 112.397 -20.1299
      vertex -82.7 112.397 -20.1299
    endloop
  endfacet
  facet normal 0 -0.896879 0.442276
    outer loop
      vertex -82.7 98.659 -21.9385
      vertex 82.7 99.1218 -21
      vertex -82.7 99.1218 -21
    endloop
  endfacet
  facet normal 0 -0.896879 0.442276
    outer loop
      vertex 82.7 99.1218 -21
      vertex -82.7 98.659 -21.9385
      vertex 82.7 98.659 -21.9385
    endloop
  endfacet
  facet normal 0 0.980632 -0.195859
    outer loop
      vertex 82.7 113.777 -27.0706
      vertex -82.7 113.982 -26.0442
      vertex 82.7 113.982 -26.0442
    endloop
  endfacet
  facet normal 0 0.980632 -0.195859
    outer loop
      vertex -82.7 113.982 -26.0442
      vertex 82.7 113.777 -27.0706
      vertex -82.7 113.777 -27.0706
    endloop
  endfacet
  facet normal 0 -0.997861 -0.0653646
    outer loop
      vertex -82.7 98.1184 -26.0442
      vertex 82.7 98.05 -25
      vertex -82.7 98.05 -25
    endloop
  endfacet
  facet normal 0 -0.997861 -0.0653646
    outer loop
      vertex 82.7 98.05 -25
      vertex -82.7 98.1184 -26.0442
      vertex 82.7 98.1184 -26.0442
    endloop
  endfacet
  facet normal 0 -0.442086 0.896973
    outer loop
      vertex -82.7 102.989 -17.609
      vertex 82.7 102.05 -18.0718
      vertex 82.7 102.989 -17.609
    endloop
  endfacet
  facet normal 0 -0.442086 0.896973
    outer loop
      vertex 82.7 102.05 -18.0718
      vertex -82.7 102.989 -17.609
      vertex -82.7 102.05 -18.0718
    endloop
  endfacet
  facet normal 0 0.831638 0.555318
    outer loop
      vertex 82.7 112.978 -21
      vertex -82.7 112.397 -20.1299
      vertex 82.7 112.397 -20.1299
    endloop
  endfacet
  facet normal 0 0.831638 0.555318
    outer loop
      vertex -82.7 112.397 -20.1299
      vertex 82.7 112.978 -21
      vertex -82.7 112.978 -21
    endloop
  endfacet
  facet normal 0 -0.896879 -0.442276
    outer loop
      vertex -82.7 99.1218 -29
      vertex 82.7 98.659 -28.0615
      vertex -82.7 98.659 -28.0615
    endloop
  endfacet
  facet normal 0 -0.896879 -0.442276
    outer loop
      vertex 82.7 98.659 -28.0615
      vertex -82.7 99.1218 -29
      vertex 82.7 99.1218 -29
    endloop
  endfacet
  facet normal 0 -0.555626 0.831432
    outer loop
      vertex -82.7 102.05 -18.0718
      vertex 82.7 101.18 -18.6532
      vertex 82.7 102.05 -18.0718
    endloop
  endfacet
  facet normal 0 -0.555626 0.831432
    outer loop
      vertex 82.7 101.18 -18.6532
      vertex -82.7 102.05 -18.0718
      vertex -82.7 101.18 -18.6532
    endloop
  endfacet
  facet normal 0 0.997886 0.064984
    outer loop
      vertex 82.7 114.05 -25
      vertex -82.7 113.982 -23.9558
      vertex 82.7 113.982 -23.9558
    endloop
  endfacet
  facet normal 0 0.997886 0.064984
    outer loop
      vertex -82.7 113.982 -23.9558
      vertex 82.7 114.05 -25
      vertex -82.7 114.05 -25
    endloop
  endfacet
  facet normal 0 0.896803 -0.442429
    outer loop
      vertex 82.7 112.978 -29
      vertex -82.7 113.441 -28.0615
      vertex 82.7 113.441 -28.0615
    endloop
  endfacet
  facet normal 0 0.896803 -0.442429
    outer loop
      vertex -82.7 113.441 -28.0615
      vertex 82.7 112.978 -29
      vertex -82.7 112.978 -29
    endloop
  endfacet
  facet normal 0 -0.442086 -0.896973
    outer loop
      vertex -82.7 102.05 -31.9282
      vertex 82.7 102.989 -32.391
      vertex 82.7 102.05 -31.9282
    endloop
  endfacet
  facet normal -0 -0.442086 -0.896973
    outer loop
      vertex 82.7 102.989 -32.391
      vertex -82.7 102.05 -31.9282
      vertex -82.7 102.989 -32.391
    endloop
  endfacet
  facet normal -0 0.555626 0.831432
    outer loop
      vertex -82.7 110.92 -18.6532
      vertex 82.7 110.05 -18.0718
      vertex 82.7 110.92 -18.6532
    endloop
  endfacet
  facet normal 0 0.555626 0.831432
    outer loop
      vertex 82.7 110.05 -18.0718
      vertex -82.7 110.92 -18.6532
      vertex -82.7 110.05 -18.0718
    endloop
  endfacet
  facet normal 0 0.947036 0.321126
    outer loop
      vertex 82.7 113.777 -22.9294
      vertex -82.7 113.441 -21.9385
      vertex 82.7 113.441 -21.9385
    endloop
  endfacet
  facet normal 0 0.947036 0.321126
    outer loop
      vertex -82.7 113.441 -21.9385
      vertex 82.7 113.777 -22.9294
      vertex -82.7 113.777 -22.9294
    endloop
  endfacet
  facet normal 0 -0.831462 0.555582
    outer loop
      vertex -82.7 99.1218 -21
      vertex 82.7 99.7032 -20.1299
      vertex -82.7 99.7032 -20.1299
    endloop
  endfacet
  facet normal 0 -0.831462 0.555582
    outer loop
      vertex 82.7 99.7032 -20.1299
      vertex -82.7 99.1218 -21
      vertex 82.7 99.1218 -21
    endloop
  endfacet
  facet normal 0 -0.980779 0.195124
    outer loop
      vertex -82.7 98.1184 -23.9558
      vertex 82.7 98.3226 -22.9294
      vertex -82.7 98.3226 -22.9294
    endloop
  endfacet
  facet normal 0 -0.980779 0.195124
    outer loop
      vertex 82.7 98.3226 -22.9294
      vertex -82.7 98.1184 -23.9558
      vertex 82.7 98.1184 -23.9558
    endloop
  endfacet
  facet normal 0 -0.751937 0.659235
    outer loop
      vertex -82.7 99.7032 -20.1299
      vertex 82.7 100.393 -19.3431
      vertex -82.7 100.393 -19.3431
    endloop
  endfacet
  facet normal 0 -0.751937 0.659235
    outer loop
      vertex 82.7 100.393 -19.3431
      vertex -82.7 99.7032 -20.1299
      vertex 82.7 99.7032 -20.1299
    endloop
  endfacet
  facet normal 0 -0.997861 0.0653646
    outer loop
      vertex -82.7 98.05 -25
      vertex 82.7 98.1184 -23.9558
      vertex -82.7 98.1184 -23.9558
    endloop
  endfacet
  facet normal 0 -0.997861 0.0653646
    outer loop
      vertex 82.7 98.1184 -23.9558
      vertex -82.7 98.05 -25
      vertex 82.7 98.05 -25
    endloop
  endfacet
  facet normal 0 -0.321731 0.946831
    outer loop
      vertex -82.7 103.979 -17.2726
      vertex 82.7 102.989 -17.609
      vertex 82.7 103.979 -17.2726
    endloop
  endfacet
  facet normal 0 -0.321731 0.946831
    outer loop
      vertex 82.7 102.989 -17.609
      vertex -82.7 103.979 -17.2726
      vertex -82.7 102.989 -17.609
    endloop
  endfacet
  facet normal -0 0.321731 0.946831
    outer loop
      vertex -82.7 109.111 -17.609
      vertex 82.7 108.121 -17.2726
      vertex 82.7 109.111 -17.609
    endloop
  endfacet
  facet normal 0 0.321731 0.946831
    outer loop
      vertex 82.7 108.121 -17.2726
      vertex -82.7 109.111 -17.609
      vertex -82.7 108.121 -17.2726
    endloop
  endfacet
  facet normal 0 -0.659194 -0.751973
    outer loop
      vertex -82.7 100.393 -30.6569
      vertex 82.7 101.18 -31.3468
      vertex 82.7 100.393 -30.6569
    endloop
  endfacet
  facet normal -0 -0.659194 -0.751973
    outer loop
      vertex 82.7 101.18 -31.3468
      vertex -82.7 100.393 -30.6569
      vertex -82.7 101.18 -31.3468
    endloop
  endfacet
  facet normal 0 -0.751937 -0.659235
    outer loop
      vertex -82.7 100.393 -30.6569
      vertex 82.7 99.7032 -29.8701
      vertex -82.7 99.7032 -29.8701
    endloop
  endfacet
  facet normal 0 -0.751937 -0.659235
    outer loop
      vertex 82.7 99.7032 -29.8701
      vertex -82.7 100.393 -30.6569
      vertex 82.7 100.393 -30.6569
    endloop
  endfacet
  facet normal -0 0.442086 0.896973
    outer loop
      vertex -82.7 110.05 -18.0718
      vertex 82.7 109.111 -17.609
      vertex 82.7 110.05 -18.0718
    endloop
  endfacet
  facet normal 0 0.442086 0.896973
    outer loop
      vertex 82.7 109.111 -17.609
      vertex -82.7 110.05 -18.0718
      vertex -82.7 109.111 -17.609
    endloop
  endfacet
endsolid OpenSCAD_Model
