solid OpenSCAD_Model
  facet normal 0 1 -0
    outer loop
      vertex 80 56 -2
      vertex 50 56 0
      vertex 80 56 0
    endloop
  endfacet
  facet normal 0 1 0
    outer loop
      vertex 50 56 0
      vertex 80 56 -2
      vertex 50 56 -2
    endloop
  endfacet
  facet normal 0 1 0
    outer loop
      vertex 80 56 0
      vertex 128 56 3
      vertex 128 56 0
    endloop
  endfacet
  facet normal 0 1 0
    outer loop
      vertex 128 56 3
      vertex 80 56 0
      vertex 2 56 3
    endloop
  endfacet
  facet normal 0 1 -0
    outer loop
      vertex 50 56 0
      vertex 2 56 3
      vertex 80 56 0
    endloop
  endfacet
  facet normal 0 1 0
    outer loop
      vertex 2 56 3
      vertex 50 56 0
      vertex 2 56 0
    endloop
  endfacet
  facet normal 0.433808 -0.901005 0
    outer loop
      vertex 128 0 0
      vertex 129.564 0.753021 3
      vertex 128 0 3
    endloop
  endfacet
  facet normal 0.433808 -0.901005 0
    outer loop
      vertex 129.564 0.753021 3
      vertex 128 0 0
      vertex 129.564 0.753021 0
    endloop
  endfacet
  facet normal -0.900968 -0.433885 0
    outer loop
      vertex 0.753021 0.43634 0
      vertex 0 2 3
      vertex 0 2 0
    endloop
  endfacet
  facet normal -0.900968 -0.433885 0
    outer loop
      vertex 0 2 3
      vertex 0.753021 0.43634 0
      vertex 0.753021 0.43634 3
    endloop
  endfacet
  facet normal -0.943884 0.330276 0
    outer loop
      vertex 0 54 0
      vertex 0.43634 55.247 3
      vertex 0.43634 55.247 0
    endloop
  endfacet
  facet normal -0.943884 0.330276 0
    outer loop
      vertex 0.43634 55.247 3
      vertex 0 54 0
      vertex 0 54 3
    endloop
  endfacet
  facet normal 0 0 -1
    outer loop
      vertex 128 0 0
      vertex 130 2 0
      vertex 129.564 0.753021 0
    endloop
  endfacet
  facet normal 0 0 -1
    outer loop
      vertex 80 54 0
      vertex 130 2 0
      vertex 128 0 0
    endloop
  endfacet
  facet normal 0 0 -1
    outer loop
      vertex 130 2 0
      vertex 80 54 0
      vertex 130 54 0
    endloop
  endfacet
  facet normal 0 0 -1
    outer loop
      vertex 130 54 0
      vertex 128 56 0
      vertex 129.247 55.5637 0
    endloop
  endfacet
  facet normal 0 0 -1
    outer loop
      vertex 130 54 0
      vertex 80 54 0
      vertex 128 56 0
    endloop
  endfacet
  facet normal 0 0 -1
    outer loop
      vertex 128 0 0
      vertex 50 54 0
      vertex 80 54 0
    endloop
  endfacet
  facet normal 0 0 -1
    outer loop
      vertex 2 0 0
      vertex 50 54 0
      vertex 128 0 0
    endloop
  endfacet
  facet normal 0 0 -1
    outer loop
      vertex 0 2 0
      vertex 50 54 0
      vertex 2 0 0
    endloop
  endfacet
  facet normal 0 0 -1
    outer loop
      vertex 0 54 0
      vertex 50 54 0
      vertex 0 2 0
    endloop
  endfacet
  facet normal 0 0 -1
    outer loop
      vertex 0 2 0
      vertex 2 0 0
      vertex 0.753021 0.43634 0
    endloop
  endfacet
  facet normal 0 -0 -1
    outer loop
      vertex 2 56 0
      vertex 50 54 0
      vertex 0 54 0
    endloop
  endfacet
  facet normal 0 0 -1
    outer loop
      vertex 50 54 0
      vertex 2 56 0
      vertex 50 56 0
    endloop
  endfacet
  facet normal 0 0 -1
    outer loop
      vertex 2 56 0
      vertex 0 54 0
      vertex 0.43634 55.247 0
    endloop
  endfacet
  facet normal -0 0 -1
    outer loop
      vertex 128 56 0
      vertex 80 54 0
      vertex 80 56 0
    endloop
  endfacet
  facet normal 0.330249 0.943894 -0
    outer loop
      vertex 129.247 55.5637 0
      vertex 128 56 3
      vertex 129.247 55.5637 3
    endloop
  endfacet
  facet normal 0.330249 0.943894 0
    outer loop
      vertex 128 56 3
      vertex 129.247 55.5637 0
      vertex 128 56 0
    endloop
  endfacet
  facet normal -0.433875 0.900973 0
    outer loop
      vertex 2 56 0
      vertex 0.43634 55.247 3
      vertex 2 56 3
    endloop
  endfacet
  facet normal -0.433875 0.900973 0
    outer loop
      vertex 0.43634 55.247 3
      vertex 2 56 0
      vertex 0.43634 55.247 0
    endloop
  endfacet
  facet normal 0.900977 0.433866 0
    outer loop
      vertex 130 54 3
      vertex 129.247 55.5637 0
      vertex 129.247 55.5637 3
    endloop
  endfacet
  facet normal 0.900977 0.433866 0
    outer loop
      vertex 129.247 55.5637 0
      vertex 130 54 3
      vertex 130 54 0
    endloop
  endfacet
  facet normal -1 0 0
    outer loop
      vertex 0 2 0
      vertex 0 54 3
      vertex 0 54 0
    endloop
  endfacet
  facet normal -1 -0 0
    outer loop
      vertex 0 54 3
      vertex 0 2 0
      vertex 0 2 3
    endloop
  endfacet
  facet normal 1 -0 0
    outer loop
      vertex 130 2 3
      vertex 130 54 0
      vertex 130 54 3
    endloop
  endfacet
  facet normal 1 0 0
    outer loop
      vertex 130 54 0
      vertex 130 2 3
      vertex 130 2 0
    endloop
  endfacet
  facet normal -0.330281 -0.943883 0
    outer loop
      vertex 0.753021 0.43634 0
      vertex 2 0 3
      vertex 0.753021 0.43634 3
    endloop
  endfacet
  facet normal -0.330281 -0.943883 -0
    outer loop
      vertex 2 0 3
      vertex 0.753021 0.43634 0
      vertex 2 0 0
    endloop
  endfacet
  facet normal 0 0 1
    outer loop
      vertex 128 0 3
      vertex 130 2 3
      vertex 130 54 3
    endloop
  endfacet
  facet normal 0 0 1
    outer loop
      vertex 128 56 3
      vertex 130 54 3
      vertex 129.247 55.5637 3
    endloop
  endfacet
  facet normal 0 0 1
    outer loop
      vertex 128 0 3
      vertex 130 54 3
      vertex 128 56 3
    endloop
  endfacet
  facet normal 0 0 1
    outer loop
      vertex 130 2 3
      vertex 128 0 3
      vertex 129.564 0.753021 3
    endloop
  endfacet
  facet normal -0 0 1
    outer loop
      vertex 2 56 3
      vertex 128 0 3
      vertex 128 56 3
    endloop
  endfacet
  facet normal 0 0 1
    outer loop
      vertex 2 56 3
      vertex 2 0 3
      vertex 128 0 3
    endloop
  endfacet
  facet normal -0 0 1
    outer loop
      vertex 0 2 3
      vertex 2 0 3
      vertex 2 56 3
    endloop
  endfacet
  facet normal 0 0 1
    outer loop
      vertex 0 54 3
      vertex 2 56 3
      vertex 0.43634 55.247 3
    endloop
  endfacet
  facet normal 0 0 1
    outer loop
      vertex 0 2 3
      vertex 2 56 3
      vertex 0 54 3
    endloop
  endfacet
  facet normal 0 0 1
    outer loop
      vertex 2 0 3
      vertex 0 2 3
      vertex 0.753021 0.43634 3
    endloop
  endfacet
  facet normal 0 -1 0
    outer loop
      vertex 2 0 0
      vertex 128 0 3
      vertex 2 0 3
    endloop
  endfacet
  facet normal 0 -1 -0
    outer loop
      vertex 128 0 3
      vertex 2 0 0
      vertex 128 0 0
    endloop
  endfacet
  facet normal 0.943963 -0.330052 0
    outer loop
      vertex 129.564 0.753021 3
      vertex 130 2 0
      vertex 130 2 3
    endloop
  endfacet
  facet normal 0.943963 -0.330052 0
    outer loop
      vertex 130 2 0
      vertex 129.564 0.753021 3
      vertex 129.564 0.753021 0
    endloop
  endfacet
  facet normal 1 -0 0
    outer loop
      vertex 80 54 0
      vertex 80 56 -2
      vertex 80 56 0
    endloop
  endfacet
  facet normal 1 0 0
    outer loop
      vertex 80 56 -2
      vertex 80 54 0
      vertex 80 54 -2
    endloop
  endfacet
  facet normal 0 0 -1
    outer loop
      vertex 50 54 -2
      vertex 80 56 -2
      vertex 80 54 -2
    endloop
  endfacet
  facet normal -0 0 -1
    outer loop
      vertex 80 56 -2
      vertex 50 54 -2
      vertex 50 56 -2
    endloop
  endfacet
  facet normal -1 0 0
    outer loop
      vertex 50 54 -2
      vertex 50 56 0
      vertex 50 56 -2
    endloop
  endfacet
  facet normal -1 -0 0
    outer loop
      vertex 50 56 0
      vertex 50 54 -2
      vertex 50 54 0
    endloop
  endfacet
  facet normal 0 -1 0
    outer loop
      vertex 50 54 -2
      vertex 80 54 0
      vertex 50 54 0
    endloop
  endfacet
  facet normal 0 -1 -0
    outer loop
      vertex 80 54 0
      vertex 50 54 -2
      vertex 80 54 -2
    endloop
  endfacet
endsolid OpenSCAD_Model
