solid OpenSCAD_Model
  facet normal 1 0 0
    outer loop
      vertex 55.6 130 158.3
      vertex 55.6 134 164.3
      vertex 55.6 130 164.3
    endloop
  endfacet
  facet normal 1 0 0
    outer loop
      vertex 55.6 134 164.3
      vertex 55.6 130 158.3
      vertex 55.6 134 154.3
    endloop
  endfacet
  facet normal 1 0 0
    outer loop
      vertex 55.6 15.7 154.3
      vertex 55.6 130 158.3
      vertex 55.6 15.7 158.3
    endloop
  endfacet
  facet normal 1 0 0
    outer loop
      vertex 55.6 130 158.3
      vertex 55.6 15.7 154.3
      vertex 55.6 134 154.3
    endloop
  endfacet
  facet normal -0 0 1
    outer loop
      vertex -55.6 130 158.3
      vertex 55.6 15.7 158.3
      vertex 55.6 130 158.3
    endloop
  endfacet
  facet normal 0 0 1
    outer loop
      vertex 55.6 15.7 158.3
      vertex -55.6 130 158.3
      vertex -55.6 15.7 158.3
    endloop
  endfacet
  facet normal 0 0 -1
    outer loop
      vertex -55.6 15.7 154.3
      vertex 55.6 134 154.3
      vertex 55.6 15.7 154.3
    endloop
  endfacet
  facet normal -0 0 -1
    outer loop
      vertex 55.6 134 154.3
      vertex -55.6 15.7 154.3
      vertex -55.6 134 154.3
    endloop
  endfacet
  facet normal -1 0 0
    outer loop
      vertex -55.6 134 154.3
      vertex -55.6 130 158.3
      vertex -55.6 134 164.3
    endloop
  endfacet
  facet normal -1 0 0
    outer loop
      vertex -55.6 15.7 154.3
      vertex -55.6 130 158.3
      vertex -55.6 134 154.3
    endloop
  endfacet
  facet normal -1 -0 0
    outer loop
      vertex -55.6 130 158.3
      vertex -55.6 15.7 154.3
      vertex -55.6 15.7 158.3
    endloop
  endfacet
  facet normal -1 -0 0
    outer loop
      vertex -55.6 134 164.3
      vertex -55.6 130 158.3
      vertex -55.6 130 164.3
    endloop
  endfacet
  facet normal 0 1 -0
    outer loop
      vertex 55.6 134 154.3
      vertex -55.6 134 164.3
      vertex 55.6 134 164.3
    endloop
  endfacet
  facet normal 0 1 0
    outer loop
      vertex -55.6 134 164.3
      vertex 55.6 134 154.3
      vertex -55.6 134 154.3
    endloop
  endfacet
  facet normal 0 -1 0
    outer loop
      vertex -55.6 15.7 154.3
      vertex 55.6 15.7 158.3
      vertex -55.6 15.7 158.3
    endloop
  endfacet
  facet normal 0 -1 -0
    outer loop
      vertex 55.6 15.7 158.3
      vertex -55.6 15.7 154.3
      vertex 55.6 15.7 154.3
    endloop
  endfacet
  facet normal -0 0 1
    outer loop
      vertex -55.6 134 164.3
      vertex 55.6 130 164.3
      vertex 55.6 134 164.3
    endloop
  endfacet
  facet normal 0 0 1
    outer loop
      vertex 55.6 130 164.3
      vertex -55.6 134 164.3
      vertex -55.6 130 164.3
    endloop
  endfacet
  facet normal 0 -1 0
    outer loop
      vertex -55.6 130 158.3
      vertex 55.6 130 164.3
      vertex -55.6 130 164.3
    endloop
  endfacet
  facet normal 0 -1 -0
    outer loop
      vertex 55.6 130 164.3
      vertex -55.6 130 158.3
      vertex 55.6 130 158.3
    endloop
  endfacet
endsolid OpenSCAD_Model
